G04*
G04 #@! TF.GenerationSoftware,Altium Limited,Altium Designer,23.4.1 (23)*
G04*
G04 Layer_Color=16711935*
%FSLAX43Y43*%
%MOMM*%
G71*
G04*
G04 #@! TF.SameCoordinates,B8DC0AD9-165B-4E50-B3CF-A5D0C9A40CC4*
G04*
G04*
G04 #@! TF.FilePolarity,Positive*
G04*
G01*
G75*
%ADD10C,0.200*%
G36*
X41881Y88220D02*
X41890D01*
X41900Y88219D01*
X41912Y88218D01*
X41924Y88217D01*
X41951Y88212D01*
X41980Y88206D01*
X42010Y88196D01*
X42038Y88183D01*
X42039Y88182D01*
X42042Y88181D01*
X42046Y88180D01*
X42050Y88176D01*
X42057Y88172D01*
X42064Y88168D01*
X42081Y88156D01*
X42099Y88140D01*
X42118Y88121D01*
X42136Y88100D01*
X42152Y88075D01*
X42153Y88074D01*
X42154Y88071D01*
X42156Y88068D01*
X42159Y88063D01*
X42161Y88056D01*
X42164Y88048D01*
X42168Y88039D01*
X42172Y88029D01*
X42175Y88018D01*
X42179Y88006D01*
X42185Y87980D01*
X42189Y87950D01*
X42191Y87920D01*
Y87911D01*
X42190Y87904D01*
X42189Y87896D01*
X42188Y87886D01*
X42187Y87875D01*
X42185Y87863D01*
X42179Y87838D01*
X42171Y87811D01*
X42165Y87797D01*
X42159Y87784D01*
X42150Y87771D01*
X42142Y87758D01*
X42141Y87757D01*
X42140Y87755D01*
X42137Y87752D01*
X42133Y87747D01*
X42128Y87742D01*
X42122Y87736D01*
X42114Y87729D01*
X42107Y87722D01*
X42098Y87715D01*
X42086Y87707D01*
X42075Y87699D01*
X42063Y87691D01*
X42050Y87685D01*
X42036Y87678D01*
X42021Y87672D01*
X42004Y87666D01*
X41985Y87750D01*
X41986D01*
X41988Y87751D01*
X41991Y87752D01*
X41996Y87754D01*
X42001Y87756D01*
X42009Y87759D01*
X42024Y87766D01*
X42040Y87776D01*
X42057Y87787D01*
X42073Y87801D01*
X42086Y87815D01*
X42088Y87817D01*
X42092Y87823D01*
X42097Y87832D01*
X42103Y87844D01*
X42109Y87860D01*
X42114Y87877D01*
X42118Y87899D01*
X42119Y87922D01*
Y87929D01*
X42118Y87934D01*
Y87940D01*
X42117Y87948D01*
X42114Y87965D01*
X42111Y87985D01*
X42104Y88005D01*
X42095Y88026D01*
X42083Y88046D01*
Y88046D01*
X42081Y88047D01*
X42076Y88054D01*
X42069Y88062D01*
X42058Y88072D01*
X42044Y88084D01*
X42028Y88095D01*
X42009Y88106D01*
X41988Y88115D01*
X41987D01*
X41985Y88116D01*
X41982Y88117D01*
X41977Y88118D01*
X41972Y88120D01*
X41965Y88121D01*
X41950Y88124D01*
X41931Y88128D01*
X41911Y88132D01*
X41889Y88133D01*
X41865Y88134D01*
X41864D01*
X41861D01*
X41856D01*
X41851D01*
X41844Y88133D01*
X41836D01*
X41827Y88132D01*
X41817Y88132D01*
X41794Y88129D01*
X41770Y88124D01*
X41746Y88119D01*
X41722Y88111D01*
X41721D01*
X41719Y88110D01*
X41717Y88108D01*
X41712Y88107D01*
X41701Y88101D01*
X41688Y88093D01*
X41673Y88083D01*
X41658Y88070D01*
X41644Y88055D01*
X41631Y88037D01*
Y88036D01*
X41630Y88034D01*
X41628Y88032D01*
X41626Y88028D01*
X41624Y88023D01*
X41621Y88018D01*
X41616Y88005D01*
X41610Y87988D01*
X41606Y87970D01*
X41602Y87949D01*
X41601Y87928D01*
Y87922D01*
X41602Y87916D01*
Y87910D01*
X41603Y87903D01*
X41607Y87887D01*
X41611Y87867D01*
X41619Y87848D01*
X41629Y87827D01*
X41634Y87817D01*
X41642Y87808D01*
X41643Y87807D01*
X41644Y87806D01*
X41646Y87803D01*
X41649Y87800D01*
X41654Y87796D01*
X41659Y87791D01*
X41665Y87786D01*
X41672Y87781D01*
X41681Y87776D01*
X41690Y87769D01*
X41699Y87764D01*
X41710Y87758D01*
X41722Y87753D01*
X41735Y87749D01*
X41749Y87744D01*
X41764Y87740D01*
X41743Y87655D01*
X41742D01*
X41738Y87656D01*
X41732Y87658D01*
X41725Y87661D01*
X41717Y87664D01*
X41707Y87667D01*
X41695Y87672D01*
X41683Y87678D01*
X41658Y87691D01*
X41632Y87707D01*
X41619Y87717D01*
X41606Y87728D01*
X41595Y87739D01*
X41584Y87752D01*
X41583Y87752D01*
X41581Y87754D01*
X41579Y87759D01*
X41575Y87764D01*
X41571Y87771D01*
X41566Y87778D01*
X41561Y87789D01*
X41557Y87799D01*
X41551Y87811D01*
X41547Y87824D01*
X41542Y87838D01*
X41537Y87852D01*
X41534Y87868D01*
X41532Y87885D01*
X41530Y87902D01*
X41529Y87921D01*
Y87931D01*
X41530Y87938D01*
Y87947D01*
X41531Y87957D01*
X41533Y87968D01*
X41535Y87981D01*
X41539Y88008D01*
X41547Y88035D01*
X41557Y88063D01*
X41563Y88076D01*
X41571Y88089D01*
X41572Y88090D01*
X41572Y88092D01*
X41575Y88095D01*
X41579Y88099D01*
X41583Y88105D01*
X41588Y88111D01*
X41595Y88119D01*
X41602Y88126D01*
X41610Y88133D01*
X41619Y88142D01*
X41640Y88158D01*
X41665Y88174D01*
X41693Y88188D01*
X41694D01*
X41696Y88190D01*
X41701Y88191D01*
X41707Y88193D01*
X41714Y88195D01*
X41723Y88198D01*
X41733Y88202D01*
X41744Y88205D01*
X41756Y88207D01*
X41770Y88211D01*
X41799Y88216D01*
X41831Y88219D01*
X41865Y88221D01*
X41866D01*
X41869D01*
X41875D01*
X41881Y88220D01*
D02*
G37*
G36*
X41558Y87593D02*
X41566Y87593D01*
X41575Y87591D01*
X41584Y87589D01*
X41595Y87585D01*
X41596D01*
X41596Y87584D01*
X41602Y87582D01*
X41610Y87579D01*
X41621Y87573D01*
X41634Y87566D01*
X41649Y87556D01*
X41664Y87546D01*
X41680Y87533D01*
X41681D01*
X41682Y87532D01*
X41687Y87527D01*
X41695Y87519D01*
X41707Y87507D01*
X41721Y87493D01*
X41738Y87475D01*
X41756Y87454D01*
X41776Y87431D01*
X41777Y87430D01*
X41780Y87426D01*
X41784Y87421D01*
X41790Y87414D01*
X41797Y87406D01*
X41805Y87396D01*
X41815Y87385D01*
X41825Y87373D01*
X41847Y87350D01*
X41869Y87327D01*
X41880Y87316D01*
X41891Y87306D01*
X41902Y87297D01*
X41912Y87289D01*
X41913D01*
X41914Y87287D01*
X41916Y87286D01*
X41920Y87284D01*
X41930Y87277D01*
X41942Y87270D01*
X41957Y87263D01*
X41973Y87257D01*
X41990Y87253D01*
X42007Y87251D01*
X42008D01*
X42009D01*
X42014Y87252D01*
X42024Y87253D01*
X42034Y87256D01*
X42047Y87260D01*
X42060Y87266D01*
X42073Y87274D01*
X42086Y87286D01*
X42087Y87287D01*
X42091Y87292D01*
X42096Y87299D01*
X42102Y87309D01*
X42108Y87322D01*
X42113Y87336D01*
X42117Y87354D01*
X42118Y87373D01*
Y87379D01*
X42117Y87383D01*
X42116Y87394D01*
X42113Y87407D01*
X42110Y87421D01*
X42103Y87436D01*
X42095Y87451D01*
X42084Y87465D01*
X42082Y87467D01*
X42077Y87470D01*
X42070Y87476D01*
X42059Y87482D01*
X42046Y87488D01*
X42029Y87494D01*
X42011Y87497D01*
X41989Y87499D01*
X41998Y87580D01*
X41999D01*
X42001Y87579D01*
X42006D01*
X42013Y87578D01*
X42020Y87576D01*
X42028Y87574D01*
X42038Y87571D01*
X42049Y87568D01*
X42071Y87561D01*
X42093Y87550D01*
X42104Y87544D01*
X42115Y87535D01*
X42125Y87527D01*
X42135Y87518D01*
X42136Y87517D01*
X42136Y87515D01*
X42139Y87512D01*
X42142Y87507D01*
X42146Y87502D01*
X42149Y87495D01*
X42154Y87488D01*
X42159Y87479D01*
X42163Y87469D01*
X42168Y87458D01*
X42172Y87446D01*
X42175Y87433D01*
X42178Y87419D01*
X42181Y87404D01*
X42182Y87388D01*
X42183Y87372D01*
Y87362D01*
X42182Y87356D01*
X42181Y87348D01*
X42180Y87339D01*
X42178Y87329D01*
X42176Y87319D01*
X42170Y87295D01*
X42160Y87271D01*
X42155Y87259D01*
X42148Y87247D01*
X42140Y87236D01*
X42131Y87225D01*
X42130Y87225D01*
X42129Y87223D01*
X42125Y87221D01*
X42122Y87217D01*
X42117Y87213D01*
X42111Y87208D01*
X42104Y87203D01*
X42096Y87198D01*
X42078Y87188D01*
X42056Y87179D01*
X42045Y87176D01*
X42032Y87174D01*
X42019Y87172D01*
X42005Y87171D01*
X42003D01*
X41999D01*
X41991Y87172D01*
X41981Y87173D01*
X41970Y87175D01*
X41957Y87178D01*
X41943Y87182D01*
X41929Y87188D01*
X41927Y87188D01*
X41923Y87190D01*
X41915Y87194D01*
X41905Y87200D01*
X41894Y87207D01*
X41880Y87216D01*
X41866Y87227D01*
X41851Y87240D01*
X41849Y87242D01*
X41843Y87247D01*
X41839Y87251D01*
X41834Y87256D01*
X41829Y87262D01*
X41821Y87269D01*
X41814Y87276D01*
X41805Y87286D01*
X41796Y87295D01*
X41786Y87306D01*
X41776Y87318D01*
X41764Y87331D01*
X41752Y87346D01*
X41739Y87360D01*
X41738Y87361D01*
X41736Y87363D01*
X41733Y87367D01*
X41730Y87372D01*
X41724Y87377D01*
X41719Y87384D01*
X41707Y87398D01*
X41693Y87414D01*
X41679Y87429D01*
X41667Y87442D01*
X41662Y87447D01*
X41658Y87452D01*
X41657Y87453D01*
X41654Y87456D01*
X41650Y87459D01*
X41645Y87464D01*
X41638Y87469D01*
X41632Y87474D01*
X41616Y87485D01*
Y87170D01*
X41540D01*
Y87594D01*
X41541D01*
X41545D01*
X41550D01*
X41558Y87593D01*
D02*
G37*
G36*
X39214Y88220D02*
X39223D01*
X39233Y88219D01*
X39245Y88218D01*
X39257Y88217D01*
X39284Y88212D01*
X39313Y88206D01*
X39343Y88196D01*
X39371Y88183D01*
X39372Y88182D01*
X39375Y88181D01*
X39379Y88180D01*
X39383Y88176D01*
X39390Y88172D01*
X39397Y88168D01*
X39414Y88156D01*
X39432Y88140D01*
X39451Y88121D01*
X39469Y88100D01*
X39485Y88075D01*
X39486Y88074D01*
X39487Y88071D01*
X39489Y88068D01*
X39492Y88063D01*
X39494Y88056D01*
X39497Y88048D01*
X39501Y88039D01*
X39505Y88029D01*
X39508Y88018D01*
X39512Y88006D01*
X39518Y87980D01*
X39522Y87950D01*
X39524Y87920D01*
Y87911D01*
X39523Y87904D01*
X39522Y87896D01*
X39521Y87886D01*
X39520Y87875D01*
X39518Y87863D01*
X39512Y87838D01*
X39504Y87811D01*
X39498Y87797D01*
X39492Y87784D01*
X39483Y87771D01*
X39475Y87758D01*
X39474Y87757D01*
X39473Y87755D01*
X39470Y87752D01*
X39466Y87747D01*
X39461Y87742D01*
X39455Y87736D01*
X39447Y87729D01*
X39440Y87722D01*
X39431Y87715D01*
X39419Y87707D01*
X39408Y87699D01*
X39396Y87691D01*
X39383Y87685D01*
X39369Y87678D01*
X39354Y87672D01*
X39337Y87666D01*
X39318Y87750D01*
X39319D01*
X39321Y87751D01*
X39324Y87752D01*
X39329Y87754D01*
X39334Y87756D01*
X39342Y87759D01*
X39357Y87766D01*
X39373Y87776D01*
X39390Y87787D01*
X39406Y87801D01*
X39419Y87815D01*
X39421Y87817D01*
X39425Y87823D01*
X39430Y87832D01*
X39436Y87844D01*
X39442Y87860D01*
X39447Y87877D01*
X39451Y87899D01*
X39452Y87922D01*
Y87929D01*
X39451Y87934D01*
Y87940D01*
X39450Y87948D01*
X39447Y87965D01*
X39444Y87985D01*
X39437Y88005D01*
X39428Y88026D01*
X39416Y88046D01*
Y88046D01*
X39414Y88047D01*
X39409Y88054D01*
X39402Y88062D01*
X39391Y88072D01*
X39377Y88084D01*
X39361Y88095D01*
X39342Y88106D01*
X39321Y88115D01*
X39320D01*
X39318Y88116D01*
X39315Y88117D01*
X39310Y88118D01*
X39305Y88120D01*
X39298Y88121D01*
X39283Y88124D01*
X39264Y88128D01*
X39244Y88132D01*
X39222Y88133D01*
X39198Y88134D01*
X39197D01*
X39194D01*
X39189D01*
X39184D01*
X39177Y88133D01*
X39169D01*
X39160Y88132D01*
X39150Y88132D01*
X39127Y88129D01*
X39103Y88124D01*
X39079Y88119D01*
X39055Y88111D01*
X39054D01*
X39052Y88110D01*
X39050Y88108D01*
X39045Y88107D01*
X39034Y88101D01*
X39021Y88093D01*
X39006Y88083D01*
X38991Y88070D01*
X38977Y88055D01*
X38964Y88037D01*
Y88036D01*
X38963Y88034D01*
X38961Y88032D01*
X38959Y88028D01*
X38957Y88023D01*
X38954Y88018D01*
X38949Y88005D01*
X38943Y87988D01*
X38939Y87970D01*
X38935Y87949D01*
X38934Y87928D01*
Y87922D01*
X38935Y87916D01*
Y87910D01*
X38936Y87903D01*
X38940Y87887D01*
X38944Y87867D01*
X38952Y87848D01*
X38962Y87827D01*
X38967Y87817D01*
X38975Y87808D01*
X38976Y87807D01*
X38977Y87806D01*
X38979Y87803D01*
X38982Y87800D01*
X38987Y87796D01*
X38992Y87791D01*
X38998Y87786D01*
X39005Y87781D01*
X39014Y87776D01*
X39023Y87769D01*
X39032Y87764D01*
X39043Y87758D01*
X39055Y87753D01*
X39068Y87749D01*
X39082Y87744D01*
X39097Y87740D01*
X39076Y87655D01*
X39075D01*
X39071Y87656D01*
X39065Y87658D01*
X39058Y87661D01*
X39050Y87664D01*
X39040Y87667D01*
X39028Y87672D01*
X39016Y87678D01*
X38991Y87691D01*
X38965Y87707D01*
X38952Y87717D01*
X38939Y87728D01*
X38928Y87739D01*
X38917Y87752D01*
X38916Y87752D01*
X38914Y87754D01*
X38912Y87759D01*
X38908Y87764D01*
X38904Y87771D01*
X38899Y87778D01*
X38894Y87789D01*
X38890Y87799D01*
X38884Y87811D01*
X38880Y87824D01*
X38875Y87838D01*
X38870Y87852D01*
X38867Y87868D01*
X38865Y87885D01*
X38863Y87902D01*
X38862Y87921D01*
Y87931D01*
X38863Y87938D01*
Y87947D01*
X38864Y87957D01*
X38866Y87968D01*
X38868Y87981D01*
X38872Y88008D01*
X38880Y88035D01*
X38890Y88063D01*
X38896Y88076D01*
X38904Y88089D01*
X38905Y88090D01*
X38905Y88092D01*
X38908Y88095D01*
X38912Y88099D01*
X38916Y88105D01*
X38921Y88111D01*
X38928Y88119D01*
X38935Y88126D01*
X38943Y88133D01*
X38952Y88142D01*
X38973Y88158D01*
X38998Y88174D01*
X39026Y88188D01*
X39027D01*
X39029Y88190D01*
X39034Y88191D01*
X39040Y88193D01*
X39047Y88195D01*
X39056Y88198D01*
X39066Y88202D01*
X39077Y88205D01*
X39089Y88207D01*
X39103Y88211D01*
X39132Y88216D01*
X39164Y88219D01*
X39198Y88221D01*
X39199D01*
X39202D01*
X39208D01*
X39214Y88220D01*
D02*
G37*
G36*
X39355Y87522D02*
X39357Y87520D01*
X39358Y87517D01*
X39360Y87512D01*
X39363Y87507D01*
X39367Y87500D01*
X39376Y87484D01*
X39386Y87466D01*
X39399Y87447D01*
X39414Y87428D01*
X39430Y87409D01*
X39431Y87408D01*
X39432Y87407D01*
X39434Y87404D01*
X39437Y87400D01*
X39446Y87392D01*
X39457Y87381D01*
X39470Y87370D01*
X39485Y87358D01*
X39500Y87348D01*
X39516Y87338D01*
Y87287D01*
X38873D01*
Y87366D01*
X39373D01*
X39372Y87367D01*
X39369Y87372D01*
X39363Y87377D01*
X39357Y87386D01*
X39348Y87397D01*
X39339Y87409D01*
X39329Y87424D01*
X39319Y87441D01*
Y87442D01*
X39318Y87443D01*
X39314Y87448D01*
X39309Y87458D01*
X39304Y87469D01*
X39297Y87482D01*
X39291Y87495D01*
X39285Y87509D01*
X39279Y87523D01*
X39355D01*
Y87522D01*
D02*
G37*
D10*
X40551Y89929D02*
X42507D01*
X40551Y86513D02*
Y89929D01*
Y86513D02*
X42507D01*
Y89929D01*
X37884D02*
X39840D01*
X37884Y86513D02*
Y89929D01*
Y86513D02*
X39840D01*
Y89929D01*
M02*
