G04*
G04 #@! TF.GenerationSoftware,Altium Limited,Altium Designer,23.4.1 (23)*
G04*
G04 Layer_Color=32768*
%FSLAX26Y26*%
%MOIN*%
G70*
G04*
G04 #@! TF.SameCoordinates,CA646CD9-C579-4672-BC92-6BB416CC7DF5*
G04*
G04*
G04 #@! TF.FilePolarity,Positive*
G04*
G01*
G75*
%ADD10C,0.007874*%
%ADD25C,0.003937*%
%ADD26C,0.001968*%
D10*
X1596492Y3540524D02*
X1673508D01*
X1596492Y3406028D02*
Y3540524D01*
Y3406028D02*
X1673508D01*
Y3540524D01*
X1491492D02*
X1568508D01*
X1491492Y3406028D02*
Y3540524D01*
Y3406028D02*
X1568508D01*
Y3540524D01*
D25*
X2015000Y3764804D02*
Y3804174D01*
X1995316Y3784488D02*
X2034686D01*
X1855000Y3764804D02*
Y3804174D01*
X1835316Y3784488D02*
X1874686D01*
X1935000Y3764804D02*
Y3804174D01*
X1915316Y3784488D02*
X1954686D01*
X1775000Y3129804D02*
Y3169174D01*
X1755316Y3149488D02*
X1794686D01*
X1695000Y3129804D02*
Y3169174D01*
X1675316Y3149488D02*
X1714686D01*
X1855000Y3129804D02*
Y3169174D01*
X1835316Y3149488D02*
X1874686D01*
X1915316D02*
X1954686D01*
X1935000Y3129804D02*
Y3169174D01*
X1675316Y3784488D02*
X1714686D01*
X1695000Y3764804D02*
Y3804174D01*
X1775000Y3764804D02*
Y3804174D01*
X1755316Y3784488D02*
X1794686D01*
D26*
X1072480Y3435316D02*
Y3474686D01*
X1052796Y3455000D02*
X1092166D01*
X778386Y3768780D02*
X1320314D01*
X778386Y3141220D02*
Y3768780D01*
Y3141220D02*
X1320314D01*
X1154646D02*
Y3768780D01*
X1920748Y3299212D02*
Y3667322D01*
X1689252Y3299212D02*
X1920748D01*
X1689252D02*
Y3667322D01*
X1920748D01*
X1981536Y3837638D02*
X2048464D01*
X1981536Y3731338D02*
X2048464D01*
Y3837638D01*
X1981536Y3731338D02*
Y3837638D01*
X1821536Y3731338D02*
X1888464D01*
X1821536Y3837638D02*
X1888464D01*
X1821536Y3731338D02*
Y3837638D01*
X1888464Y3731338D02*
Y3837638D01*
X1901536Y3731338D02*
X1968464D01*
X1901536Y3837638D02*
X1968464D01*
X1901536Y3731338D02*
Y3837638D01*
X1968464Y3731338D02*
Y3837638D01*
X1741536Y3096338D02*
X1808464D01*
X1741536Y3202638D02*
X1808464D01*
X1741536Y3096338D02*
Y3202638D01*
X1808464Y3096338D02*
Y3202638D01*
X1661536Y3096338D02*
X1728464D01*
X1661536Y3202638D02*
X1728464D01*
X1661536Y3096338D02*
Y3202638D01*
X1728464Y3096338D02*
Y3202638D01*
X1821536Y3096338D02*
X1888464D01*
X1821536Y3202638D02*
X1888464D01*
X1821536Y3096338D02*
Y3202638D01*
X1888464Y3096338D02*
Y3202638D01*
X1968464Y3096338D02*
Y3202638D01*
X1901536Y3096338D02*
Y3202638D01*
X1968464D01*
X1901536Y3096338D02*
X1968464D01*
X1661536Y3731338D02*
Y3837638D01*
X1728464Y3731338D02*
Y3837638D01*
X1661536Y3731338D02*
X1728464D01*
X1661536Y3837638D02*
X1728464D01*
X1741536Y3731338D02*
X1808464D01*
X1741536Y3837638D02*
X1808464D01*
X1741536Y3731338D02*
Y3837638D01*
X1808464Y3731338D02*
Y3837638D01*
M02*
