G04*
G04 #@! TF.GenerationSoftware,Altium Limited,Altium Designer,23.4.1 (23)*
G04*
G04 Layer_Color=16711935*
%FSLAX44Y44*%
%MOMM*%
G71*
G04*
G04 #@! TF.SameCoordinates,29E651B0-A92D-4825-8418-8387D5B9DFF4*
G04*
G04*
G04 #@! TF.FilePolarity,Positive*
G04*
G01*
G75*
%ADD10C,0.2000*%
G36*
X418812Y882203D02*
X418905D01*
X418997Y882194D01*
X419118Y882185D01*
X419238Y882166D01*
X419506Y882120D01*
X419802Y882055D01*
X420098Y881963D01*
X420384Y881833D01*
X420393Y881824D01*
X420421Y881815D01*
X420458Y881796D01*
X420504Y881759D01*
X420569Y881722D01*
X420643Y881676D01*
X420810Y881556D01*
X420994Y881399D01*
X421179Y881214D01*
X421364Y881001D01*
X421521Y880751D01*
X421531Y880742D01*
X421540Y880714D01*
X421558Y880677D01*
X421586Y880631D01*
X421614Y880557D01*
X421642Y880483D01*
X421679Y880391D01*
X421716Y880289D01*
X421753Y880178D01*
X421790Y880058D01*
X421845Y879799D01*
X421891Y879503D01*
X421910Y879198D01*
Y879106D01*
X421900Y879041D01*
X421891Y878958D01*
X421882Y878856D01*
X421873Y878754D01*
X421845Y878634D01*
X421790Y878385D01*
X421706Y878107D01*
X421651Y877969D01*
X421586Y877839D01*
X421503Y877710D01*
X421420Y877580D01*
X421410Y877571D01*
X421401Y877552D01*
X421373Y877515D01*
X421327Y877469D01*
X421281Y877423D01*
X421216Y877358D01*
X421142Y877294D01*
X421068Y877220D01*
X420976Y877146D01*
X420865Y877072D01*
X420754Y876989D01*
X420634Y876915D01*
X420495Y876850D01*
X420356Y876776D01*
X420209Y876720D01*
X420042Y876665D01*
X419848Y877497D01*
X419857D01*
X419876Y877506D01*
X419913Y877525D01*
X419959Y877543D01*
X420014Y877562D01*
X420088Y877589D01*
X420236Y877663D01*
X420403Y877756D01*
X420569Y877867D01*
X420726Y878006D01*
X420865Y878154D01*
X420883Y878172D01*
X420920Y878227D01*
X420967Y878320D01*
X421031Y878440D01*
X421087Y878597D01*
X421142Y878773D01*
X421179Y878986D01*
X421189Y879217D01*
Y879291D01*
X421179Y879337D01*
Y879402D01*
X421170Y879476D01*
X421142Y879651D01*
X421105Y879845D01*
X421041Y880049D01*
X420948Y880262D01*
X420828Y880456D01*
Y880465D01*
X420810Y880474D01*
X420763Y880539D01*
X420689Y880622D01*
X420578Y880724D01*
X420440Y880844D01*
X420283Y880955D01*
X420088Y881057D01*
X419876Y881149D01*
X419866D01*
X419848Y881158D01*
X419820Y881168D01*
X419774Y881177D01*
X419719Y881195D01*
X419654Y881214D01*
X419497Y881242D01*
X419312Y881279D01*
X419108Y881316D01*
X418886Y881334D01*
X418646Y881343D01*
X418637D01*
X418609D01*
X418563D01*
X418507D01*
X418443Y881334D01*
X418359D01*
X418267Y881325D01*
X418165Y881316D01*
X417943Y881288D01*
X417703Y881242D01*
X417463Y881186D01*
X417222Y881112D01*
X417213D01*
X417195Y881103D01*
X417167Y881084D01*
X417121Y881066D01*
X417010Y881010D01*
X416880Y880927D01*
X416732Y880825D01*
X416575Y880696D01*
X416436Y880548D01*
X416307Y880372D01*
Y880363D01*
X416298Y880345D01*
X416279Y880317D01*
X416261Y880280D01*
X416242Y880234D01*
X416214Y880178D01*
X416159Y880049D01*
X416104Y879882D01*
X416057Y879697D01*
X416020Y879494D01*
X416011Y879281D01*
Y879217D01*
X416020Y879161D01*
Y879097D01*
X416030Y879032D01*
X416067Y878865D01*
X416113Y878671D01*
X416187Y878477D01*
X416288Y878274D01*
X416344Y878172D01*
X416418Y878080D01*
X416427Y878070D01*
X416436Y878061D01*
X416464Y878033D01*
X416492Y877996D01*
X416538Y877959D01*
X416594Y877913D01*
X416649Y877858D01*
X416723Y877811D01*
X416806Y877756D01*
X416899Y877691D01*
X416991Y877636D01*
X417102Y877580D01*
X417222Y877534D01*
X417352Y877488D01*
X417490Y877442D01*
X417638Y877405D01*
X417426Y876554D01*
X417416D01*
X417379Y876563D01*
X417324Y876582D01*
X417250Y876609D01*
X417167Y876637D01*
X417065Y876674D01*
X416954Y876720D01*
X416834Y876776D01*
X416575Y876905D01*
X416316Y877072D01*
X416187Y877173D01*
X416057Y877275D01*
X415946Y877386D01*
X415835Y877515D01*
X415826Y877525D01*
X415808Y877543D01*
X415789Y877589D01*
X415752Y877636D01*
X415706Y877710D01*
X415660Y877784D01*
X415614Y877885D01*
X415567Y877987D01*
X415512Y878107D01*
X415466Y878237D01*
X415419Y878375D01*
X415373Y878523D01*
X415336Y878680D01*
X415318Y878847D01*
X415299Y879023D01*
X415290Y879208D01*
Y879309D01*
X415299Y879383D01*
Y879466D01*
X415308Y879568D01*
X415327Y879679D01*
X415345Y879808D01*
X415392Y880077D01*
X415466Y880354D01*
X415567Y880631D01*
X415632Y880761D01*
X415706Y880890D01*
X415715Y880899D01*
X415724Y880918D01*
X415752Y880955D01*
X415789Y880992D01*
X415826Y881047D01*
X415882Y881112D01*
X415946Y881186D01*
X416020Y881260D01*
X416104Y881334D01*
X416187Y881417D01*
X416399Y881584D01*
X416649Y881741D01*
X416926Y881879D01*
X416936D01*
X416963Y881898D01*
X417010Y881907D01*
X417065Y881935D01*
X417139Y881953D01*
X417231Y881981D01*
X417333Y882018D01*
X417444Y882046D01*
X417564Y882074D01*
X417703Y882111D01*
X417990Y882157D01*
X418313Y882194D01*
X418646Y882212D01*
X418655D01*
X418692D01*
X418748D01*
X418812Y882203D01*
D02*
G37*
G36*
X415577Y875935D02*
X415660Y875925D01*
X415752Y875907D01*
X415845Y875888D01*
X415946Y875851D01*
X415956D01*
X415965Y875842D01*
X416020Y875824D01*
X416104Y875787D01*
X416214Y875731D01*
X416344Y875657D01*
X416492Y875565D01*
X416640Y875463D01*
X416797Y875334D01*
X416806D01*
X416815Y875315D01*
X416871Y875269D01*
X416954Y875186D01*
X417074Y875065D01*
X417213Y874927D01*
X417379Y874751D01*
X417564Y874538D01*
X417758Y874307D01*
X417768Y874298D01*
X417795Y874261D01*
X417842Y874206D01*
X417897Y874141D01*
X417971Y874058D01*
X418054Y873956D01*
X418147Y873854D01*
X418248Y873734D01*
X418470Y873503D01*
X418692Y873272D01*
X418803Y873161D01*
X418914Y873059D01*
X419016Y872967D01*
X419118Y872893D01*
X419127D01*
X419136Y872874D01*
X419164Y872856D01*
X419201Y872837D01*
X419302Y872773D01*
X419423Y872699D01*
X419571Y872634D01*
X419728Y872569D01*
X419903Y872532D01*
X420070Y872514D01*
X420079D01*
X420088D01*
X420144Y872523D01*
X420236Y872532D01*
X420338Y872560D01*
X420467Y872597D01*
X420597Y872662D01*
X420726Y872745D01*
X420856Y872856D01*
X420874Y872874D01*
X420911Y872921D01*
X420957Y872985D01*
X421022Y873087D01*
X421078Y873216D01*
X421133Y873364D01*
X421170Y873540D01*
X421179Y873734D01*
Y873790D01*
X421170Y873827D01*
X421161Y873938D01*
X421133Y874067D01*
X421096Y874206D01*
X421031Y874363D01*
X420948Y874511D01*
X420837Y874649D01*
X420819Y874668D01*
X420773Y874705D01*
X420699Y874760D01*
X420588Y874816D01*
X420458Y874881D01*
X420292Y874936D01*
X420107Y874973D01*
X419894Y874992D01*
X419977Y875796D01*
X419987D01*
X420014Y875787D01*
X420061D01*
X420125Y875777D01*
X420199Y875759D01*
X420283Y875740D01*
X420384Y875713D01*
X420486Y875685D01*
X420708Y875611D01*
X420930Y875500D01*
X421041Y875435D01*
X421152Y875352D01*
X421253Y875269D01*
X421346Y875176D01*
X421355Y875167D01*
X421364Y875149D01*
X421392Y875121D01*
X421420Y875075D01*
X421457Y875019D01*
X421494Y874955D01*
X421540Y874881D01*
X421586Y874788D01*
X421632Y874686D01*
X421679Y874575D01*
X421716Y874455D01*
X421753Y874326D01*
X421780Y874187D01*
X421808Y874039D01*
X421817Y873882D01*
X421827Y873716D01*
Y873623D01*
X421817Y873558D01*
X421808Y873484D01*
X421799Y873392D01*
X421780Y873290D01*
X421762Y873189D01*
X421697Y872948D01*
X421605Y872708D01*
X421549Y872588D01*
X421484Y872467D01*
X421401Y872356D01*
X421309Y872255D01*
X421300Y872245D01*
X421290Y872227D01*
X421253Y872208D01*
X421216Y872172D01*
X421170Y872125D01*
X421105Y872079D01*
X421041Y872033D01*
X420957Y871977D01*
X420782Y871885D01*
X420560Y871793D01*
X420449Y871756D01*
X420320Y871737D01*
X420190Y871719D01*
X420051Y871709D01*
X420033D01*
X419987D01*
X419913Y871719D01*
X419811Y871728D01*
X419700Y871746D01*
X419571Y871783D01*
X419432Y871820D01*
X419293Y871876D01*
X419275Y871885D01*
X419229Y871903D01*
X419155Y871940D01*
X419053Y871996D01*
X418942Y872070D01*
X418803Y872162D01*
X418665Y872273D01*
X418507Y872403D01*
X418489Y872421D01*
X418433Y872467D01*
X418387Y872514D01*
X418341Y872560D01*
X418285Y872615D01*
X418212Y872689D01*
X418138Y872763D01*
X418054Y872856D01*
X417962Y872948D01*
X417860Y873059D01*
X417758Y873179D01*
X417638Y873309D01*
X417518Y873457D01*
X417389Y873605D01*
X417379Y873614D01*
X417361Y873632D01*
X417333Y873669D01*
X417296Y873716D01*
X417241Y873771D01*
X417185Y873836D01*
X417065Y873984D01*
X416926Y874141D01*
X416788Y874289D01*
X416668Y874418D01*
X416621Y874474D01*
X416575Y874520D01*
X416566Y874529D01*
X416538Y874557D01*
X416501Y874594D01*
X416446Y874640D01*
X416381Y874686D01*
X416316Y874742D01*
X416159Y874853D01*
Y871700D01*
X415401D01*
Y875944D01*
X415410D01*
X415447D01*
X415503D01*
X415577Y875935D01*
D02*
G37*
G36*
X392142Y882203D02*
X392235D01*
X392327Y882194D01*
X392448Y882185D01*
X392568Y882166D01*
X392836Y882120D01*
X393132Y882055D01*
X393428Y881963D01*
X393714Y881833D01*
X393723Y881824D01*
X393751Y881815D01*
X393788Y881796D01*
X393834Y881759D01*
X393899Y881722D01*
X393973Y881676D01*
X394140Y881556D01*
X394324Y881399D01*
X394509Y881214D01*
X394694Y881001D01*
X394851Y880751D01*
X394861Y880742D01*
X394870Y880714D01*
X394888Y880677D01*
X394916Y880631D01*
X394944Y880557D01*
X394972Y880483D01*
X395009Y880391D01*
X395046Y880289D01*
X395083Y880178D01*
X395120Y880058D01*
X395175Y879799D01*
X395221Y879503D01*
X395240Y879198D01*
Y879106D01*
X395230Y879041D01*
X395221Y878958D01*
X395212Y878856D01*
X395203Y878754D01*
X395175Y878634D01*
X395120Y878385D01*
X395036Y878107D01*
X394981Y877969D01*
X394916Y877839D01*
X394833Y877710D01*
X394750Y877580D01*
X394740Y877571D01*
X394731Y877552D01*
X394703Y877515D01*
X394657Y877469D01*
X394611Y877423D01*
X394546Y877358D01*
X394472Y877294D01*
X394398Y877220D01*
X394306Y877146D01*
X394195Y877072D01*
X394084Y876989D01*
X393964Y876915D01*
X393825Y876850D01*
X393686Y876776D01*
X393539Y876720D01*
X393372Y876665D01*
X393178Y877497D01*
X393187D01*
X393206Y877506D01*
X393243Y877525D01*
X393289Y877543D01*
X393344Y877562D01*
X393418Y877589D01*
X393566Y877663D01*
X393733Y877756D01*
X393899Y877867D01*
X394056Y878006D01*
X394195Y878154D01*
X394213Y878172D01*
X394250Y878227D01*
X394297Y878320D01*
X394361Y878440D01*
X394417Y878597D01*
X394472Y878773D01*
X394509Y878986D01*
X394519Y879217D01*
Y879291D01*
X394509Y879337D01*
Y879402D01*
X394500Y879476D01*
X394472Y879651D01*
X394435Y879845D01*
X394371Y880049D01*
X394278Y880262D01*
X394158Y880456D01*
Y880465D01*
X394140Y880474D01*
X394093Y880539D01*
X394019Y880622D01*
X393908Y880724D01*
X393770Y880844D01*
X393613Y880955D01*
X393418Y881057D01*
X393206Y881149D01*
X393196D01*
X393178Y881158D01*
X393150Y881168D01*
X393104Y881177D01*
X393049Y881195D01*
X392984Y881214D01*
X392827Y881242D01*
X392642Y881279D01*
X392438Y881316D01*
X392216Y881334D01*
X391976Y881343D01*
X391967D01*
X391939D01*
X391893D01*
X391837D01*
X391773Y881334D01*
X391689D01*
X391597Y881325D01*
X391495Y881316D01*
X391273Y881288D01*
X391033Y881242D01*
X390793Y881186D01*
X390552Y881112D01*
X390543D01*
X390524Y881103D01*
X390497Y881084D01*
X390451Y881066D01*
X390340Y881010D01*
X390210Y880927D01*
X390062Y880825D01*
X389905Y880696D01*
X389766Y880548D01*
X389637Y880372D01*
Y880363D01*
X389628Y880345D01*
X389609Y880317D01*
X389591Y880280D01*
X389572Y880234D01*
X389544Y880178D01*
X389489Y880049D01*
X389434Y879882D01*
X389387Y879697D01*
X389350Y879494D01*
X389341Y879281D01*
Y879217D01*
X389350Y879161D01*
Y879097D01*
X389360Y879032D01*
X389397Y878865D01*
X389443Y878671D01*
X389517Y878477D01*
X389618Y878274D01*
X389674Y878172D01*
X389748Y878080D01*
X389757Y878070D01*
X389766Y878061D01*
X389794Y878033D01*
X389822Y877996D01*
X389868Y877959D01*
X389924Y877913D01*
X389979Y877858D01*
X390053Y877811D01*
X390136Y877756D01*
X390229Y877691D01*
X390321Y877636D01*
X390432Y877580D01*
X390552Y877534D01*
X390682Y877488D01*
X390820Y877442D01*
X390968Y877405D01*
X390756Y876554D01*
X390746D01*
X390709Y876563D01*
X390654Y876582D01*
X390580Y876609D01*
X390497Y876637D01*
X390395Y876674D01*
X390284Y876720D01*
X390164Y876776D01*
X389905Y876905D01*
X389646Y877072D01*
X389517Y877173D01*
X389387Y877275D01*
X389276Y877386D01*
X389165Y877515D01*
X389156Y877525D01*
X389138Y877543D01*
X389119Y877589D01*
X389082Y877636D01*
X389036Y877710D01*
X388990Y877784D01*
X388943Y877885D01*
X388897Y877987D01*
X388842Y878107D01*
X388796Y878237D01*
X388749Y878375D01*
X388703Y878523D01*
X388666Y878680D01*
X388648Y878847D01*
X388629Y879023D01*
X388620Y879208D01*
Y879309D01*
X388629Y879383D01*
Y879466D01*
X388638Y879568D01*
X388657Y879679D01*
X388675Y879808D01*
X388722Y880077D01*
X388796Y880354D01*
X388897Y880631D01*
X388962Y880761D01*
X389036Y880890D01*
X389045Y880899D01*
X389054Y880918D01*
X389082Y880955D01*
X389119Y880992D01*
X389156Y881047D01*
X389212Y881112D01*
X389276Y881186D01*
X389350Y881260D01*
X389434Y881334D01*
X389517Y881417D01*
X389729Y881584D01*
X389979Y881741D01*
X390256Y881879D01*
X390266D01*
X390293Y881898D01*
X390340Y881907D01*
X390395Y881935D01*
X390469Y881953D01*
X390561Y881981D01*
X390663Y882018D01*
X390774Y882046D01*
X390894Y882074D01*
X391033Y882111D01*
X391320Y882157D01*
X391643Y882194D01*
X391976Y882212D01*
X391985D01*
X392022D01*
X392078D01*
X392142Y882203D01*
D02*
G37*
G36*
X393548Y875223D02*
X393566Y875204D01*
X393576Y875167D01*
X393603Y875121D01*
X393631Y875065D01*
X393668Y875001D01*
X393760Y874844D01*
X393862Y874659D01*
X393992Y874474D01*
X394140Y874280D01*
X394297Y874085D01*
X394306Y874076D01*
X394315Y874067D01*
X394343Y874039D01*
X394371Y874002D01*
X394463Y873919D01*
X394574Y873808D01*
X394703Y873697D01*
X394851Y873577D01*
X394999Y873475D01*
X395157Y873383D01*
Y872874D01*
X388731D01*
Y873660D01*
X393733D01*
X393723Y873669D01*
X393686Y873716D01*
X393631Y873771D01*
X393566Y873864D01*
X393483Y873965D01*
X393391Y874095D01*
X393289Y874243D01*
X393187Y874409D01*
Y874418D01*
X393178Y874427D01*
X393141Y874483D01*
X393095Y874575D01*
X393039Y874686D01*
X392975Y874816D01*
X392910Y874955D01*
X392845Y875093D01*
X392790Y875232D01*
X393548D01*
Y875223D01*
D02*
G37*
D10*
X405509Y899293D02*
X425071D01*
X405509Y865131D02*
Y899293D01*
Y865131D02*
X425071D01*
Y899293D01*
X378839D02*
X398401D01*
X378839Y865131D02*
Y899293D01*
Y865131D02*
X398401D01*
Y899293D01*
M02*
