G04*
G04 #@! TF.GenerationSoftware,Altium Limited,Altium Designer,23.4.1 (23)*
G04*
G04 Layer_Color=65535*
%FSLAX43Y43*%
%MOMM*%
G71*
G04*
G04 #@! TF.SameCoordinates,B8DC0AD9-165B-4E50-B3CF-A5D0C9A40CC4*
G04*
G04*
G04 #@! TF.FilePolarity,Positive*
G04*
G01*
G75*
%ADD10C,0.200*%
%ADD11C,0.152*%
D10*
X19971Y93987D02*
Y94227D01*
Y88907D02*
Y89147D01*
Y91447D02*
Y91687D01*
Y86367D02*
Y86607D01*
Y94227D02*
X20171Y94427D01*
X19971Y93987D02*
X20171Y93787D01*
X19971Y91687D02*
X20171Y91887D01*
X19971Y91447D02*
X20171Y91247D01*
X19971Y89147D02*
X20171Y89347D01*
X19971Y88907D02*
X20171Y88707D01*
X19971Y86607D02*
X20171Y86807D01*
X19971Y86367D02*
X20171Y86167D01*
Y94427D02*
X25896D01*
X20171Y93787D02*
X25896D01*
X20171Y91887D02*
X25896D01*
X20171Y91247D02*
X25896D01*
X20171Y89347D02*
X25896D01*
X20171Y88707D02*
X25896D01*
X20171Y86807D02*
X25896D01*
Y79987D02*
Y95527D01*
X28586D01*
Y79987D02*
Y95527D01*
X19971Y83827D02*
Y84067D01*
Y81287D02*
Y81527D01*
Y84067D02*
X20171Y84267D01*
X19971Y83827D02*
X20171Y83627D01*
X19971Y81527D02*
X20171Y81727D01*
X19971Y81287D02*
X20171Y81087D01*
Y86167D02*
X25896D01*
X20171Y84267D02*
X25896D01*
X20171Y83627D02*
X25896D01*
X20171Y81727D02*
X25896D01*
X20171Y81087D02*
X25896D01*
Y79987D02*
X28586D01*
X48487Y86050D02*
Y90900D01*
X43207Y86050D02*
X48487D01*
X43207D02*
Y90900D01*
X48487D01*
X48427Y91250D02*
Y92900D01*
X42657Y86763D02*
Y89679D01*
X40401Y86763D02*
Y89679D01*
X39990Y86763D02*
Y89679D01*
X37734Y86763D02*
Y89679D01*
X48649Y77922D02*
X49649D01*
Y77422D01*
X49482Y77256D01*
X49149D01*
X48982Y77422D01*
Y77922D01*
Y77589D02*
X48649Y77256D01*
X49482Y76922D02*
X49649Y76756D01*
Y76423D01*
X49482Y76256D01*
X49316D01*
X49149Y76423D01*
Y76589D01*
Y76423D01*
X48982Y76256D01*
X48816D01*
X48649Y76423D01*
Y76756D01*
X48816Y76922D01*
X42553Y100147D02*
X43553D01*
Y99647D01*
X43386Y99481D01*
X43053D01*
X42886Y99647D01*
Y100147D01*
Y99814D02*
X42553Y99481D01*
Y98481D02*
Y99147D01*
X43220Y98481D01*
X43386D01*
X43553Y98648D01*
Y98981D01*
X43386Y99147D01*
X27559Y97172D02*
X27226D01*
X27392D01*
Y96339D01*
X27226Y96173D01*
X27059D01*
X26893Y96339D01*
X27892Y96173D02*
X28225D01*
X28059D01*
Y97172D01*
X27892Y97006D01*
X46490Y100147D02*
X47490D01*
Y99647D01*
X47323Y99481D01*
X46990D01*
X46823Y99647D01*
Y100147D01*
Y99814D02*
X46490Y99481D01*
X47490Y98481D02*
Y99147D01*
X46990D01*
X47157Y98814D01*
Y98648D01*
X46990Y98481D01*
X46657D01*
X46490Y98648D01*
Y98981D01*
X46657Y99147D01*
X44585Y100147D02*
X45585D01*
Y99647D01*
X45418Y99481D01*
X45085D01*
X44918Y99647D01*
Y100147D01*
Y99814D02*
X44585Y99481D01*
X45585Y99147D02*
Y98481D01*
X45418D01*
X44752Y99147D01*
X44585D01*
X42426Y77922D02*
X43426D01*
Y77422D01*
X43259Y77256D01*
X42926D01*
X42759Y77422D01*
Y77922D01*
Y77589D02*
X42426Y77256D01*
X42593Y76922D02*
X42426Y76756D01*
Y76423D01*
X42593Y76256D01*
X43259D01*
X43426Y76423D01*
Y76756D01*
X43259Y76922D01*
X43093D01*
X42926Y76756D01*
Y76256D01*
X46617Y77922D02*
X47617D01*
Y77422D01*
X47450Y77256D01*
X47117D01*
X46950Y77422D01*
Y77922D01*
Y77589D02*
X46617Y77256D01*
X47617Y76256D02*
X47450Y76589D01*
X47117Y76922D01*
X46784D01*
X46617Y76756D01*
Y76423D01*
X46784Y76256D01*
X46950D01*
X47117Y76423D01*
Y76922D01*
X48649Y100147D02*
X49649D01*
Y99647D01*
X49482Y99481D01*
X49149D01*
X48982Y99647D01*
Y100147D01*
Y99814D02*
X48649Y99481D01*
Y98648D02*
X49649D01*
X49149Y99147D01*
Y98481D01*
X44585Y77922D02*
X45585D01*
Y77422D01*
X45418Y77256D01*
X45085D01*
X44918Y77422D01*
Y77922D01*
Y77589D02*
X44585Y77256D01*
X45418Y76922D02*
X45585Y76756D01*
Y76423D01*
X45418Y76256D01*
X45252D01*
X45085Y76423D01*
X44918Y76256D01*
X44752D01*
X44585Y76423D01*
Y76756D01*
X44752Y76922D01*
X44918D01*
X45085Y76756D01*
X45252Y76922D01*
X45418D01*
X45085Y76756D02*
Y76423D01*
X50681Y100107D02*
X51681D01*
Y99608D01*
X51514Y99441D01*
X51181D01*
X51014Y99608D01*
Y100107D01*
Y99774D02*
X50681Y99441D01*
Y99108D02*
Y98775D01*
Y98941D01*
X51681D01*
X51514Y99108D01*
X50157Y93031D02*
Y92698D01*
Y92864D01*
X49157D01*
Y93031D01*
Y92698D01*
X49990Y91531D02*
X50157Y91698D01*
Y92031D01*
X49990Y92198D01*
X49324D01*
X49157Y92031D01*
Y91698D01*
X49324Y91531D01*
X49157Y91198D02*
Y90865D01*
Y91032D01*
X50157D01*
X49990Y91198D01*
X39195Y85046D02*
X39362Y85213D01*
Y85546D01*
X39195Y85713D01*
X38529D01*
X38362Y85546D01*
Y85213D01*
X38529Y85046D01*
X38362Y84713D02*
Y84380D01*
Y84546D01*
X39362D01*
X39195Y84713D01*
X41862Y85086D02*
X42029Y85252D01*
Y85586D01*
X41862Y85752D01*
X41196D01*
X41029Y85586D01*
Y85252D01*
X41196Y85086D01*
X41029Y84086D02*
Y84753D01*
X41696Y84086D01*
X41862D01*
X42029Y84253D01*
Y84586D01*
X41862Y84753D01*
D11*
X33464Y78952D02*
X33294Y79290D01*
X32956Y79629D01*
X32617D01*
X32448Y79460D01*
Y79121D01*
X32617Y78952D01*
X32787D01*
X32956Y79121D01*
Y79629D01*
X29781D02*
Y79290D01*
Y79460D01*
X30797D01*
X30627Y79629D01*
X29781Y78105D02*
Y78783D01*
X30458Y78105D01*
X30627D01*
X30797Y78275D01*
Y78613D01*
X30627Y78783D01*
X30797Y96520D02*
Y95843D01*
X30627D01*
X29950Y96520D01*
X29781D01*
X32194Y96139D02*
Y95800D01*
Y95970D01*
X33210D01*
X33040Y96139D01*
M02*
