G04*
G04 #@! TF.GenerationSoftware,Altium Limited,Altium Designer,23.4.1 (23)*
G04*
G04 Layer_Physical_Order=1*
G04 Layer_Color=255*
%FSLAX43Y43*%
%MOMM*%
G71*
G04*
G04 #@! TF.SameCoordinates,B8DC0AD9-165B-4E50-B3CF-A5D0C9A40CC4*
G04*
G04*
G04 #@! TF.FilePolarity,Positive*
G04*
G01*
G75*
%ADD12R,0.650X1.650*%
%ADD13R,1.350X0.950*%
%ADD14R,1.456X1.305*%
%ADD19C,0.254*%
%ADD20C,0.500*%
%ADD21C,0.400*%
%ADD22C,1.650*%
%ADD23R,1.650X1.650*%
%ADD24C,0.600*%
G36*
X54732Y74656D02*
X25786D01*
Y102433D01*
X54732D01*
Y74656D01*
D02*
G37*
%LPC*%
G36*
X46736Y100845D02*
X37592D01*
X37443Y100816D01*
X37317Y100732D01*
X32618Y96033D01*
X32534Y95907D01*
X32505Y95758D01*
Y95186D01*
X31814D01*
Y93028D01*
X33972D01*
Y95186D01*
X33281D01*
Y95597D01*
X37753Y100069D01*
X46575D01*
X48761Y97883D01*
Y97630D01*
X48220D01*
Y96207D01*
X48220Y96172D01*
Y96080D01*
X48220Y96045D01*
Y94622D01*
X48335D01*
X48384Y94505D01*
X47452Y93573D01*
X47352Y93423D01*
X47317Y93246D01*
X47237Y93154D01*
X47188D01*
X47173Y93154D01*
X47061D01*
X46945Y93217D01*
Y93534D01*
X47444Y94034D01*
X47444Y94034D01*
X47545Y94184D01*
X47580Y94361D01*
Y94622D01*
X48046D01*
Y96045D01*
X48046Y96080D01*
Y96172D01*
X48046Y96207D01*
Y97630D01*
X47505D01*
Y98044D01*
X47476Y98193D01*
X47392Y98319D01*
X45995Y99716D01*
X45869Y99800D01*
X45720Y99829D01*
X38481D01*
X38332Y99800D01*
X38206Y99716D01*
X36047Y97557D01*
X35963Y97431D01*
X35934Y97282D01*
Y91093D01*
X34256Y89415D01*
X33906D01*
X33898Y89443D01*
X33756Y89690D01*
X33556Y89890D01*
X33309Y90032D01*
X33035Y90106D01*
X32751D01*
X32477Y90032D01*
X32230Y89890D01*
X32030Y89690D01*
X31888Y89443D01*
X31814Y89169D01*
Y88885D01*
X31888Y88611D01*
X32030Y88364D01*
X32122Y88272D01*
X32069Y88145D01*
X31403D01*
X31200Y88348D01*
X31216Y88364D01*
X31358Y88611D01*
X31432Y88885D01*
Y89169D01*
X31358Y89443D01*
X31216Y89690D01*
X31016Y89890D01*
X30769Y90032D01*
X30495Y90106D01*
X30211D01*
X29937Y90032D01*
X29690Y89890D01*
X29490Y89690D01*
X29348Y89443D01*
X29274Y89169D01*
Y88885D01*
X29348Y88611D01*
X29490Y88364D01*
X29690Y88164D01*
X29937Y88022D01*
X30211Y87948D01*
X30495D01*
X30500Y87949D01*
X30867Y87583D01*
X30789Y87481D01*
X30769Y87492D01*
X30495Y87566D01*
X30211D01*
X29937Y87492D01*
X29690Y87350D01*
X29490Y87150D01*
X29348Y86903D01*
X29340Y86875D01*
X28067D01*
X27918Y86846D01*
X27792Y86762D01*
X26064Y85034D01*
X25980Y84908D01*
X25951Y84759D01*
Y77928D01*
X25980Y77779D01*
X26064Y77653D01*
X27792Y75925D01*
X27918Y75841D01*
X28067Y75812D01*
X45974D01*
X46123Y75841D01*
X46249Y75925D01*
X47392Y77068D01*
X47476Y77194D01*
X47505Y77343D01*
Y78493D01*
X48046D01*
Y79951D01*
X48046D01*
Y80043D01*
X48046D01*
Y80309D01*
X48220D01*
Y80078D01*
X48220Y80043D01*
Y79951D01*
X48220Y79916D01*
Y78493D01*
X50078D01*
Y78626D01*
X50205Y78691D01*
X50258Y78669D01*
X50478D01*
X50682Y78753D01*
X50838Y78909D01*
X50922Y79112D01*
Y79333D01*
X50838Y79536D01*
X50682Y79692D01*
X50478Y79777D01*
X50258D01*
X50205Y79755D01*
X50078Y79820D01*
X50078Y80043D01*
X50078Y80078D01*
Y81501D01*
X48220D01*
Y81235D01*
X48046D01*
Y81501D01*
X47580D01*
Y82423D01*
X47545Y82600D01*
X47444Y82750D01*
X47444Y82750D01*
X46945Y83250D01*
Y83770D01*
X47026Y83788D01*
X47072Y83794D01*
X47180Y83776D01*
X47188Y83764D01*
X47297Y83655D01*
X47318Y83641D01*
X47336Y83623D01*
X47360Y83613D01*
X47381Y83599D01*
X47382Y83598D01*
X47423Y83582D01*
X47424Y83581D01*
X47450Y83576D01*
X47473Y83566D01*
X47499Y83566D01*
X47523Y83561D01*
X48082D01*
X48082Y83561D01*
X48107Y83561D01*
X48133Y83566D01*
X48158Y83566D01*
X48173Y83572D01*
X48189Y83574D01*
X48189Y83574D01*
X48197Y83579D01*
X48207Y83581D01*
X48208Y83582D01*
X48208Y83582D01*
X48249Y83598D01*
X48250Y83599D01*
X48271Y83613D01*
X48295Y83623D01*
X48313Y83641D01*
X48334Y83655D01*
X48352Y83673D01*
X48352Y83673D01*
X48352Y83673D01*
X48679Y84000D01*
X48693Y84021D01*
X48711Y84039D01*
X48721Y84063D01*
X48735Y84084D01*
X48736Y84085D01*
X48752Y84126D01*
X48753Y84127D01*
X48758Y84153D01*
X48768Y84176D01*
X48768Y84202D01*
X48773Y84227D01*
Y86944D01*
X48773Y86944D01*
X48773Y86969D01*
X48768Y86995D01*
X48768Y87020D01*
X48762Y87035D01*
X48760Y87051D01*
X48760Y87051D01*
X48755Y87059D01*
X48753Y87069D01*
X48752Y87070D01*
X48752Y87070D01*
X48736Y87111D01*
X48735Y87112D01*
X48721Y87133D01*
X48711Y87157D01*
X48693Y87175D01*
X48679Y87196D01*
X48661Y87214D01*
X48661Y87214D01*
X48661Y87214D01*
X47623Y88252D01*
X47602Y88266D01*
X47584Y88284D01*
X47560Y88294D01*
X47539Y88308D01*
X47537Y88309D01*
X47497Y88326D01*
X47495Y88326D01*
X47470Y88331D01*
X47447Y88341D01*
X47421Y88341D01*
X47396Y88346D01*
X38202D01*
X38177Y88341D01*
X38151Y88341D01*
X38144Y88340D01*
X38144Y88340D01*
X38119Y88335D01*
X38096Y88325D01*
X38079Y88322D01*
X37880D01*
Y88157D01*
X34633Y84910D01*
X34619Y84889D01*
X34601Y84871D01*
X34591Y84847D01*
X34577Y84826D01*
X34576Y84825D01*
X34560Y84784D01*
X34559Y84783D01*
X34554Y84757D01*
X34544Y84734D01*
X34544Y84708D01*
X34539Y84683D01*
Y84367D01*
X34539Y83038D01*
X34437Y82936D01*
X33554D01*
X33520Y83063D01*
X33548Y83079D01*
X32893Y83735D01*
X32238Y83079D01*
X32266Y83063D01*
X32232Y82936D01*
X31014D01*
X30980Y83063D01*
X31008Y83079D01*
X30247Y83841D01*
X30459Y84053D01*
X31221Y83292D01*
X31358Y83531D01*
X31432Y83805D01*
Y84089D01*
X31358Y84363D01*
X31216Y84610D01*
X31124Y84702D01*
X31177Y84829D01*
X31623D01*
X31772Y84858D01*
X31898Y84942D01*
X32451Y85496D01*
X32477Y85482D01*
X32751Y85408D01*
X33035D01*
X33309Y85482D01*
X33556Y85624D01*
X33756Y85824D01*
X33898Y86071D01*
X33972Y86345D01*
Y86629D01*
X33898Y86903D01*
X33756Y87150D01*
X33664Y87242D01*
X33717Y87369D01*
X34544D01*
X34693Y87398D01*
X34819Y87482D01*
X37867Y90530D01*
X37951Y90656D01*
X37980Y90805D01*
Y96613D01*
X39531Y98164D01*
X44416D01*
X44697Y97883D01*
Y97630D01*
X44156D01*
Y96207D01*
X44156Y96172D01*
Y96080D01*
X44156Y96045D01*
Y95814D01*
X43982D01*
Y96045D01*
X43982Y96080D01*
Y96172D01*
X43982Y96207D01*
Y97630D01*
X42124D01*
Y97415D01*
X41736D01*
X41639Y97455D01*
X41419D01*
X41215Y97371D01*
X41059Y97215D01*
X40975Y97011D01*
Y96791D01*
X41059Y96587D01*
X41215Y96431D01*
X41419Y96347D01*
X41639D01*
X41736Y96387D01*
X42124D01*
Y96207D01*
X42124Y96172D01*
Y96080D01*
X42124Y96045D01*
Y94622D01*
X43982D01*
Y94888D01*
X44156D01*
Y94622D01*
X44749D01*
Y93154D01*
X44633D01*
Y90996D01*
X45776D01*
X45791Y90996D01*
X45903D01*
X45918Y90996D01*
X47046D01*
X47061Y90996D01*
X47173D01*
X47188Y90996D01*
X48331D01*
Y93142D01*
X49372Y94183D01*
X49372Y94183D01*
X49472Y94333D01*
X49507Y94510D01*
X49547Y94622D01*
X50078D01*
Y94888D01*
X50252D01*
Y94622D01*
X52110D01*
Y96045D01*
X52110Y96080D01*
Y96172D01*
X52110Y96207D01*
Y96387D01*
X52498D01*
X52595Y96347D01*
X52815D01*
X53019Y96431D01*
X53175Y96587D01*
X53259Y96791D01*
Y97011D01*
X53175Y97215D01*
X53019Y97371D01*
X52815Y97455D01*
X52595D01*
X52498Y97415D01*
X52110D01*
Y97630D01*
X50252D01*
Y96207D01*
X50252Y96172D01*
Y96080D01*
X50252Y96045D01*
Y95814D01*
X50078D01*
Y96045D01*
X50078Y96080D01*
Y96172D01*
X50078Y96207D01*
Y97630D01*
X49537D01*
Y98044D01*
X49508Y98193D01*
X49424Y98319D01*
X47011Y100732D01*
X46885Y100816D01*
X46736Y100845D01*
D02*
G37*
G36*
X30495Y95186D02*
X30211D01*
X29937Y95112D01*
X29690Y94970D01*
X29490Y94770D01*
X29348Y94523D01*
X29274Y94249D01*
Y93965D01*
X29348Y93691D01*
X29490Y93444D01*
X29690Y93244D01*
X29937Y93102D01*
X30211Y93028D01*
X30495D01*
X30769Y93102D01*
X31016Y93244D01*
X31216Y93444D01*
X31358Y93691D01*
X31432Y93965D01*
Y94249D01*
X31358Y94523D01*
X31216Y94770D01*
X31016Y94970D01*
X30769Y95112D01*
X30495Y95186D01*
D02*
G37*
G36*
X33035Y92646D02*
X32751D01*
X32477Y92572D01*
X32230Y92430D01*
X32030Y92230D01*
X31888Y91983D01*
X31814Y91709D01*
Y91425D01*
X31888Y91151D01*
X32030Y90904D01*
X32230Y90704D01*
X32477Y90562D01*
X32751Y90488D01*
X33035D01*
X33309Y90562D01*
X33556Y90704D01*
X33756Y90904D01*
X33898Y91151D01*
X33972Y91425D01*
Y91709D01*
X33898Y91983D01*
X33756Y92230D01*
X33556Y92430D01*
X33309Y92572D01*
X33035Y92646D01*
D02*
G37*
G36*
X30495D02*
X30211D01*
X29937Y92572D01*
X29690Y92430D01*
X29490Y92230D01*
X29348Y91983D01*
X29274Y91709D01*
Y91425D01*
X29348Y91151D01*
X29490Y90904D01*
X29690Y90704D01*
X29937Y90562D01*
X30211Y90488D01*
X30495D01*
X30769Y90562D01*
X31016Y90704D01*
X31216Y90904D01*
X31358Y91151D01*
X31432Y91425D01*
Y91709D01*
X31358Y91983D01*
X31216Y92230D01*
X31016Y92430D01*
X30769Y92572D01*
X30495Y92646D01*
D02*
G37*
G36*
X33035Y85026D02*
X32751D01*
X32477Y84952D01*
X32238Y84815D01*
X32893Y84159D01*
X33548Y84815D01*
X33309Y84952D01*
X33035Y85026D01*
D02*
G37*
G36*
X32025Y84602D02*
X31888Y84363D01*
X31814Y84089D01*
Y83805D01*
X31888Y83531D01*
X32025Y83292D01*
X32681Y83947D01*
X32025Y84602D01*
D02*
G37*
G36*
X33761Y84602D02*
X33105Y83947D01*
X33761Y83292D01*
X33898Y83531D01*
X33972Y83805D01*
Y84089D01*
X33898Y84363D01*
X33761Y84602D01*
D02*
G37*
%LPD*%
G36*
X46801Y86081D02*
X46733Y85954D01*
X45918D01*
X45903Y85954D01*
X45791D01*
X45776Y85954D01*
X44648D01*
X44633Y85954D01*
X44521D01*
X44506Y85954D01*
X43363D01*
Y83796D01*
X43479D01*
Y82869D01*
X42726Y82115D01*
X42625Y81965D01*
X42590Y81788D01*
X42590Y81788D01*
Y81501D01*
X42124D01*
Y80078D01*
X42124Y80043D01*
Y79951D01*
X42124Y79916D01*
Y78493D01*
X29625D01*
X28709Y79409D01*
Y79597D01*
X28827Y79646D01*
X29263Y79210D01*
X29284Y79196D01*
X29302Y79178D01*
X29326Y79168D01*
X29347Y79154D01*
X29348Y79153D01*
X29389Y79137D01*
X29390Y79136D01*
X29416Y79131D01*
X29439Y79121D01*
X29465Y79121D01*
X29490Y79116D01*
X34239D01*
X34239Y79116D01*
X34264Y79116D01*
X34290Y79121D01*
X34315Y79121D01*
X34330Y79127D01*
X34346Y79129D01*
X34346Y79129D01*
X34354Y79134D01*
X34364Y79136D01*
X34365Y79137D01*
X34365Y79137D01*
X34406Y79153D01*
X34407Y79154D01*
X34428Y79168D01*
X34452Y79178D01*
X34470Y79196D01*
X34491Y79210D01*
X34509Y79228D01*
X34509Y79228D01*
X34509Y79228D01*
X36360Y81079D01*
X36374Y81100D01*
X36392Y81118D01*
X36402Y81142D01*
X36416Y81163D01*
X36417Y81164D01*
X36433Y81205D01*
X36434Y81206D01*
X36439Y81232D01*
X36449Y81255D01*
X36449Y81281D01*
X36454Y81305D01*
Y83967D01*
X38588Y86101D01*
X46787D01*
X46801Y86081D01*
D02*
G37*
G36*
X47398Y88086D02*
X47438Y88069D01*
X47440Y88069D01*
X48478Y87031D01*
X48496Y87013D01*
X48496Y87012D01*
X48513Y86971D01*
X48514Y86969D01*
X48514Y86969D01*
X48514Y86944D01*
X48514Y86944D01*
Y84227D01*
X48513Y84225D01*
X48496Y84184D01*
X48496Y84183D01*
X48169Y83856D01*
X48151Y83838D01*
X48150Y83838D01*
X48109Y83821D01*
X48107Y83820D01*
X48107Y83820D01*
X48082Y83820D01*
X48082Y83820D01*
X47523D01*
X47522Y83821D01*
X47481Y83838D01*
X47480Y83838D01*
X47371Y83947D01*
Y85979D01*
X46990Y86360D01*
X38481D01*
X36195Y84074D01*
Y81305D01*
X36194Y81304D01*
X36177Y81263D01*
X36177Y81262D01*
X34326Y79411D01*
X34308Y79393D01*
X34307Y79393D01*
X34266Y79376D01*
X34264Y79375D01*
X34264Y79375D01*
X34239Y79375D01*
X34239Y79375D01*
X29490D01*
X29488Y79376D01*
X29447Y79393D01*
X29446Y79393D01*
X28829Y80010D01*
Y82169D01*
X29337Y82677D01*
X34544D01*
X34798Y82931D01*
X34798Y84367D01*
Y84683D01*
X34799Y84685D01*
X34816Y84726D01*
X34816Y84727D01*
X38170Y88081D01*
X38195Y88086D01*
X38195Y88086D01*
X38202Y88087D01*
X47396D01*
X47398Y88086D01*
D02*
G37*
%LPC*%
G36*
X33035Y82486D02*
X32751D01*
X32477Y82412D01*
X32238Y82275D01*
X32893Y81619D01*
X33548Y82275D01*
X33309Y82412D01*
X33035Y82486D01*
D02*
G37*
G36*
X30495D02*
X30211D01*
X29937Y82412D01*
X29698Y82275D01*
X30353Y81619D01*
X31008Y82275D01*
X30769Y82412D01*
X30495Y82486D01*
D02*
G37*
G36*
X29485Y82062D02*
X29348Y81823D01*
X29274Y81549D01*
Y81265D01*
X29348Y80991D01*
X29485Y80752D01*
X30141Y81407D01*
X29485Y82062D01*
D02*
G37*
G36*
X32025D02*
X31888Y81823D01*
X31814Y81549D01*
Y81265D01*
X31888Y80991D01*
X32025Y80752D01*
X32681Y81407D01*
X32025Y82062D01*
D02*
G37*
G36*
X33761Y82062D02*
X33105Y81407D01*
X33761Y80752D01*
X33898Y80991D01*
X33972Y81265D01*
Y81549D01*
X33898Y81823D01*
X33761Y82062D01*
D02*
G37*
G36*
X31221D02*
X30565Y81407D01*
X31221Y80752D01*
X31358Y80991D01*
X31432Y81265D01*
Y81549D01*
X31358Y81823D01*
X31221Y82062D01*
D02*
G37*
G36*
X32893Y81195D02*
X32238Y80539D01*
X32477Y80402D01*
X32751Y80328D01*
X33035D01*
X33309Y80402D01*
X33548Y80539D01*
X32893Y81195D01*
D02*
G37*
G36*
X30353D02*
X29698Y80539D01*
X29937Y80402D01*
X30211Y80328D01*
X30495D01*
X30769Y80402D01*
X31008Y80539D01*
X30353Y81195D01*
D02*
G37*
%LPD*%
D12*
X47752Y92075D02*
D03*
X46482D02*
D03*
X45212D02*
D03*
X43942D02*
D03*
Y84875D02*
D03*
X45212D02*
D03*
X46482D02*
D03*
X47752D02*
D03*
D13*
X51181Y96901D02*
D03*
Y95351D02*
D03*
X47117D02*
D03*
Y96901D02*
D03*
X49149Y95351D02*
D03*
Y96901D02*
D03*
X45085Y79222D02*
D03*
Y80772D02*
D03*
X43053Y79222D02*
D03*
Y80772D02*
D03*
X47117Y79222D02*
D03*
Y80772D02*
D03*
X49149D02*
D03*
Y79222D02*
D03*
X43053Y95351D02*
D03*
Y96901D02*
D03*
X45085Y95351D02*
D03*
Y96901D02*
D03*
D14*
X41529Y87415D02*
D03*
Y89027D02*
D03*
X38862Y87415D02*
D03*
Y89027D02*
D03*
D19*
X34544Y87757D02*
X37592Y90805D01*
Y96774D01*
X39370Y98552D01*
X36322Y90932D02*
Y97282D01*
X34417Y89027D02*
X36322Y90932D01*
Y97282D02*
X38481Y99441D01*
X32893Y89027D02*
X34417D01*
X31242Y87757D02*
X34544D01*
X28067Y76200D02*
X45974D01*
X26339Y77928D02*
Y84759D01*
Y77928D02*
X28067Y76200D01*
X28575Y77216D02*
X44450D01*
X27305Y78486D02*
Y84201D01*
Y78486D02*
X28575Y77216D01*
X28321Y79248D02*
X29464Y78105D01*
X28321Y79248D02*
Y83439D01*
X27305Y84201D02*
X28321Y85217D01*
X29464Y78105D02*
X42777D01*
X28321Y85217D02*
X31623D01*
X26339Y84759D02*
X28067Y86487D01*
X30353D01*
X42926Y78254D02*
Y79095D01*
X42777Y78105D02*
X42926Y78254D01*
Y79095D02*
X43053Y79222D01*
X31623Y85217D02*
X32893Y86487D01*
X44450Y77216D02*
X45085Y77851D01*
X47117Y77343D02*
Y79222D01*
X45974Y76200D02*
X47117Y77343D01*
X45085Y77851D02*
Y79222D01*
X46736Y100457D02*
X49149Y98044D01*
Y96901D02*
Y98044D01*
X37592Y100457D02*
X46736D01*
X38481Y99441D02*
X45720D01*
X47117Y96901D02*
Y98044D01*
X45720Y99441D02*
X47117Y98044D01*
X44577Y98552D02*
X45085Y98044D01*
Y96901D02*
Y98044D01*
X39370Y98552D02*
X44577D01*
X32893Y94107D02*
Y95758D01*
X37592Y100457D01*
X30353Y88649D02*
Y89027D01*
Y88649D02*
X30761Y88241D01*
Y88238D02*
Y88241D01*
Y88238D02*
X31242Y87757D01*
D20*
X49149Y79222D02*
X49149Y79222D01*
X50368D01*
X50368Y79223D01*
X41529Y96901D02*
X43053D01*
X51181D02*
X52705D01*
D21*
X47117Y80772D02*
X49149D01*
X47117D02*
Y82423D01*
X46482Y83058D02*
X47117Y82423D01*
X46482Y83058D02*
Y84875D01*
X45212Y80899D02*
Y84875D01*
X45085Y80772D02*
X45212Y80899D01*
X43053Y80772D02*
Y81788D01*
X43942Y82677D02*
Y84875D01*
X43053Y81788D02*
X43942Y82677D01*
X47752Y92075D02*
X47780Y92103D01*
Y93246D01*
X49044Y94510D01*
Y95246D01*
X49149Y95351D01*
X51181D01*
X47117Y94361D02*
Y95351D01*
X46482Y93726D02*
X47117Y94361D01*
X46482Y92075D02*
Y93726D01*
X45212Y92075D02*
Y95224D01*
X45085Y95351D02*
X45212Y95224D01*
X43053Y95351D02*
X45085D01*
D22*
X30353Y86487D02*
D03*
X32893D02*
D03*
X30353Y91567D02*
D03*
X32893D02*
D03*
X30353Y94107D02*
D03*
X32893Y89027D02*
D03*
X30353D02*
D03*
X32893Y83947D02*
D03*
Y81407D02*
D03*
X30353Y83947D02*
D03*
Y81407D02*
D03*
D23*
X32893Y94107D02*
D03*
D24*
X53315Y101803D02*
D03*
X52045Y99263D02*
D03*
X53315Y91643D02*
D03*
X52045Y89103D02*
D03*
X53315Y86563D02*
D03*
X52045Y84023D02*
D03*
X53315Y81483D02*
D03*
X52045Y78943D02*
D03*
X50775Y101803D02*
D03*
X49505Y99263D02*
D03*
Y89103D02*
D03*
X50775Y86563D02*
D03*
X49505Y84023D02*
D03*
X48235Y101803D02*
D03*
X46965Y89103D02*
D03*
X45695Y101803D02*
D03*
X44425Y94183D02*
D03*
Y89103D02*
D03*
X43155Y101803D02*
D03*
X41885Y94183D02*
D03*
X43155Y91643D02*
D03*
X41885Y84023D02*
D03*
X40615Y101803D02*
D03*
Y96723D02*
D03*
X39345Y94183D02*
D03*
X40615Y91643D02*
D03*
X39345Y84023D02*
D03*
X40615Y81483D02*
D03*
X39345Y78943D02*
D03*
X38075Y101803D02*
D03*
Y81483D02*
D03*
X36805Y78943D02*
D03*
X35535Y101803D02*
D03*
X34265Y99263D02*
D03*
X35535Y96723D02*
D03*
Y91643D02*
D03*
Y86563D02*
D03*
X32995Y101803D02*
D03*
X31725Y99263D02*
D03*
X30455Y101803D02*
D03*
X29185Y99263D02*
D03*
X30455Y96723D02*
D03*
X27915Y101803D02*
D03*
X26645Y99263D02*
D03*
X27915Y96723D02*
D03*
X26645Y94183D02*
D03*
X27915Y91643D02*
D03*
X26645Y89103D02*
D03*
X47650Y87249D02*
D03*
X50368Y79223D02*
D03*
X28321Y83439D02*
D03*
X41529Y96901D02*
D03*
X52705D02*
D03*
M02*
