G04*
G04 #@! TF.GenerationSoftware,Altium Limited,Altium Designer,23.4.1 (23)*
G04*
G04 Layer_Color=8388736*
%FSLAX44Y44*%
%MOMM*%
G71*
G04*
G04 #@! TF.SameCoordinates,29E651B0-A92D-4825-8418-8387D5B9DFF4*
G04*
G04*
G04 #@! TF.FilePolarity,Negative*
G04*
G01*
G75*
%ADD14R,1.4562X1.3046*%
%ADD15R,0.8532X1.8532*%
%ADD16R,1.5532X1.1532*%
%ADD17C,1.8532*%
%ADD18R,1.8532X1.8532*%
D14*
X415290Y874154D02*
D03*
Y890270D02*
D03*
X388620Y874154D02*
D03*
Y890270D02*
D03*
D15*
X477520Y920750D02*
D03*
X464820D02*
D03*
X452120D02*
D03*
X439420D02*
D03*
Y848750D02*
D03*
X452120D02*
D03*
X464820D02*
D03*
X477520D02*
D03*
D16*
X511810Y969010D02*
D03*
Y953510D02*
D03*
X471170D02*
D03*
Y969010D02*
D03*
X491490Y953510D02*
D03*
Y969010D02*
D03*
X450850Y792220D02*
D03*
Y807720D02*
D03*
X430530Y792220D02*
D03*
Y807720D02*
D03*
X471170Y792220D02*
D03*
Y807720D02*
D03*
X491490D02*
D03*
Y792220D02*
D03*
X430530Y953510D02*
D03*
Y969010D02*
D03*
X450850Y953510D02*
D03*
Y969010D02*
D03*
D17*
X303530Y864870D02*
D03*
X328930D02*
D03*
X303530Y915670D02*
D03*
X328930D02*
D03*
X303530Y941070D02*
D03*
X328930Y890270D02*
D03*
X303530D02*
D03*
X328930Y839470D02*
D03*
Y814070D02*
D03*
X303530Y839470D02*
D03*
Y814070D02*
D03*
D18*
X328930Y941070D02*
D03*
M02*
