G04*
G04 #@! TF.GenerationSoftware,Altium Limited,Altium Designer,23.4.1 (23)*
G04*
G04 Layer_Color=2752767*
%FSLAX26Y26*%
%MOIN*%
G70*
G04*
G04 #@! TF.SameCoordinates,CA646CD9-C579-4672-BC92-6BB416CC7DF5*
G04*
G04*
G04 #@! TF.FilePolarity,Positive*
G04*
G01*
G75*
%ADD27C,0.005000*%
D27*
X1175000Y3385000D02*
Y3425000D01*
X1215000D01*
Y3385000D01*
X1175000D01*
X1275000D02*
Y3425000D01*
X1315000D01*
Y3385000D01*
X1275000D01*
X1175000Y3585000D02*
Y3625000D01*
X1215000D01*
Y3585000D01*
X1175000D01*
X1275000D02*
Y3625000D01*
X1315000D01*
Y3585000D01*
X1275000D01*
Y3685000D02*
Y3725000D01*
X1315000D01*
Y3685000D01*
X1275000D01*
X1175000D02*
Y3725000D01*
X1215000D01*
Y3685000D01*
X1175000D01*
X1275000Y3485000D02*
Y3525000D01*
X1315000D01*
Y3485000D01*
X1275000D01*
X1175000D02*
Y3525000D01*
X1215000D01*
Y3485000D01*
X1175000D01*
X1275000Y3285000D02*
Y3325000D01*
X1315000D01*
Y3285000D01*
X1275000D01*
Y3185000D02*
Y3225000D01*
X1315000D01*
Y3185000D01*
X1275000D01*
X1175000Y3285000D02*
Y3325000D01*
X1215000D01*
Y3285000D01*
X1175000D01*
Y3185000D02*
Y3225000D01*
X1215000D01*
Y3185000D01*
X1175000D01*
X2099000Y3988000D02*
X2079000Y4028000D01*
X2119000D01*
X2099000Y3988000D01*
X2049000Y3888000D02*
X2029000Y3928000D01*
X2069000D01*
X2049000Y3888000D01*
X2099000Y3588000D02*
X2079000Y3628000D01*
X2119000D01*
X2099000Y3588000D01*
X2049000Y3488000D02*
X2029000Y3528000D01*
X2069000D01*
X2049000Y3488000D01*
X2099000Y3388000D02*
X2079000Y3428000D01*
X2119000D01*
X2099000Y3388000D01*
X2049000Y3288000D02*
X2029000Y3328000D01*
X2069000D01*
X2049000Y3288000D01*
X2099000Y3188000D02*
X2079000Y3228000D01*
X2119000D01*
X2099000Y3188000D01*
X2049000Y3088000D02*
X2029000Y3128000D01*
X2069000D01*
X2049000Y3088000D01*
X1999000Y3988000D02*
X1979000Y4028000D01*
X2019000D01*
X1999000Y3988000D01*
X1949000Y3888000D02*
X1929000Y3928000D01*
X1969000D01*
X1949000Y3888000D01*
Y3488000D02*
X1929000Y3528000D01*
X1969000D01*
X1949000Y3488000D01*
X1999000Y3388000D02*
X1979000Y3428000D01*
X2019000D01*
X1999000Y3388000D01*
X1949000Y3288000D02*
X1929000Y3328000D01*
X1969000D01*
X1949000Y3288000D01*
X1899000Y3988000D02*
X1879000Y4028000D01*
X1919000D01*
X1899000Y3988000D01*
X1849000Y3488000D02*
X1829000Y3528000D01*
X1869000D01*
X1849000Y3488000D01*
X1799000Y3988000D02*
X1779000Y4028000D01*
X1819000D01*
X1799000Y3988000D01*
X1749000Y3688000D02*
X1729000Y3728000D01*
X1769000D01*
X1749000Y3688000D01*
Y3488000D02*
X1729000Y3528000D01*
X1769000D01*
X1749000Y3488000D01*
X1699000Y3988000D02*
X1679000Y4028000D01*
X1719000D01*
X1699000Y3988000D01*
X1649000Y3688000D02*
X1629000Y3728000D01*
X1669000D01*
X1649000Y3688000D01*
X1699000Y3588000D02*
X1679000Y3628000D01*
X1719000D01*
X1699000Y3588000D01*
X1649000Y3288000D02*
X1629000Y3328000D01*
X1669000D01*
X1649000Y3288000D01*
X1599000Y3988000D02*
X1579000Y4028000D01*
X1619000D01*
X1599000Y3988000D01*
Y3788000D02*
X1579000Y3828000D01*
X1619000D01*
X1599000Y3788000D01*
X1549000Y3688000D02*
X1529000Y3728000D01*
X1569000D01*
X1549000Y3688000D01*
X1599000Y3588000D02*
X1579000Y3628000D01*
X1619000D01*
X1599000Y3588000D01*
X1549000Y3288000D02*
X1529000Y3328000D01*
X1569000D01*
X1549000Y3288000D01*
X1599000Y3188000D02*
X1579000Y3228000D01*
X1619000D01*
X1599000Y3188000D01*
X1549000Y3088000D02*
X1529000Y3128000D01*
X1569000D01*
X1549000Y3088000D01*
X1499000Y3988000D02*
X1479000Y4028000D01*
X1519000D01*
X1499000Y3988000D01*
Y3188000D02*
X1479000Y3228000D01*
X1519000D01*
X1499000Y3188000D01*
X1449000Y3088000D02*
X1429000Y3128000D01*
X1469000D01*
X1449000Y3088000D01*
X1399000Y3988000D02*
X1379000Y4028000D01*
X1419000D01*
X1399000Y3988000D01*
X1349000Y3888000D02*
X1329000Y3928000D01*
X1369000D01*
X1349000Y3888000D01*
X1399000Y3788000D02*
X1379000Y3828000D01*
X1419000D01*
X1399000Y3788000D01*
Y3588000D02*
X1379000Y3628000D01*
X1419000D01*
X1399000Y3588000D01*
Y3388000D02*
X1379000Y3428000D01*
X1419000D01*
X1399000Y3388000D01*
X1299000Y3988000D02*
X1279000Y4028000D01*
X1319000D01*
X1299000Y3988000D01*
X1249000Y3888000D02*
X1229000Y3928000D01*
X1269000D01*
X1249000Y3888000D01*
X1199000Y3988000D02*
X1179000Y4028000D01*
X1219000D01*
X1199000Y3988000D01*
X1149000Y3888000D02*
X1129000Y3928000D01*
X1169000D01*
X1149000Y3888000D01*
X1199000Y3788000D02*
X1179000Y3828000D01*
X1219000D01*
X1199000Y3788000D01*
X1099000Y3988000D02*
X1079000Y4028000D01*
X1119000D01*
X1099000Y3988000D01*
X1049000Y3888000D02*
X1029000Y3928000D01*
X1069000D01*
X1049000Y3888000D01*
X1099000Y3788000D02*
X1079000Y3828000D01*
X1119000D01*
X1099000Y3788000D01*
X1049000Y3688000D02*
X1029000Y3728000D01*
X1069000D01*
X1049000Y3688000D01*
X1099000Y3588000D02*
X1079000Y3628000D01*
X1119000D01*
X1099000Y3588000D01*
X1049000Y3488000D02*
X1029000Y3528000D01*
X1069000D01*
X1049000Y3488000D01*
X1876000Y3415000D02*
X1856000Y3455000D01*
X1896000D01*
X1876000Y3415000D01*
X1983000Y3099000D02*
X1963000Y3139000D01*
X2003000D01*
X1983000Y3099000D01*
X1115000Y3265000D02*
X1095000Y3305000D01*
X1135000D01*
X1115000Y3265000D01*
X1635000Y3795000D02*
X1615000Y3835000D01*
X1655000D01*
X1635000Y3795000D01*
X2075000D02*
X2055000Y3835000D01*
X2095000D01*
X2075000Y3795000D01*
M02*
