%TF.GenerationSoftware,Altium Limited,Altium Designer,23.4.1 (23)*%
G04 Layer_Color=8421504*
%FSLAX26Y26*%
%MOIN*%
%TF.SameCoordinates,58D80696-3D7F-4981-BD36-B6FE397AE5C4*%
%TF.FilePolarity,Positive*%
%TF.FileFunction,Paste,Top*%
%TF.Part,Single*%
G01*
G75*
%TA.AperFunction,SMDPad,CuDef*%
%ADD10R,0.025591X0.064961*%
%ADD11R,0.053150X0.037402*%
%ADD12R,0.057331X0.051364*%
D10*
X1880000Y3625000D02*
D03*
X1830000D02*
D03*
X1780000D02*
D03*
X1730000D02*
D03*
Y3341536D02*
D03*
X1780000D02*
D03*
X1830000D02*
D03*
X1880000D02*
D03*
D11*
X2015000Y3815000D02*
D03*
Y3753976D02*
D03*
X1855000D02*
D03*
Y3815000D02*
D03*
X1935000Y3753976D02*
D03*
Y3815000D02*
D03*
X1775000Y3118976D02*
D03*
Y3180000D02*
D03*
X1695000Y3118976D02*
D03*
Y3180000D02*
D03*
X1855000Y3118976D02*
D03*
Y3180000D02*
D03*
X1935000D02*
D03*
Y3118976D02*
D03*
X1695000Y3753976D02*
D03*
Y3815000D02*
D03*
X1775000Y3753976D02*
D03*
Y3815000D02*
D03*
D12*
X1635000Y3441552D02*
D03*
Y3505000D02*
D03*
X1530000Y3441552D02*
D03*
Y3505000D02*
D03*
%TF.MD5,6cfa420def447fd00ff41e3558cba5a2*%
M02*
