G04*
G04 #@! TF.GenerationSoftware,Altium Limited,Altium Designer,23.4.1 (23)*
G04*
G04 Layer_Color=128*
%FSLAX44Y44*%
%MOMM*%
G71*
G04*
G04 #@! TF.SameCoordinates,29E651B0-A92D-4825-8418-8387D5B9DFF4*
G04*
G04*
G04 #@! TF.FilePolarity,Positive*
G04*
G01*
G75*
%ADD27C,0.1270*%
D27*
X298030Y864870D02*
X309030D01*
X303530Y859370D02*
Y870370D01*
X323430Y864870D02*
X334430D01*
X328930Y859370D02*
Y870370D01*
X298030Y915670D02*
X309030D01*
X303530Y910170D02*
Y921170D01*
X323430Y915670D02*
X334430D01*
X328930Y910170D02*
Y921170D01*
X323430Y941070D02*
X334430D01*
X328930Y935570D02*
Y946570D01*
X298030Y941070D02*
X309030D01*
X303530Y935570D02*
Y946570D01*
X323430Y890270D02*
X334430D01*
X328930Y884770D02*
Y895770D01*
X298030Y890270D02*
X309030D01*
X303530Y884770D02*
Y895770D01*
X323430Y839470D02*
X334430D01*
X328930Y833970D02*
Y844970D01*
X323430Y814070D02*
X334430D01*
X328930Y808570D02*
Y819570D01*
X298030Y839470D02*
X309030D01*
X303530Y833970D02*
Y844970D01*
X298030Y814070D02*
X309030D01*
X303530Y808570D02*
Y819570D01*
X531646Y1018032D02*
X534646D01*
X533146Y1016532D02*
Y1019532D01*
X518946Y992632D02*
X521946D01*
X520446Y991132D02*
Y994132D01*
X531646Y916432D02*
X534646D01*
X533146Y914932D02*
Y917932D01*
X518946Y891032D02*
X521946D01*
X520446Y889532D02*
Y892532D01*
X531646Y865632D02*
X534646D01*
X533146Y864132D02*
Y867132D01*
X518946Y840232D02*
X521946D01*
X520446Y838732D02*
Y841732D01*
X531646Y814832D02*
X534646D01*
X533146Y813332D02*
Y816332D01*
X518946Y789432D02*
X521946D01*
X520446Y787932D02*
Y790932D01*
X506246Y1018032D02*
X509246D01*
X507746Y1016532D02*
Y1019532D01*
X493546Y992632D02*
X496546D01*
X495046Y991132D02*
Y994132D01*
X493546Y891032D02*
X496546D01*
X495046Y889532D02*
Y892532D01*
X506246Y865632D02*
X509246D01*
X507746Y864132D02*
Y867132D01*
X493546Y840232D02*
X496546D01*
X495046Y838732D02*
Y841732D01*
X480846Y1018032D02*
X483846D01*
X482346Y1016532D02*
Y1019532D01*
X468146Y891032D02*
X471146D01*
X469646Y889532D02*
Y892532D01*
X455446Y1018032D02*
X458446D01*
X456946Y1016532D02*
Y1019532D01*
X442746Y941832D02*
X445746D01*
X444246Y940332D02*
Y943332D01*
X442746Y891032D02*
X445746D01*
X444246Y889532D02*
Y892532D01*
X430046Y1018032D02*
X433046D01*
X431546Y1016532D02*
Y1019532D01*
X417346Y941832D02*
X420346D01*
X418846Y940332D02*
Y943332D01*
X430046Y916432D02*
X433046D01*
X431546Y914932D02*
Y917932D01*
X417346Y840232D02*
X420346D01*
X418846Y838732D02*
Y841732D01*
X404646Y1018032D02*
X407646D01*
X406146Y1016532D02*
Y1019532D01*
X404646Y967232D02*
X407646D01*
X406146Y965732D02*
Y968732D01*
X391946Y941832D02*
X394946D01*
X393446Y940332D02*
Y943332D01*
X404646Y916432D02*
X407646D01*
X406146Y914932D02*
Y917932D01*
X391946Y840232D02*
X394946D01*
X393446Y838732D02*
Y841732D01*
X404646Y814832D02*
X407646D01*
X406146Y813332D02*
Y816332D01*
X391946Y789432D02*
X394946D01*
X393446Y787932D02*
Y790932D01*
X379246Y1018032D02*
X382246D01*
X380746Y1016532D02*
Y1019532D01*
X379246Y814832D02*
X382246D01*
X380746Y813332D02*
Y816332D01*
X366546Y789432D02*
X369546D01*
X368046Y787932D02*
Y790932D01*
X353846Y1018032D02*
X356846D01*
X355346Y1016532D02*
Y1019532D01*
X341146Y992632D02*
X344146D01*
X342646Y991132D02*
Y994132D01*
X353846Y967232D02*
X356846D01*
X355346Y965732D02*
Y968732D01*
X353846Y916432D02*
X356846D01*
X355346Y914932D02*
Y917932D01*
X353846Y865632D02*
X356846D01*
X355346Y864132D02*
Y867132D01*
X328446Y1018032D02*
X331446D01*
X329946Y1016532D02*
Y1019532D01*
X315746Y992632D02*
X318746D01*
X317246Y991132D02*
Y994132D01*
X303046Y1018032D02*
X306046D01*
X304546Y1016532D02*
Y1019532D01*
X290346Y992632D02*
X293346D01*
X291846Y991132D02*
Y994132D01*
X303046Y967232D02*
X306046D01*
X304546Y965732D02*
Y968732D01*
X277646Y1018032D02*
X280646D01*
X279146Y1016532D02*
Y1019532D01*
X264946Y992632D02*
X267946D01*
X266446Y991132D02*
Y994132D01*
X277646Y967232D02*
X280646D01*
X279146Y965732D02*
Y968732D01*
X264946Y941832D02*
X267946D01*
X266446Y940332D02*
Y943332D01*
X277646Y916432D02*
X280646D01*
X279146Y914932D02*
Y917932D01*
X264946Y891032D02*
X267946D01*
X266446Y889532D02*
Y892532D01*
X475004Y872490D02*
X478004D01*
X476504Y870990D02*
Y873990D01*
X502182Y792226D02*
X505182D01*
X503682Y790726D02*
Y793726D01*
X281710Y834390D02*
X284710D01*
X283210Y832890D02*
Y835890D01*
X413790Y969010D02*
X416790D01*
X415290Y967510D02*
Y970510D01*
X525550Y969010D02*
X528550D01*
X527050Y967510D02*
Y970510D01*
M02*
