G04*
G04 #@! TF.GenerationSoftware,Altium Limited,Altium Designer,23.4.1 (23)*
G04*
G04 Layer_Color=255*
%FSLAX26Y26*%
%MOIN*%
G70*
G04*
G04 #@! TF.SameCoordinates,CA646CD9-C579-4672-BC92-6BB416CC7DF5*
G04*
G04*
G04 #@! TF.FilePolarity,Positive*
G04*
G01*
G75*
%ADD12R,0.025591X0.064961*%
%ADD13R,0.053150X0.037402*%
%ADD14R,0.057331X0.051364*%
%ADD22C,0.064961*%
%ADD23R,0.064961X0.064961*%
D12*
X1880000Y3625000D02*
D03*
X1830000D02*
D03*
X1780000D02*
D03*
X1730000D02*
D03*
Y3341536D02*
D03*
X1780000D02*
D03*
X1830000D02*
D03*
X1880000D02*
D03*
D13*
X2015000Y3815000D02*
D03*
Y3753976D02*
D03*
X1855000D02*
D03*
Y3815000D02*
D03*
X1935000Y3753976D02*
D03*
Y3815000D02*
D03*
X1775000Y3118976D02*
D03*
Y3180000D02*
D03*
X1695000Y3118976D02*
D03*
Y3180000D02*
D03*
X1855000Y3118976D02*
D03*
Y3180000D02*
D03*
X1935000D02*
D03*
Y3118976D02*
D03*
X1695000Y3753976D02*
D03*
Y3815000D02*
D03*
X1775000Y3753976D02*
D03*
Y3815000D02*
D03*
D14*
X1635000Y3441552D02*
D03*
Y3505000D02*
D03*
X1530000Y3441552D02*
D03*
Y3505000D02*
D03*
D22*
X1195000Y3405000D02*
D03*
X1295000D02*
D03*
X1195000Y3605000D02*
D03*
X1295000D02*
D03*
X1195000Y3705000D02*
D03*
X1295000Y3505000D02*
D03*
X1195000D02*
D03*
X1295000Y3305000D02*
D03*
Y3205000D02*
D03*
X1195000Y3305000D02*
D03*
Y3205000D02*
D03*
D23*
X1295000Y3705000D02*
D03*
M02*
