G04*
G04 #@! TF.GenerationSoftware,Altium Limited,Altium Designer,23.4.1 (23)*
G04*
G04 Layer_Color=16711935*
%FSLAX44Y44*%
%MOMM*%
G71*
G04*
G04 #@! TF.SameCoordinates,29E651B0-A92D-4825-8418-8387D5B9DFF4*
G04*
G04*
G04 #@! TF.FilePolarity,Positive*
G04*
G01*
G75*
%ADD10C,0.2000*%
%ADD25C,0.1000*%
D10*
X409040Y892262D02*
X421540D01*
X409040Y872162D02*
Y892262D01*
Y872162D02*
X421540D01*
Y892262D01*
X382370D02*
X394870D01*
X382370Y872162D02*
Y892262D01*
Y872162D02*
X394870D01*
Y892262D01*
D25*
X199710Y939870D02*
Y942270D01*
Y939870D02*
X201710Y937870D01*
X199710Y942270D02*
X201710Y944270D01*
Y937870D02*
X259710D01*
X201710Y944270D02*
X259710D01*
X199710Y889070D02*
Y891470D01*
Y889070D02*
X201710Y887070D01*
X199710Y891470D02*
X201710Y893470D01*
Y887070D02*
X259710D01*
X201710Y893470D02*
X259710D01*
Y953770D02*
X285110D01*
X199710Y914470D02*
Y916870D01*
Y914470D02*
X201710Y912470D01*
X199710Y916870D02*
X201710Y918870D01*
Y912470D02*
X259710D01*
X201710Y918870D02*
X259710D01*
X285110Y801370D02*
Y953770D01*
X201710Y861670D02*
X259710D01*
X201710Y810870D02*
X259710D01*
Y801370D02*
Y953770D01*
Y801370D02*
X285110D01*
X199710Y863670D02*
Y866070D01*
Y838270D02*
Y840670D01*
Y812870D02*
Y815270D01*
Y838270D02*
X201710Y836270D01*
X199710Y866070D02*
X201710Y868070D01*
X199710Y863670D02*
X201710Y861670D01*
X199710Y812870D02*
X201710Y810870D01*
X199710Y815270D02*
X201710Y817270D01*
X199710Y840670D02*
X201710Y842670D01*
Y817270D02*
X259710D01*
X201710Y836270D02*
X259710D01*
X201710Y842670D02*
X259710D01*
X201710Y868070D02*
X259710D01*
X484870Y858350D02*
Y911150D01*
X432070Y858350D02*
X484870D01*
X432070D02*
Y911150D01*
X484870D01*
X472170D02*
X484870Y898450D01*
X504560Y972260D02*
X519060D01*
X504560Y950260D02*
X519060D01*
Y972260D01*
X504560Y950260D02*
Y972260D01*
X463920Y950260D02*
X478420D01*
X463920Y972260D02*
X478420D01*
X463920Y950260D02*
Y972260D01*
X478420Y950260D02*
Y972260D01*
X484240Y950260D02*
X498740D01*
X484240Y972260D02*
X498740D01*
X484240Y950260D02*
Y972260D01*
X498740Y950260D02*
Y972260D01*
X443600Y788970D02*
X458100D01*
X443600Y810970D02*
X458100D01*
X443600Y788970D02*
Y810970D01*
X458100Y788970D02*
Y810970D01*
X423280Y788970D02*
X437780D01*
X423280Y810970D02*
X437780D01*
X423280Y788970D02*
Y810970D01*
X437780Y788970D02*
Y810970D01*
X463920Y788970D02*
X478420D01*
X463920Y810970D02*
X478420D01*
X463920Y788970D02*
Y810970D01*
X478420Y788970D02*
Y810970D01*
X498740Y788970D02*
Y810970D01*
X484240Y788970D02*
Y810970D01*
X498740D01*
X484240Y788970D02*
X498740D01*
X423280Y950260D02*
Y972260D01*
X437780Y950260D02*
Y972260D01*
X423280Y950260D02*
X437780D01*
X423280Y972260D02*
X437780D01*
X443600Y950260D02*
X458100D01*
X443600Y972260D02*
X458100D01*
X443600Y950260D02*
Y972260D01*
X458100Y950260D02*
Y972260D01*
M02*
