G04*
G04 #@! TF.GenerationSoftware,Altium Limited,Altium Designer,23.4.1 (23)*
G04*
G04 Layer_Physical_Order=2*
G04 Layer_Color=16711680*
%FSLAX26Y26*%
%MOIN*%
G70*
G04*
G04 #@! TF.SameCoordinates,CA646CD9-C579-4672-BC92-6BB416CC7DF5*
G04*
G04*
G04 #@! TF.FilePolarity,Positive*
G04*
G01*
G75*
%ADD19C,0.010000*%
%ADD20C,0.019685*%
%ADD22C,0.064961*%
%ADD23R,0.064961X0.064961*%
%ADD24C,0.023622*%
G36*
X2154797Y2939203D02*
X1015203D01*
Y4032797D01*
X2154797D01*
Y2939203D01*
D02*
G37*
%LPC*%
G36*
X2079338Y3836811D02*
X2070662D01*
X2066847Y3835231D01*
X1643152D01*
X1639339Y3836811D01*
X1630661D01*
X1622645Y3833490D01*
X1616509Y3827355D01*
X1613189Y3819338D01*
Y3810662D01*
X1616509Y3802645D01*
X1622645Y3796510D01*
X1630661Y3793189D01*
X1639339D01*
X1643152Y3794769D01*
X2054769D01*
Y3695380D01*
X1861694Y3502306D01*
X1857309Y3495742D01*
X1855769Y3488000D01*
Y3443153D01*
X1854189Y3439338D01*
Y3430662D01*
X1857509Y3422645D01*
X1863645Y3416510D01*
X1867459Y3414930D01*
X1962769Y3319620D01*
Y3127153D01*
X1961189Y3123338D01*
Y3114662D01*
X1964509Y3106645D01*
X1970645Y3100510D01*
X1978661Y3097189D01*
X1987339D01*
X1995355Y3100510D01*
X2001491Y3106645D01*
X2004811Y3114662D01*
Y3123338D01*
X2003231Y3127153D01*
Y3328000D01*
X2001691Y3335742D01*
X1997306Y3342306D01*
X1896231Y3443380D01*
Y3479620D01*
X2089306Y3672694D01*
X2093691Y3679258D01*
X2095231Y3687000D01*
Y3806847D01*
X2096811Y3810662D01*
Y3819338D01*
X2093490Y3827355D01*
X2087355Y3833490D01*
X2079338Y3836811D01*
D02*
G37*
G36*
X1337480Y3747480D02*
X1252520D01*
Y3662520D01*
X1337480D01*
Y3747480D01*
D02*
G37*
G36*
X1200593D02*
X1189407D01*
X1178603Y3744585D01*
X1168917Y3738993D01*
X1161007Y3731084D01*
X1155415Y3721397D01*
X1152520Y3710593D01*
Y3699407D01*
X1155415Y3688603D01*
X1161007Y3678916D01*
X1168917Y3671007D01*
X1178603Y3665415D01*
X1189407Y3662520D01*
X1200593D01*
X1211397Y3665415D01*
X1221083Y3671007D01*
X1228993Y3678916D01*
X1234585Y3688603D01*
X1237480Y3699407D01*
Y3710593D01*
X1234585Y3721397D01*
X1228993Y3731084D01*
X1221083Y3738993D01*
X1211397Y3744585D01*
X1200593Y3747480D01*
D02*
G37*
G36*
X1300593Y3647480D02*
X1289407D01*
X1278603Y3644585D01*
X1268917Y3638993D01*
X1261007Y3631084D01*
X1255415Y3621397D01*
X1252520Y3610593D01*
Y3599407D01*
X1255415Y3588603D01*
X1255986Y3587614D01*
X1241185Y3572814D01*
X1229423D01*
X1227509Y3577433D01*
X1228993Y3578916D01*
X1234585Y3588603D01*
X1237480Y3599407D01*
Y3610593D01*
X1234585Y3621397D01*
X1228993Y3631084D01*
X1221083Y3638993D01*
X1211397Y3644585D01*
X1200593Y3647480D01*
X1189407D01*
X1178603Y3644585D01*
X1168917Y3638993D01*
X1161007Y3631084D01*
X1155415Y3621397D01*
X1152520Y3610593D01*
Y3599407D01*
X1155415Y3588603D01*
X1161007Y3578916D01*
X1167171Y3572753D01*
X1168618Y3570074D01*
X1167357Y3566134D01*
X1104186Y3502962D01*
X1100870Y3498001D01*
X1099706Y3492148D01*
Y3300552D01*
X1096509Y3297355D01*
X1093189Y3289338D01*
Y3280662D01*
X1096509Y3272645D01*
X1102645Y3266510D01*
X1110661Y3263189D01*
X1119339D01*
X1127355Y3266510D01*
X1133491Y3272645D01*
X1136811Y3280662D01*
Y3289338D01*
X1133491Y3297355D01*
X1130294Y3300552D01*
Y3485813D01*
X1147900Y3503419D01*
X1152520Y3501506D01*
Y3499407D01*
X1155415Y3488603D01*
X1161007Y3478916D01*
X1168917Y3471007D01*
X1178603Y3465415D01*
X1189407Y3462520D01*
X1200593D01*
X1211397Y3465415D01*
X1221083Y3471007D01*
X1228993Y3478916D01*
X1234585Y3488603D01*
X1237480Y3499407D01*
Y3510593D01*
X1234585Y3521397D01*
X1228993Y3531084D01*
X1222850Y3537226D01*
X1224921Y3542226D01*
X1247520D01*
X1253373Y3543390D01*
X1258334Y3546706D01*
X1277614Y3565985D01*
X1278603Y3565415D01*
X1289407Y3562520D01*
X1300593D01*
X1311397Y3565415D01*
X1321083Y3571007D01*
X1328993Y3578916D01*
X1334585Y3588603D01*
X1337480Y3599407D01*
Y3610593D01*
X1334585Y3621397D01*
X1328993Y3631084D01*
X1321083Y3638993D01*
X1311397Y3644585D01*
X1300593Y3647480D01*
D02*
G37*
G36*
Y3547480D02*
X1289407D01*
X1278603Y3544585D01*
X1268917Y3538993D01*
X1261007Y3531084D01*
X1255415Y3521397D01*
X1252520Y3510593D01*
Y3499407D01*
X1255415Y3488603D01*
X1261007Y3478916D01*
X1268917Y3471007D01*
X1278603Y3465415D01*
X1289407Y3462520D01*
X1300593D01*
X1311397Y3465415D01*
X1321083Y3471007D01*
X1328993Y3478916D01*
X1334585Y3488603D01*
X1337480Y3499407D01*
Y3510593D01*
X1334585Y3521397D01*
X1328993Y3531084D01*
X1321083Y3538993D01*
X1311397Y3544585D01*
X1300593Y3547480D01*
D02*
G37*
G36*
Y3447480D02*
X1289407D01*
X1278603Y3444585D01*
X1268917Y3438993D01*
X1261007Y3431084D01*
X1255415Y3421397D01*
X1252520Y3410593D01*
Y3399407D01*
X1255415Y3388603D01*
X1261007Y3378916D01*
X1268917Y3371007D01*
X1278603Y3365415D01*
X1289407Y3362520D01*
X1300593D01*
X1311397Y3365415D01*
X1321083Y3371007D01*
X1328993Y3378916D01*
X1334585Y3388603D01*
X1337480Y3399407D01*
Y3410593D01*
X1334585Y3421397D01*
X1328993Y3431084D01*
X1321083Y3438993D01*
X1311397Y3444585D01*
X1300593Y3447480D01*
D02*
G37*
G36*
X1200593D02*
X1189407D01*
X1178603Y3444585D01*
X1168917Y3438993D01*
X1161007Y3431084D01*
X1155415Y3421397D01*
X1152520Y3410593D01*
Y3399407D01*
X1155415Y3388603D01*
X1161007Y3378916D01*
X1168917Y3371007D01*
X1178603Y3365415D01*
X1189407Y3362520D01*
X1200593D01*
X1211397Y3365415D01*
X1221083Y3371007D01*
X1228993Y3378916D01*
X1234585Y3388603D01*
X1237480Y3399407D01*
Y3410593D01*
X1234585Y3421397D01*
X1228993Y3431084D01*
X1221083Y3438993D01*
X1211397Y3444585D01*
X1200593Y3447480D01*
D02*
G37*
G36*
X1300593Y3347480D02*
X1289407D01*
X1278603Y3344585D01*
X1269197Y3339155D01*
X1295000Y3313352D01*
X1320803Y3339155D01*
X1311397Y3344585D01*
X1300593Y3347480D01*
D02*
G37*
G36*
X1200593D02*
X1189407D01*
X1178603Y3344585D01*
X1169197Y3339155D01*
X1195000Y3313352D01*
X1220803Y3339155D01*
X1211397Y3344585D01*
X1200593Y3347480D01*
D02*
G37*
G36*
X1160845Y3330803D02*
X1155415Y3321397D01*
X1152520Y3310593D01*
Y3299407D01*
X1155415Y3288603D01*
X1160845Y3279197D01*
X1186648Y3305000D01*
X1160845Y3330803D01*
D02*
G37*
G36*
X1260845D02*
X1255415Y3321397D01*
X1252520Y3310593D01*
Y3299407D01*
X1255415Y3288603D01*
X1260845Y3279197D01*
X1286648Y3305000D01*
X1260845Y3330803D01*
D02*
G37*
G36*
X1329155Y3330803D02*
X1303352Y3305000D01*
X1329155Y3279197D01*
X1334585Y3288603D01*
X1337480Y3299407D01*
Y3310593D01*
X1334585Y3321397D01*
X1329155Y3330803D01*
D02*
G37*
G36*
X1229155D02*
X1203352Y3305000D01*
X1229155Y3279197D01*
X1234585Y3288603D01*
X1237480Y3299407D01*
Y3310593D01*
X1234585Y3321397D01*
X1229155Y3330803D01*
D02*
G37*
G36*
X1295000Y3296648D02*
X1269197Y3270845D01*
X1278603Y3265415D01*
X1289407Y3262520D01*
X1300593D01*
X1311397Y3265415D01*
X1320803Y3270845D01*
X1295000Y3296648D01*
D02*
G37*
G36*
X1195000D02*
X1169197Y3270845D01*
X1178603Y3265415D01*
X1189407Y3262520D01*
X1200593D01*
X1211397Y3265415D01*
X1220803Y3270845D01*
X1195000Y3296648D01*
D02*
G37*
G36*
X1300593Y3247480D02*
X1289407D01*
X1278603Y3244585D01*
X1268917Y3238993D01*
X1261007Y3231084D01*
X1255415Y3221397D01*
X1252520Y3210593D01*
Y3199407D01*
X1255415Y3188603D01*
X1261007Y3178916D01*
X1268917Y3171007D01*
X1278603Y3165415D01*
X1289407Y3162520D01*
X1300593D01*
X1311397Y3165415D01*
X1321083Y3171007D01*
X1328993Y3178916D01*
X1334585Y3188603D01*
X1337480Y3199407D01*
Y3210593D01*
X1334585Y3221397D01*
X1328993Y3231084D01*
X1321083Y3238993D01*
X1311397Y3244585D01*
X1300593Y3247480D01*
D02*
G37*
G36*
X1200593D02*
X1189407D01*
X1178603Y3244585D01*
X1168917Y3238993D01*
X1161007Y3231084D01*
X1155415Y3221397D01*
X1152520Y3210593D01*
Y3199407D01*
X1155415Y3188603D01*
X1161007Y3178916D01*
X1168917Y3171007D01*
X1178603Y3165415D01*
X1189407Y3162520D01*
X1200593D01*
X1211397Y3165415D01*
X1221083Y3171007D01*
X1228993Y3178916D01*
X1234585Y3188603D01*
X1237480Y3199407D01*
Y3210593D01*
X1234585Y3221397D01*
X1228993Y3231084D01*
X1221083Y3238993D01*
X1211397Y3244585D01*
X1200593Y3247480D01*
D02*
G37*
%LPD*%
D19*
X1115000Y3285000D02*
Y3492148D01*
X1180372Y3557520D01*
X1247520D01*
X1295000Y3605000D01*
D20*
X1876000Y3435000D02*
Y3488000D01*
X2075000Y3687000D02*
Y3815000D01*
X1876000Y3488000D02*
X2075000Y3687000D01*
X1635000Y3815000D02*
X2075000D01*
X1876000Y3435000D02*
X1983000Y3328000D01*
Y3119000D02*
Y3328000D01*
D22*
X1195000Y3405000D02*
D03*
X1295000D02*
D03*
X1195000Y3605000D02*
D03*
X1295000D02*
D03*
X1195000Y3705000D02*
D03*
X1295000Y3505000D02*
D03*
X1195000D02*
D03*
X1295000Y3305000D02*
D03*
Y3205000D02*
D03*
X1195000Y3305000D02*
D03*
Y3205000D02*
D03*
D23*
X1295000Y3705000D02*
D03*
D24*
X2099000Y4008000D02*
D03*
X2049000Y3908000D02*
D03*
X2099000Y3608000D02*
D03*
X2049000Y3508000D02*
D03*
X2099000Y3408000D02*
D03*
X2049000Y3308000D02*
D03*
X2099000Y3208000D02*
D03*
X2049000Y3108000D02*
D03*
X1999000Y4008000D02*
D03*
X1949000Y3908000D02*
D03*
Y3508000D02*
D03*
X1999000Y3408000D02*
D03*
X1949000Y3308000D02*
D03*
X1899000Y4008000D02*
D03*
X1849000Y3508000D02*
D03*
X1799000Y4008000D02*
D03*
X1749000Y3708000D02*
D03*
Y3508000D02*
D03*
X1699000Y4008000D02*
D03*
X1649000Y3708000D02*
D03*
X1699000Y3608000D02*
D03*
X1649000Y3308000D02*
D03*
X1599000Y4008000D02*
D03*
Y3808000D02*
D03*
X1549000Y3708000D02*
D03*
X1599000Y3608000D02*
D03*
X1549000Y3308000D02*
D03*
X1599000Y3208000D02*
D03*
X1549000Y3108000D02*
D03*
X1499000Y4008000D02*
D03*
Y3208000D02*
D03*
X1449000Y3108000D02*
D03*
X1399000Y4008000D02*
D03*
X1349000Y3908000D02*
D03*
X1399000Y3808000D02*
D03*
Y3608000D02*
D03*
Y3408000D02*
D03*
X1299000Y4008000D02*
D03*
X1249000Y3908000D02*
D03*
X1199000Y4008000D02*
D03*
X1149000Y3908000D02*
D03*
X1199000Y3808000D02*
D03*
X1099000Y4008000D02*
D03*
X1049000Y3908000D02*
D03*
X1099000Y3808000D02*
D03*
X1049000Y3708000D02*
D03*
X1099000Y3608000D02*
D03*
X1049000Y3508000D02*
D03*
X1876000Y3435000D02*
D03*
X1983000Y3119000D02*
D03*
X1115000Y3285000D02*
D03*
X1635000Y3815000D02*
D03*
X2075000D02*
D03*
M02*
