G04*
G04 #@! TF.GenerationSoftware,Altium Limited,Altium Designer,23.4.1 (23)*
G04*
G04 Layer_Color=32768*
%FSLAX44Y44*%
%MOMM*%
G71*
G04*
G04 #@! TF.SameCoordinates,29E651B0-A92D-4825-8418-8387D5B9DFF4*
G04*
G04*
G04 #@! TF.FilePolarity,Positive*
G04*
G01*
G75*
%ADD10C,0.2000*%
%ADD25C,0.1000*%
%ADD26C,0.0500*%
D10*
X405509Y899293D02*
X425071D01*
X405509Y865131D02*
Y899293D01*
Y865131D02*
X425071D01*
Y899293D01*
X378839D02*
X398401D01*
X378839Y865131D02*
Y899293D01*
Y865131D02*
X398401D01*
Y899293D01*
D25*
X511810Y956260D02*
Y966260D01*
X506810Y961260D02*
X516810D01*
X471170Y956260D02*
Y966260D01*
X466170Y961260D02*
X476170D01*
X491490Y956260D02*
Y966260D01*
X486490Y961260D02*
X496490D01*
X450850Y794970D02*
Y804970D01*
X445850Y799970D02*
X455850D01*
X430530Y794970D02*
Y804970D01*
X425530Y799970D02*
X435530D01*
X471170Y794970D02*
Y804970D01*
X466170Y799970D02*
X476170D01*
X486490D02*
X496490D01*
X491490Y794970D02*
Y804970D01*
X425530Y961260D02*
X435530D01*
X430530Y956260D02*
Y966260D01*
X450850Y956260D02*
Y966260D01*
X445850Y961260D02*
X455850D01*
D26*
X272410Y872570D02*
Y882570D01*
X267410Y877570D02*
X277410D01*
X197710Y957270D02*
X335360D01*
X197710Y797870D02*
Y957270D01*
Y797870D02*
X335360D01*
X293280D02*
Y957270D01*
X487870Y838000D02*
Y931500D01*
X429070Y838000D02*
X487870D01*
X429070D02*
Y931500D01*
X487870D01*
X503310Y974760D02*
X520310D01*
X503310Y947760D02*
X520310D01*
Y974760D01*
X503310Y947760D02*
Y974760D01*
X462670Y947760D02*
X479670D01*
X462670Y974760D02*
X479670D01*
X462670Y947760D02*
Y974760D01*
X479670Y947760D02*
Y974760D01*
X482990Y947760D02*
X499990D01*
X482990Y974760D02*
X499990D01*
X482990Y947760D02*
Y974760D01*
X499990Y947760D02*
Y974760D01*
X442350Y786470D02*
X459350D01*
X442350Y813470D02*
X459350D01*
X442350Y786470D02*
Y813470D01*
X459350Y786470D02*
Y813470D01*
X422030Y786470D02*
X439030D01*
X422030Y813470D02*
X439030D01*
X422030Y786470D02*
Y813470D01*
X439030Y786470D02*
Y813470D01*
X462670Y786470D02*
X479670D01*
X462670Y813470D02*
X479670D01*
X462670Y786470D02*
Y813470D01*
X479670Y786470D02*
Y813470D01*
X499990Y786470D02*
Y813470D01*
X482990Y786470D02*
Y813470D01*
X499990D01*
X482990Y786470D02*
X499990D01*
X422030Y947760D02*
Y974760D01*
X439030Y947760D02*
Y974760D01*
X422030Y947760D02*
X439030D01*
X422030Y974760D02*
X439030D01*
X442350Y947760D02*
X459350D01*
X442350Y974760D02*
X459350D01*
X442350Y947760D02*
Y974760D01*
X459350Y947760D02*
Y974760D01*
M02*
