G04*
G04 #@! TF.GenerationSoftware,Altium Limited,Altium Designer,23.4.1 (23)*
G04*
G04 Layer_Physical_Order=1*
G04 Layer_Color=255*
%FSLAX26Y26*%
%MOIN*%
G70*
G04*
G04 #@! TF.SameCoordinates,CA646CD9-C579-4672-BC92-6BB416CC7DF5*
G04*
G04*
G04 #@! TF.FilePolarity,Positive*
G04*
G01*
G75*
%ADD12R,0.025591X0.064961*%
%ADD13R,0.053150X0.037402*%
%ADD14R,0.057331X0.051364*%
%ADD19C,0.010000*%
%ADD20C,0.019685*%
%ADD21C,0.015748*%
%ADD22C,0.064961*%
%ADD23R,0.064961X0.064961*%
%ADD24C,0.023622*%
G36*
X2154797Y2939203D02*
X1015203D01*
Y4032797D01*
X2154797D01*
Y2939203D01*
D02*
G37*
%LPC*%
G36*
X1840000Y3970294D02*
X1480000D01*
X1474147Y3969130D01*
X1469186Y3965814D01*
X1284186Y3780814D01*
X1280870Y3775853D01*
X1279706Y3770000D01*
Y3747480D01*
X1252520D01*
Y3662520D01*
X1337480D01*
Y3747480D01*
X1310294D01*
Y3763665D01*
X1486335Y3939706D01*
X1833665D01*
X1919706Y3853665D01*
Y3843701D01*
X1898425D01*
Y3787677D01*
X1898425Y3786299D01*
Y3782677D01*
X1898425Y3781299D01*
Y3725275D01*
X1902969D01*
X1904883Y3720656D01*
X1868207Y3683981D01*
X1864257Y3678068D01*
X1862870Y3671094D01*
X1859728Y3667480D01*
X1857795D01*
X1857205Y3667480D01*
X1852795D01*
X1848224Y3669942D01*
Y3682451D01*
X1867886Y3702113D01*
X1867887Y3702113D01*
X1871837Y3708026D01*
X1873224Y3715000D01*
Y3725275D01*
X1891575D01*
Y3781299D01*
X1891575Y3782677D01*
Y3786299D01*
X1891575Y3787677D01*
Y3843701D01*
X1870294D01*
Y3860000D01*
X1869130Y3865853D01*
X1865814Y3870814D01*
X1810814Y3925814D01*
X1805853Y3929130D01*
X1800000Y3930294D01*
X1515000D01*
X1509147Y3929130D01*
X1504186Y3925814D01*
X1419186Y3840814D01*
X1415870Y3835853D01*
X1414706Y3830000D01*
Y3586335D01*
X1348665Y3520294D01*
X1334881D01*
X1334585Y3521397D01*
X1328993Y3531084D01*
X1321083Y3538993D01*
X1311397Y3544585D01*
X1300593Y3547480D01*
X1289407D01*
X1278603Y3544585D01*
X1268917Y3538993D01*
X1261007Y3531084D01*
X1255415Y3521397D01*
X1252520Y3510593D01*
Y3499407D01*
X1255415Y3488603D01*
X1261007Y3478916D01*
X1264630Y3475294D01*
X1262559Y3470294D01*
X1236335D01*
X1228352Y3478276D01*
X1228993Y3478916D01*
X1234585Y3488603D01*
X1237480Y3499407D01*
Y3510593D01*
X1234585Y3521397D01*
X1228993Y3531084D01*
X1221083Y3538993D01*
X1211397Y3544585D01*
X1200593Y3547480D01*
X1189407D01*
X1178603Y3544585D01*
X1168917Y3538993D01*
X1161007Y3531084D01*
X1155415Y3521397D01*
X1152520Y3510593D01*
Y3499407D01*
X1155415Y3488603D01*
X1161007Y3478916D01*
X1168917Y3471007D01*
X1178603Y3465415D01*
X1189407Y3462520D01*
X1200593D01*
X1200797Y3462574D01*
X1215219Y3448152D01*
X1212149Y3444151D01*
X1211397Y3444585D01*
X1200593Y3447480D01*
X1189407D01*
X1178603Y3444585D01*
X1168917Y3438993D01*
X1161007Y3431084D01*
X1155415Y3421397D01*
X1155119Y3420294D01*
X1105000D01*
X1099147Y3419130D01*
X1094186Y3415814D01*
X1026154Y3347782D01*
X1022838Y3342821D01*
X1021674Y3336968D01*
Y3068032D01*
X1022838Y3062179D01*
X1026154Y3057218D01*
X1094186Y2989186D01*
X1099147Y2985870D01*
X1105000Y2984706D01*
X1810000D01*
X1815853Y2985870D01*
X1820814Y2989186D01*
X1865814Y3034186D01*
X1869130Y3039147D01*
X1870294Y3045000D01*
Y3090275D01*
X1891575D01*
Y3147677D01*
X1891575D01*
Y3151299D01*
X1891575D01*
Y3161776D01*
X1898425D01*
Y3152677D01*
X1898425Y3151299D01*
Y3147677D01*
X1898425Y3146299D01*
Y3090275D01*
X1971575D01*
Y3095526D01*
X1976575Y3098053D01*
X1978661Y3097189D01*
X1987339D01*
X1995355Y3100510D01*
X2001491Y3106645D01*
X2004811Y3114662D01*
Y3123338D01*
X2001491Y3131355D01*
X1995355Y3137490D01*
X1987339Y3140811D01*
X1978661D01*
X1976575Y3139947D01*
X1971575Y3142508D01*
X1971575Y3151299D01*
X1971575Y3152677D01*
Y3208701D01*
X1898425D01*
Y3198224D01*
X1891575D01*
Y3208701D01*
X1873224D01*
Y3245000D01*
X1871837Y3251974D01*
X1867887Y3257887D01*
X1867886Y3257887D01*
X1848224Y3277549D01*
Y3298020D01*
X1851424Y3298745D01*
X1853224Y3298983D01*
X1857470Y3298270D01*
X1857790Y3297790D01*
X1862080Y3293501D01*
X1862914Y3292943D01*
X1863622Y3292235D01*
X1864552Y3291849D01*
X1865388Y3291290D01*
X1865445Y3291279D01*
X1867054Y3290613D01*
X1867102Y3290580D01*
X1868092Y3290383D01*
X1869025Y3289998D01*
X1870024Y3289999D01*
X1871004Y3289804D01*
X1892992D01*
X1892992Y3289804D01*
X1893995Y3289804D01*
X1894983Y3290001D01*
X1895989Y3290001D01*
X1896582Y3290247D01*
X1897220Y3290327D01*
X1897220Y3290327D01*
X1897538Y3290508D01*
X1897897Y3290580D01*
X1897946Y3290613D01*
X1897946Y3290613D01*
X1899554Y3291278D01*
X1899611Y3291290D01*
X1900444Y3291846D01*
X1901369Y3292229D01*
X1902082Y3292940D01*
X1902919Y3293500D01*
X1903629Y3294210D01*
X1903630Y3294211D01*
X1903630Y3294211D01*
X1916499Y3307080D01*
X1917056Y3307914D01*
X1917765Y3308622D01*
X1918151Y3309552D01*
X1918710Y3310388D01*
X1918721Y3310445D01*
X1919387Y3312054D01*
X1919420Y3312102D01*
X1919617Y3313092D01*
X1920002Y3314025D01*
X1920001Y3315024D01*
X1920196Y3316004D01*
Y3422992D01*
X1920196Y3422992D01*
X1920196Y3423995D01*
X1919999Y3424983D01*
X1919999Y3425989D01*
X1919753Y3426582D01*
X1919673Y3427220D01*
X1919673Y3427220D01*
X1919492Y3427538D01*
X1919420Y3427897D01*
X1919388Y3427946D01*
X1919387Y3427946D01*
X1918722Y3429554D01*
X1918710Y3429611D01*
X1918154Y3430443D01*
X1917771Y3431369D01*
X1917060Y3432081D01*
X1916500Y3432919D01*
X1915790Y3433629D01*
X1915790Y3433630D01*
X1915789Y3433630D01*
X1874920Y3474499D01*
X1874092Y3475053D01*
X1873389Y3475758D01*
X1872454Y3476147D01*
X1871612Y3476710D01*
X1871555Y3476721D01*
X1869946Y3477387D01*
X1869898Y3477420D01*
X1868908Y3477617D01*
X1867975Y3478002D01*
X1866976Y3478001D01*
X1865996Y3478196D01*
X1504004D01*
X1503019Y3478000D01*
X1502014Y3478000D01*
X1501745Y3477946D01*
X1501745Y3477946D01*
X1500763Y3477751D01*
X1499834Y3477366D01*
X1499168Y3477234D01*
X1491335D01*
Y3470754D01*
X1363500Y3342920D01*
X1362943Y3342086D01*
X1362235Y3341378D01*
X1361849Y3340448D01*
X1361290Y3339612D01*
X1361279Y3339555D01*
X1360612Y3337946D01*
X1360580Y3337898D01*
X1360383Y3336908D01*
X1359998Y3335974D01*
X1359999Y3334975D01*
X1359804Y3333996D01*
Y3321554D01*
X1359804Y3269223D01*
X1355777Y3265196D01*
X1321018D01*
X1319678Y3270196D01*
X1320803Y3270845D01*
X1295000Y3296648D01*
X1269197Y3270845D01*
X1270322Y3270196D01*
X1268982Y3265196D01*
X1221018D01*
X1219678Y3270196D01*
X1220803Y3270845D01*
X1190824Y3300824D01*
X1199176Y3309176D01*
X1229155Y3279197D01*
X1234585Y3288603D01*
X1237480Y3299407D01*
Y3310593D01*
X1234585Y3321397D01*
X1228993Y3331084D01*
X1225370Y3334706D01*
X1227441Y3339706D01*
X1245000D01*
X1250853Y3340870D01*
X1255814Y3344186D01*
X1277614Y3365985D01*
X1278603Y3365415D01*
X1289407Y3362520D01*
X1300593D01*
X1311397Y3365415D01*
X1321083Y3371007D01*
X1328993Y3378916D01*
X1334585Y3388603D01*
X1337480Y3399407D01*
Y3410593D01*
X1334585Y3421397D01*
X1328993Y3431084D01*
X1325370Y3434706D01*
X1327441Y3439706D01*
X1360000D01*
X1365853Y3440870D01*
X1370814Y3444186D01*
X1490814Y3564186D01*
X1494130Y3569147D01*
X1495294Y3575000D01*
Y3803665D01*
X1556335Y3864706D01*
X1748665D01*
X1759706Y3853665D01*
Y3843701D01*
X1738425D01*
Y3787677D01*
X1738425Y3786299D01*
Y3782677D01*
X1738425Y3781299D01*
Y3772200D01*
X1731575D01*
Y3781299D01*
X1731575Y3782677D01*
Y3786299D01*
X1731575Y3787677D01*
Y3843701D01*
X1658425D01*
Y3835231D01*
X1643152D01*
X1639339Y3836811D01*
X1630661D01*
X1622645Y3833490D01*
X1616509Y3827355D01*
X1613189Y3819338D01*
Y3810662D01*
X1616509Y3802645D01*
X1622645Y3796510D01*
X1630661Y3793189D01*
X1639339D01*
X1643152Y3794769D01*
X1658425D01*
Y3787677D01*
X1658425Y3786299D01*
Y3782677D01*
X1658425Y3781299D01*
Y3725275D01*
X1731575D01*
Y3735752D01*
X1738425D01*
Y3725275D01*
X1761776D01*
Y3667480D01*
X1757205D01*
Y3582520D01*
X1802205D01*
X1802795Y3582520D01*
X1807205D01*
X1807795Y3582520D01*
X1852205D01*
X1852795Y3582520D01*
X1857205D01*
X1857795Y3582520D01*
X1902795D01*
Y3667022D01*
X1943764Y3707991D01*
X1943764Y3707992D01*
X1947715Y3713904D01*
X1949102Y3720878D01*
X1950677Y3725275D01*
X1971575D01*
Y3735752D01*
X1978425D01*
Y3725275D01*
X2051575D01*
Y3781299D01*
X2051575Y3782677D01*
Y3786299D01*
X2051575Y3787677D01*
Y3794769D01*
X2066847D01*
X2070662Y3793189D01*
X2079338D01*
X2087355Y3796510D01*
X2093490Y3802645D01*
X2096811Y3810662D01*
Y3819338D01*
X2093490Y3827355D01*
X2087355Y3833490D01*
X2079338Y3836811D01*
X2070662D01*
X2066847Y3835231D01*
X2051575D01*
Y3843701D01*
X1978425D01*
Y3787677D01*
X1978425Y3786299D01*
Y3782677D01*
X1978425Y3781299D01*
Y3772200D01*
X1971575D01*
Y3781299D01*
X1971575Y3782677D01*
Y3786299D01*
X1971575Y3787677D01*
Y3843701D01*
X1950294D01*
Y3860000D01*
X1949130Y3865853D01*
X1945814Y3870814D01*
X1850814Y3965814D01*
X1845853Y3969130D01*
X1840000Y3970294D01*
D02*
G37*
G36*
X1200593Y3747480D02*
X1189407D01*
X1178603Y3744585D01*
X1168917Y3738993D01*
X1161007Y3731084D01*
X1155415Y3721397D01*
X1152520Y3710593D01*
Y3699407D01*
X1155415Y3688603D01*
X1161007Y3678916D01*
X1168917Y3671007D01*
X1178603Y3665415D01*
X1189407Y3662520D01*
X1200593D01*
X1211397Y3665415D01*
X1221083Y3671007D01*
X1228993Y3678916D01*
X1234585Y3688603D01*
X1237480Y3699407D01*
Y3710593D01*
X1234585Y3721397D01*
X1228993Y3731084D01*
X1221083Y3738993D01*
X1211397Y3744585D01*
X1200593Y3747480D01*
D02*
G37*
G36*
X1300593Y3647480D02*
X1289407D01*
X1278603Y3644585D01*
X1268917Y3638993D01*
X1261007Y3631084D01*
X1255415Y3621397D01*
X1252520Y3610593D01*
Y3599407D01*
X1255415Y3588603D01*
X1261007Y3578916D01*
X1268917Y3571007D01*
X1278603Y3565415D01*
X1289407Y3562520D01*
X1300593D01*
X1311397Y3565415D01*
X1321083Y3571007D01*
X1328993Y3578916D01*
X1334585Y3588603D01*
X1337480Y3599407D01*
Y3610593D01*
X1334585Y3621397D01*
X1328993Y3631084D01*
X1321083Y3638993D01*
X1311397Y3644585D01*
X1300593Y3647480D01*
D02*
G37*
G36*
X1200593D02*
X1189407D01*
X1178603Y3644585D01*
X1168917Y3638993D01*
X1161007Y3631084D01*
X1155415Y3621397D01*
X1152520Y3610593D01*
Y3599407D01*
X1155415Y3588603D01*
X1161007Y3578916D01*
X1168917Y3571007D01*
X1178603Y3565415D01*
X1189407Y3562520D01*
X1200593D01*
X1211397Y3565415D01*
X1221083Y3571007D01*
X1228993Y3578916D01*
X1234585Y3588603D01*
X1237480Y3599407D01*
Y3610593D01*
X1234585Y3621397D01*
X1228993Y3631084D01*
X1221083Y3638993D01*
X1211397Y3644585D01*
X1200593Y3647480D01*
D02*
G37*
G36*
X1300593Y3347480D02*
X1289407D01*
X1278603Y3344585D01*
X1269197Y3339155D01*
X1295000Y3313352D01*
X1320803Y3339155D01*
X1311397Y3344585D01*
X1300593Y3347480D01*
D02*
G37*
G36*
X1260845Y3330803D02*
X1255415Y3321397D01*
X1252520Y3310593D01*
Y3299407D01*
X1255415Y3288603D01*
X1260845Y3279197D01*
X1286648Y3305000D01*
X1260845Y3330803D01*
D02*
G37*
G36*
X1329155Y3330803D02*
X1303352Y3305000D01*
X1329155Y3279197D01*
X1334585Y3288603D01*
X1337480Y3299407D01*
Y3310593D01*
X1334585Y3321397D01*
X1329155Y3330803D01*
D02*
G37*
%LPD*%
G36*
X1842543Y3389016D02*
X1839871Y3384016D01*
X1807795D01*
X1807205Y3384016D01*
X1802795D01*
X1802205Y3384016D01*
X1757795D01*
X1757205Y3384016D01*
X1752795D01*
X1752205Y3384016D01*
X1707205D01*
Y3299056D01*
X1711776D01*
Y3262549D01*
X1682113Y3232887D01*
X1678163Y3226974D01*
X1676776Y3220000D01*
X1676776Y3219999D01*
Y3208701D01*
X1658425D01*
Y3152677D01*
X1658425Y3151299D01*
Y3147677D01*
X1658425Y3146299D01*
Y3090294D01*
X1166335D01*
X1130294Y3126335D01*
Y3133754D01*
X1134913Y3135668D01*
X1152080Y3118501D01*
X1152914Y3117943D01*
X1153622Y3117235D01*
X1154552Y3116849D01*
X1155388Y3116290D01*
X1155445Y3116279D01*
X1157054Y3115613D01*
X1157102Y3115580D01*
X1158092Y3115383D01*
X1159025Y3114998D01*
X1160024Y3114999D01*
X1161004Y3114804D01*
X1347992D01*
X1347992Y3114804D01*
X1348995Y3114804D01*
X1349983Y3115001D01*
X1350989Y3115001D01*
X1351582Y3115247D01*
X1352220Y3115327D01*
X1352220Y3115327D01*
X1352538Y3115508D01*
X1352897Y3115580D01*
X1352946Y3115613D01*
X1352946Y3115613D01*
X1354554Y3116278D01*
X1354611Y3116290D01*
X1355444Y3116846D01*
X1356369Y3117229D01*
X1357082Y3117940D01*
X1357919Y3118500D01*
X1358629Y3119210D01*
X1358630Y3119211D01*
X1358630Y3119211D01*
X1431499Y3192080D01*
X1432056Y3192914D01*
X1432765Y3193622D01*
X1433151Y3194552D01*
X1433710Y3195388D01*
X1433721Y3195445D01*
X1434387Y3197054D01*
X1434420Y3197102D01*
X1434617Y3198092D01*
X1435002Y3199025D01*
X1435001Y3200024D01*
X1435196Y3201004D01*
Y3305777D01*
X1519223Y3389804D01*
X1842017D01*
X1842543Y3389016D01*
D02*
G37*
G36*
X1866044Y3467968D02*
X1867653Y3467301D01*
X1867710Y3467290D01*
X1908580Y3426420D01*
X1909290Y3425710D01*
X1909301Y3425653D01*
X1909968Y3424044D01*
X1910000Y3423996D01*
X1910000Y3423996D01*
X1910000Y3422992D01*
X1910000Y3422992D01*
Y3316004D01*
X1909968Y3315956D01*
X1909301Y3314347D01*
X1909290Y3314290D01*
X1896420Y3301420D01*
X1895710Y3300710D01*
X1895653Y3300699D01*
X1894044Y3300032D01*
X1893996Y3300000D01*
X1893996Y3300000D01*
X1892992Y3300000D01*
X1892992Y3300000D01*
X1871004D01*
X1870956Y3300032D01*
X1869347Y3300699D01*
X1869290Y3300710D01*
X1865000Y3305000D01*
Y3385000D01*
X1850000Y3400000D01*
X1515000D01*
X1425000Y3310000D01*
Y3201004D01*
X1424968Y3200956D01*
X1424301Y3199347D01*
X1424290Y3199290D01*
X1351420Y3126420D01*
X1350710Y3125710D01*
X1350653Y3125699D01*
X1349044Y3125032D01*
X1348996Y3125000D01*
X1348996Y3125000D01*
X1347992Y3125000D01*
X1347992Y3125000D01*
X1161004D01*
X1160956Y3125032D01*
X1159347Y3125699D01*
X1159290Y3125710D01*
X1135000Y3150000D01*
Y3235000D01*
X1155000Y3255000D01*
X1360000D01*
X1370000Y3265000D01*
X1370000Y3321554D01*
Y3333996D01*
X1370032Y3334044D01*
X1370699Y3335653D01*
X1370710Y3335710D01*
X1502751Y3467751D01*
X1503735Y3467946D01*
X1503736Y3467947D01*
X1504004Y3468000D01*
X1865996D01*
X1866044Y3467968D01*
D02*
G37*
%LPC*%
G36*
X1300593Y3247480D02*
X1289407D01*
X1278603Y3244585D01*
X1269197Y3239155D01*
X1295000Y3213352D01*
X1320803Y3239155D01*
X1311397Y3244585D01*
X1300593Y3247480D01*
D02*
G37*
G36*
X1200593D02*
X1189407D01*
X1178603Y3244585D01*
X1169197Y3239155D01*
X1195000Y3213352D01*
X1220803Y3239155D01*
X1211397Y3244585D01*
X1200593Y3247480D01*
D02*
G37*
G36*
X1160845Y3230803D02*
X1155415Y3221397D01*
X1152520Y3210593D01*
Y3199407D01*
X1155415Y3188603D01*
X1160845Y3179197D01*
X1186648Y3205000D01*
X1160845Y3230803D01*
D02*
G37*
G36*
X1260845D02*
X1255415Y3221397D01*
X1252520Y3210593D01*
Y3199407D01*
X1255415Y3188603D01*
X1260845Y3179197D01*
X1286648Y3205000D01*
X1260845Y3230803D01*
D02*
G37*
G36*
X1329155Y3230803D02*
X1303352Y3205000D01*
X1329155Y3179197D01*
X1334585Y3188603D01*
X1337480Y3199407D01*
Y3210593D01*
X1334585Y3221397D01*
X1329155Y3230803D01*
D02*
G37*
G36*
X1229155D02*
X1203352Y3205000D01*
X1229155Y3179197D01*
X1234585Y3188603D01*
X1237480Y3199407D01*
Y3210593D01*
X1234585Y3221397D01*
X1229155Y3230803D01*
D02*
G37*
G36*
X1295000Y3196648D02*
X1269197Y3170845D01*
X1278603Y3165415D01*
X1289407Y3162520D01*
X1300593D01*
X1311397Y3165415D01*
X1320803Y3170845D01*
X1295000Y3196648D01*
D02*
G37*
G36*
X1195000D02*
X1169197Y3170845D01*
X1178603Y3165415D01*
X1189407Y3162520D01*
X1200593D01*
X1211397Y3165415D01*
X1220803Y3170845D01*
X1195000Y3196648D01*
D02*
G37*
%LPD*%
D12*
X1880000Y3625000D02*
D03*
X1830000D02*
D03*
X1780000D02*
D03*
X1730000D02*
D03*
Y3341536D02*
D03*
X1780000D02*
D03*
X1830000D02*
D03*
X1880000D02*
D03*
D13*
X2015000Y3815000D02*
D03*
Y3753976D02*
D03*
X1855000D02*
D03*
Y3815000D02*
D03*
X1935000Y3753976D02*
D03*
Y3815000D02*
D03*
X1775000Y3118976D02*
D03*
Y3180000D02*
D03*
X1695000Y3118976D02*
D03*
Y3180000D02*
D03*
X1855000Y3118976D02*
D03*
Y3180000D02*
D03*
X1935000D02*
D03*
Y3118976D02*
D03*
X1695000Y3753976D02*
D03*
Y3815000D02*
D03*
X1775000Y3753976D02*
D03*
Y3815000D02*
D03*
D14*
X1635000Y3441552D02*
D03*
Y3505000D02*
D03*
X1530000Y3441552D02*
D03*
Y3505000D02*
D03*
D19*
X1360000Y3455000D02*
X1480000Y3575000D01*
Y3810000D01*
X1550000Y3880000D01*
X1430000Y3580000D02*
Y3830000D01*
X1355000Y3505000D02*
X1430000Y3580000D01*
Y3830000D02*
X1515000Y3915000D01*
X1295000Y3505000D02*
X1355000D01*
X1230000Y3455000D02*
X1360000D01*
X1105000Y3000000D02*
X1810000D01*
X1036968Y3068032D02*
Y3336968D01*
Y3068032D02*
X1105000Y3000000D01*
X1125000Y3040000D02*
X1750000D01*
X1075000Y3090000D02*
Y3315000D01*
Y3090000D02*
X1125000Y3040000D01*
X1115000Y3120000D02*
X1160000Y3075000D01*
X1115000Y3120000D02*
Y3285000D01*
X1075000Y3315000D02*
X1115000Y3355000D01*
X1160000Y3075000D02*
X1684142D01*
X1115000Y3355000D02*
X1245000D01*
X1036968Y3336968D02*
X1105000Y3405000D01*
X1195000D01*
X1690000Y3080858D02*
Y3113976D01*
X1684142Y3075000D02*
X1690000Y3080858D01*
Y3113976D02*
X1695000Y3118976D01*
X1245000Y3355000D02*
X1295000Y3405000D01*
X1750000Y3040000D02*
X1775000Y3065000D01*
X1855000Y3045000D02*
Y3118976D01*
X1810000Y3000000D02*
X1855000Y3045000D01*
X1775000Y3065000D02*
Y3118976D01*
X1840000Y3955000D02*
X1935000Y3860000D01*
Y3815000D02*
Y3860000D01*
X1480000Y3955000D02*
X1840000D01*
X1515000Y3915000D02*
X1800000D01*
X1855000Y3815000D02*
Y3860000D01*
X1800000Y3915000D02*
X1855000Y3860000D01*
X1755000Y3880000D02*
X1775000Y3860000D01*
Y3815000D02*
Y3860000D01*
X1550000Y3880000D02*
X1755000D01*
X1295000Y3705000D02*
Y3770000D01*
X1480000Y3955000D01*
X1195000Y3490128D02*
Y3505000D01*
Y3490128D02*
X1211074Y3474054D01*
Y3473926D02*
Y3474054D01*
Y3473926D02*
X1230000Y3455000D01*
D20*
X1935000Y3118976D02*
X1935012Y3118988D01*
X1982988D01*
X1983000Y3119000D01*
X1635000Y3815000D02*
X1695000D01*
X2015000D02*
X2075000D01*
D21*
X1855000Y3180000D02*
X1935000D01*
X1855000D02*
Y3245000D01*
X1830000Y3270000D02*
X1855000Y3245000D01*
X1830000Y3270000D02*
Y3341536D01*
X1780000Y3185000D02*
Y3341536D01*
X1775000Y3180000D02*
X1780000Y3185000D01*
X1695000Y3180000D02*
Y3220000D01*
X1730000Y3255000D02*
Y3341536D01*
X1695000Y3220000D02*
X1730000Y3255000D01*
X1880000Y3625000D02*
X1881094Y3626094D01*
Y3671094D01*
X1930878Y3720878D01*
Y3749854D01*
X1935000Y3753976D01*
X2015000D01*
X1855000Y3715000D02*
Y3753976D01*
X1830000Y3690000D02*
X1855000Y3715000D01*
X1830000Y3625000D02*
Y3690000D01*
X1780000Y3625000D02*
Y3748976D01*
X1775000Y3753976D02*
X1780000Y3748976D01*
X1695000Y3753976D02*
X1775000D01*
D22*
X1195000Y3405000D02*
D03*
X1295000D02*
D03*
X1195000Y3605000D02*
D03*
X1295000D02*
D03*
X1195000Y3705000D02*
D03*
X1295000Y3505000D02*
D03*
X1195000D02*
D03*
X1295000Y3305000D02*
D03*
Y3205000D02*
D03*
X1195000Y3305000D02*
D03*
Y3205000D02*
D03*
D23*
X1295000Y3705000D02*
D03*
D24*
X2099000Y4008000D02*
D03*
X2049000Y3908000D02*
D03*
X2099000Y3608000D02*
D03*
X2049000Y3508000D02*
D03*
X2099000Y3408000D02*
D03*
X2049000Y3308000D02*
D03*
X2099000Y3208000D02*
D03*
X2049000Y3108000D02*
D03*
X1999000Y4008000D02*
D03*
X1949000Y3908000D02*
D03*
Y3508000D02*
D03*
X1999000Y3408000D02*
D03*
X1949000Y3308000D02*
D03*
X1899000Y4008000D02*
D03*
X1849000Y3508000D02*
D03*
X1799000Y4008000D02*
D03*
X1749000Y3708000D02*
D03*
Y3508000D02*
D03*
X1699000Y4008000D02*
D03*
X1649000Y3708000D02*
D03*
X1699000Y3608000D02*
D03*
X1649000Y3308000D02*
D03*
X1599000Y4008000D02*
D03*
Y3808000D02*
D03*
X1549000Y3708000D02*
D03*
X1599000Y3608000D02*
D03*
X1549000Y3308000D02*
D03*
X1599000Y3208000D02*
D03*
X1549000Y3108000D02*
D03*
X1499000Y4008000D02*
D03*
Y3208000D02*
D03*
X1449000Y3108000D02*
D03*
X1399000Y4008000D02*
D03*
X1349000Y3908000D02*
D03*
X1399000Y3808000D02*
D03*
Y3608000D02*
D03*
Y3408000D02*
D03*
X1299000Y4008000D02*
D03*
X1249000Y3908000D02*
D03*
X1199000Y4008000D02*
D03*
X1149000Y3908000D02*
D03*
X1199000Y3808000D02*
D03*
X1099000Y4008000D02*
D03*
X1049000Y3908000D02*
D03*
X1099000Y3808000D02*
D03*
X1049000Y3708000D02*
D03*
X1099000Y3608000D02*
D03*
X1049000Y3508000D02*
D03*
X1876000Y3435000D02*
D03*
X1983000Y3119000D02*
D03*
X1115000Y3285000D02*
D03*
X1635000Y3815000D02*
D03*
X2075000D02*
D03*
M02*
