G04*
G04 #@! TF.GenerationSoftware,Altium Limited,Altium Designer,23.4.1 (23)*
G04*
G04 Layer_Color=8388736*
%FSLAX43Y43*%
%MOMM*%
G71*
G04*
G04 #@! TF.SameCoordinates,B8DC0AD9-165B-4E50-B3CF-A5D0C9A40CC4*
G04*
G04*
G04 #@! TF.FilePolarity,Negative*
G04*
G01*
G75*
%ADD14R,1.456X1.305*%
%ADD15R,0.853X1.853*%
%ADD16R,1.553X1.153*%
%ADD17C,1.853*%
%ADD18R,1.853X1.853*%
D14*
X41529Y87415D02*
D03*
Y89027D02*
D03*
X38862Y87415D02*
D03*
Y89027D02*
D03*
D15*
X47752Y92075D02*
D03*
X46482D02*
D03*
X45212D02*
D03*
X43942D02*
D03*
Y84875D02*
D03*
X45212D02*
D03*
X46482D02*
D03*
X47752D02*
D03*
D16*
X51181Y96901D02*
D03*
Y95351D02*
D03*
X47117D02*
D03*
Y96901D02*
D03*
X49149Y95351D02*
D03*
Y96901D02*
D03*
X45085Y79222D02*
D03*
Y80772D02*
D03*
X43053Y79222D02*
D03*
Y80772D02*
D03*
X47117Y79222D02*
D03*
Y80772D02*
D03*
X49149D02*
D03*
Y79222D02*
D03*
X43053Y95351D02*
D03*
Y96901D02*
D03*
X45085Y95351D02*
D03*
Y96901D02*
D03*
D17*
X30353Y86487D02*
D03*
X32893D02*
D03*
X30353Y91567D02*
D03*
X32893D02*
D03*
X30353Y94107D02*
D03*
X32893Y89027D02*
D03*
X30353D02*
D03*
X32893Y83947D02*
D03*
Y81407D02*
D03*
X30353Y83947D02*
D03*
Y81407D02*
D03*
D18*
X32893Y94107D02*
D03*
M02*
