G04*
G04 #@! TF.GenerationSoftware,Altium Limited,Altium Designer,23.4.1 (23)*
G04*
G04 Layer_Physical_Order=2*
G04 Layer_Color=16711680*
%FSLAX44Y44*%
%MOMM*%
G71*
G04*
G04 #@! TF.SameCoordinates,29E651B0-A92D-4825-8418-8387D5B9DFF4*
G04*
G04*
G04 #@! TF.FilePolarity,Positive*
G04*
G01*
G75*
%ADD19C,0.2540*%
%ADD20C,0.5000*%
%ADD22C,1.6500*%
%ADD23R,1.6500X1.6500*%
%ADD24C,0.6000*%
G36*
X547318Y746558D02*
X257862D01*
Y1024330D01*
X547318D01*
Y746558D01*
D02*
G37*
%LPC*%
G36*
X528152Y974550D02*
X525948D01*
X524979Y974149D01*
X417361D01*
X416392Y974550D01*
X414188D01*
X412152Y973707D01*
X410593Y972148D01*
X409750Y970112D01*
Y967908D01*
X410593Y965872D01*
X412152Y964313D01*
X414188Y963470D01*
X416392D01*
X417361Y963871D01*
X521911D01*
Y938626D01*
X472870Y889586D01*
X471756Y887918D01*
X471365Y885952D01*
Y874561D01*
X470964Y873592D01*
Y871388D01*
X471807Y869352D01*
X473366Y867793D01*
X474335Y867392D01*
X498543Y843184D01*
Y794297D01*
X498142Y793328D01*
Y791124D01*
X498985Y789088D01*
X500544Y787529D01*
X502580Y786686D01*
X504784D01*
X506820Y787529D01*
X508379Y789088D01*
X509222Y791124D01*
Y793328D01*
X508821Y794297D01*
Y845312D01*
X508430Y847279D01*
X507316Y848946D01*
X481643Y874619D01*
Y883823D01*
X530684Y932864D01*
X531798Y934531D01*
X532189Y936498D01*
Y966939D01*
X532590Y967908D01*
Y970112D01*
X531747Y972148D01*
X530188Y973707D01*
X528152Y974550D01*
D02*
G37*
G36*
X339720Y951860D02*
X318140D01*
Y930280D01*
X339720D01*
Y951860D01*
D02*
G37*
G36*
X304951D02*
X302110D01*
X299365Y951125D01*
X296905Y949704D01*
X294896Y947695D01*
X293475Y945235D01*
X292740Y942490D01*
Y939650D01*
X293475Y936905D01*
X294896Y934445D01*
X296905Y932436D01*
X299365Y931015D01*
X302110Y930280D01*
X304951D01*
X307695Y931015D01*
X310155Y932436D01*
X312164Y934445D01*
X313585Y936905D01*
X314320Y939650D01*
Y942490D01*
X313585Y945235D01*
X312164Y947695D01*
X310155Y949704D01*
X307695Y951125D01*
X304951Y951860D01*
D02*
G37*
G36*
X330350Y926460D02*
X327509D01*
X324765Y925725D01*
X322305Y924304D01*
X320296Y922295D01*
X318875Y919835D01*
X318140Y917091D01*
Y914249D01*
X318875Y911505D01*
X319020Y911254D01*
X315261Y907495D01*
X312273D01*
X311787Y908668D01*
X312164Y909045D01*
X313585Y911505D01*
X314320Y914249D01*
Y917091D01*
X313585Y919835D01*
X312164Y922295D01*
X310155Y924304D01*
X307695Y925725D01*
X304951Y926460D01*
X302110D01*
X299365Y925725D01*
X296905Y924304D01*
X294896Y922295D01*
X293475Y919835D01*
X292740Y917091D01*
Y914249D01*
X293475Y911505D01*
X294896Y909045D01*
X296461Y907479D01*
X296829Y906799D01*
X296509Y905798D01*
X280463Y889752D01*
X279621Y888492D01*
X279325Y887006D01*
Y838340D01*
X278513Y837528D01*
X277670Y835492D01*
Y833288D01*
X278513Y831252D01*
X280072Y829693D01*
X282108Y828850D01*
X284312D01*
X286348Y829693D01*
X287907Y831252D01*
X288750Y833288D01*
Y835492D01*
X287907Y837528D01*
X287095Y838340D01*
Y885396D01*
X291567Y889869D01*
X292740Y889382D01*
Y888849D01*
X293475Y886105D01*
X294896Y883645D01*
X296905Y881636D01*
X299365Y880215D01*
X302110Y879480D01*
X304951D01*
X307695Y880215D01*
X310155Y881636D01*
X312164Y883645D01*
X313585Y886105D01*
X314320Y888849D01*
Y891691D01*
X313585Y894435D01*
X312164Y896895D01*
X310604Y898455D01*
X311130Y899725D01*
X316870D01*
X318357Y900021D01*
X319617Y900863D01*
X324514Y905760D01*
X324765Y905615D01*
X327509Y904880D01*
X330350D01*
X333095Y905615D01*
X335555Y907036D01*
X337564Y909045D01*
X338985Y911505D01*
X339720Y914249D01*
Y917091D01*
X338985Y919835D01*
X337564Y922295D01*
X335555Y924304D01*
X333095Y925725D01*
X330350Y926460D01*
D02*
G37*
G36*
Y901060D02*
X327509D01*
X324765Y900325D01*
X322305Y898904D01*
X320296Y896895D01*
X318875Y894435D01*
X318140Y891691D01*
Y888849D01*
X318875Y886105D01*
X320296Y883645D01*
X322305Y881636D01*
X324765Y880215D01*
X327509Y879480D01*
X330350D01*
X333095Y880215D01*
X335555Y881636D01*
X337564Y883645D01*
X338985Y886105D01*
X339720Y888849D01*
Y891691D01*
X338985Y894435D01*
X337564Y896895D01*
X335555Y898904D01*
X333095Y900325D01*
X330350Y901060D01*
D02*
G37*
G36*
Y875660D02*
X327509D01*
X324765Y874925D01*
X322305Y873504D01*
X320296Y871495D01*
X318875Y869035D01*
X318140Y866291D01*
Y863449D01*
X318875Y860705D01*
X320296Y858245D01*
X322305Y856236D01*
X324765Y854815D01*
X327509Y854080D01*
X330350D01*
X333095Y854815D01*
X335555Y856236D01*
X337564Y858245D01*
X338985Y860705D01*
X339720Y863449D01*
Y866291D01*
X338985Y869035D01*
X337564Y871495D01*
X335555Y873504D01*
X333095Y874925D01*
X330350Y875660D01*
D02*
G37*
G36*
X304951D02*
X302110D01*
X299365Y874925D01*
X296905Y873504D01*
X294896Y871495D01*
X293475Y869035D01*
X292740Y866291D01*
Y863449D01*
X293475Y860705D01*
X294896Y858245D01*
X296905Y856236D01*
X299365Y854815D01*
X302110Y854080D01*
X304951D01*
X307695Y854815D01*
X310155Y856236D01*
X312164Y858245D01*
X313585Y860705D01*
X314320Y863449D01*
Y866291D01*
X313585Y869035D01*
X312164Y871495D01*
X310155Y873504D01*
X307695Y874925D01*
X304951Y875660D01*
D02*
G37*
G36*
X330350Y850260D02*
X327509D01*
X324765Y849525D01*
X322376Y848145D01*
X328930Y841591D01*
X335484Y848145D01*
X333095Y849525D01*
X330350Y850260D01*
D02*
G37*
G36*
X304951D02*
X302110D01*
X299365Y849525D01*
X296976Y848145D01*
X303530Y841591D01*
X310084Y848145D01*
X307695Y849525D01*
X304951Y850260D01*
D02*
G37*
G36*
X294855Y846024D02*
X293475Y843635D01*
X292740Y840891D01*
Y838049D01*
X293475Y835305D01*
X294855Y832916D01*
X301409Y839470D01*
X294855Y846024D01*
D02*
G37*
G36*
X320255D02*
X318875Y843635D01*
X318140Y840891D01*
Y838049D01*
X318875Y835305D01*
X320255Y832916D01*
X326809Y839470D01*
X320255Y846024D01*
D02*
G37*
G36*
X337605Y846024D02*
X331051Y839470D01*
X337605Y832916D01*
X338985Y835305D01*
X339720Y838049D01*
Y840891D01*
X338985Y843635D01*
X337605Y846024D01*
D02*
G37*
G36*
X312205D02*
X305651Y839470D01*
X312205Y832916D01*
X313585Y835305D01*
X314320Y838049D01*
Y840891D01*
X313585Y843635D01*
X312205Y846024D01*
D02*
G37*
G36*
X328930Y837349D02*
X322376Y830795D01*
X324765Y829415D01*
X327509Y828680D01*
X330350D01*
X333095Y829415D01*
X335484Y830795D01*
X328930Y837349D01*
D02*
G37*
G36*
X303530D02*
X296976Y830795D01*
X299365Y829415D01*
X302110Y828680D01*
X304951D01*
X307695Y829415D01*
X310084Y830795D01*
X303530Y837349D01*
D02*
G37*
G36*
X330350Y824860D02*
X327509D01*
X324765Y824125D01*
X322305Y822704D01*
X320296Y820695D01*
X318875Y818235D01*
X318140Y815490D01*
Y812650D01*
X318875Y809905D01*
X320296Y807445D01*
X322305Y805436D01*
X324765Y804015D01*
X327509Y803280D01*
X330350D01*
X333095Y804015D01*
X335555Y805436D01*
X337564Y807445D01*
X338985Y809905D01*
X339720Y812650D01*
Y815490D01*
X338985Y818235D01*
X337564Y820695D01*
X335555Y822704D01*
X333095Y824125D01*
X330350Y824860D01*
D02*
G37*
G36*
X304951D02*
X302110D01*
X299365Y824125D01*
X296905Y822704D01*
X294896Y820695D01*
X293475Y818235D01*
X292740Y815490D01*
Y812650D01*
X293475Y809905D01*
X294896Y807445D01*
X296905Y805436D01*
X299365Y804015D01*
X302110Y803280D01*
X304951D01*
X307695Y804015D01*
X310155Y805436D01*
X312164Y807445D01*
X313585Y809905D01*
X314320Y812650D01*
Y815490D01*
X313585Y818235D01*
X312164Y820695D01*
X310155Y822704D01*
X307695Y824125D01*
X304951Y824860D01*
D02*
G37*
%LPD*%
D19*
X283210Y834390D02*
Y887006D01*
X299814Y903610D01*
X316870D01*
X328930Y915670D01*
D20*
X476504Y872490D02*
Y885952D01*
X527050Y936498D02*
Y969010D01*
X476504Y885952D02*
X527050Y936498D01*
X415290Y969010D02*
X527050D01*
X476504Y872490D02*
X503682Y845312D01*
Y792226D02*
Y845312D01*
D22*
X303530Y864870D02*
D03*
X328930D02*
D03*
X303530Y915670D02*
D03*
X328930D02*
D03*
X303530Y941070D02*
D03*
X328930Y890270D02*
D03*
X303530D02*
D03*
X328930Y839470D02*
D03*
Y814070D02*
D03*
X303530Y839470D02*
D03*
Y814070D02*
D03*
D23*
X328930Y941070D02*
D03*
D24*
X533146Y1018032D02*
D03*
X520446Y992632D02*
D03*
X533146Y916432D02*
D03*
X520446Y891032D02*
D03*
X533146Y865632D02*
D03*
X520446Y840232D02*
D03*
X533146Y814832D02*
D03*
X520446Y789432D02*
D03*
X507746Y1018032D02*
D03*
X495046Y992632D02*
D03*
Y891032D02*
D03*
X507746Y865632D02*
D03*
X495046Y840232D02*
D03*
X482346Y1018032D02*
D03*
X469646Y891032D02*
D03*
X456946Y1018032D02*
D03*
X444246Y941832D02*
D03*
Y891032D02*
D03*
X431546Y1018032D02*
D03*
X418846Y941832D02*
D03*
X431546Y916432D02*
D03*
X418846Y840232D02*
D03*
X406146Y1018032D02*
D03*
Y967232D02*
D03*
X393446Y941832D02*
D03*
X406146Y916432D02*
D03*
X393446Y840232D02*
D03*
X406146Y814832D02*
D03*
X393446Y789432D02*
D03*
X380746Y1018032D02*
D03*
Y814832D02*
D03*
X368046Y789432D02*
D03*
X355346Y1018032D02*
D03*
X342646Y992632D02*
D03*
X355346Y967232D02*
D03*
Y916432D02*
D03*
Y865632D02*
D03*
X329946Y1018032D02*
D03*
X317246Y992632D02*
D03*
X304546Y1018032D02*
D03*
X291846Y992632D02*
D03*
X304546Y967232D02*
D03*
X279146Y1018032D02*
D03*
X266446Y992632D02*
D03*
X279146Y967232D02*
D03*
X266446Y941832D02*
D03*
X279146Y916432D02*
D03*
X266446Y891032D02*
D03*
X476504Y872490D02*
D03*
X503682Y792226D02*
D03*
X283210Y834390D02*
D03*
X415290Y969010D02*
D03*
X527050D02*
D03*
M02*
