G04*
G04 #@! TF.GenerationSoftware,Altium Limited,Altium Designer,23.4.1 (23)*
G04*
G04 Layer_Physical_Order=2*
G04 Layer_Color=16711680*
%FSLAX25Y25*%
%MOIN*%
G70*
G04*
G04 #@! TF.SameCoordinates,985B102E-A1E5-4F21-A819-21D10D55B489*
G04*
G04*
G04 #@! TF.FilePolarity,Positive*
G04*
G01*
G75*
%ADD19C,0.01000*%
%ADD20C,0.01968*%
%ADD22C,0.06496*%
%ADD23R,0.06496X0.06496*%
%ADD24C,0.02362*%
G36*
X215480Y293920D02*
X101520D01*
Y403280D01*
X215480D01*
Y293920D01*
D02*
G37*
%LPC*%
G36*
X207934Y383681D02*
X207066D01*
X206685Y383523D01*
X164315D01*
X163934Y383681D01*
X163066D01*
X162265Y383349D01*
X161651Y382735D01*
X161319Y381934D01*
Y381066D01*
X161651Y380264D01*
X162265Y379651D01*
X163066Y379319D01*
X163934D01*
X164315Y379477D01*
X205477D01*
Y369538D01*
X186169Y350231D01*
X185731Y349574D01*
X185577Y348800D01*
Y344315D01*
X185419Y343934D01*
Y343066D01*
X185751Y342265D01*
X186364Y341651D01*
X186746Y341493D01*
X196277Y331962D01*
Y312715D01*
X196119Y312334D01*
Y311466D01*
X196451Y310665D01*
X197064Y310051D01*
X197866Y309719D01*
X198734D01*
X199536Y310051D01*
X200149Y310665D01*
X200481Y311466D01*
Y312334D01*
X200323Y312715D01*
Y332800D01*
X200169Y333574D01*
X199731Y334231D01*
X189623Y344338D01*
Y347962D01*
X208931Y367269D01*
X209369Y367926D01*
X209523Y368700D01*
Y380685D01*
X209681Y381066D01*
Y381934D01*
X209349Y382735D01*
X208735Y383349D01*
X207934Y383681D01*
D02*
G37*
G36*
X133748Y374748D02*
X125252D01*
Y366252D01*
X133748D01*
Y374748D01*
D02*
G37*
G36*
X120059D02*
X118941D01*
X117860Y374459D01*
X116892Y373899D01*
X116101Y373108D01*
X115542Y372140D01*
X115252Y371059D01*
Y369941D01*
X115542Y368860D01*
X116101Y367892D01*
X116892Y367101D01*
X117860Y366542D01*
X118941Y366252D01*
X120059D01*
X121140Y366542D01*
X122108Y367101D01*
X122899Y367892D01*
X123459Y368860D01*
X123748Y369941D01*
Y371059D01*
X123459Y372140D01*
X122899Y373108D01*
X122108Y373899D01*
X121140Y374459D01*
X120059Y374748D01*
D02*
G37*
G36*
X130059Y364748D02*
X128941D01*
X127860Y364458D01*
X126892Y363899D01*
X126101Y363108D01*
X125541Y362140D01*
X125252Y361059D01*
Y359941D01*
X125541Y358860D01*
X125599Y358761D01*
X124118Y357281D01*
X122942D01*
X122751Y357743D01*
X122899Y357892D01*
X123459Y358860D01*
X123748Y359941D01*
Y361059D01*
X123459Y362140D01*
X122899Y363108D01*
X122108Y363899D01*
X121140Y364458D01*
X120059Y364748D01*
X118941D01*
X117860Y364458D01*
X116892Y363899D01*
X116101Y363108D01*
X115542Y362140D01*
X115252Y361059D01*
Y359941D01*
X115542Y358860D01*
X116101Y357892D01*
X116717Y357275D01*
X116862Y357007D01*
X116736Y356613D01*
X110419Y350296D01*
X110087Y349800D01*
X109971Y349215D01*
Y330055D01*
X109651Y329735D01*
X109319Y328934D01*
Y328066D01*
X109651Y327264D01*
X110265Y326651D01*
X111066Y326319D01*
X111934D01*
X112735Y326651D01*
X113349Y327264D01*
X113681Y328066D01*
Y328934D01*
X113349Y329735D01*
X113029Y330055D01*
Y348581D01*
X114790Y350342D01*
X115252Y350151D01*
Y349941D01*
X115542Y348860D01*
X116101Y347892D01*
X116892Y347101D01*
X117860Y346542D01*
X118941Y346252D01*
X120059D01*
X121140Y346542D01*
X122108Y347101D01*
X122899Y347892D01*
X123459Y348860D01*
X123748Y349941D01*
Y351059D01*
X123459Y352140D01*
X122899Y353108D01*
X122285Y353723D01*
X122492Y354223D01*
X124752D01*
X125337Y354339D01*
X125833Y354671D01*
X127761Y356598D01*
X127860Y356541D01*
X128941Y356252D01*
X130059D01*
X131140Y356541D01*
X132108Y357101D01*
X132899Y357892D01*
X133458Y358860D01*
X133748Y359941D01*
Y361059D01*
X133458Y362140D01*
X132899Y363108D01*
X132108Y363899D01*
X131140Y364458D01*
X130059Y364748D01*
D02*
G37*
G36*
Y354748D02*
X128941D01*
X127860Y354458D01*
X126892Y353899D01*
X126101Y353108D01*
X125541Y352140D01*
X125252Y351059D01*
Y349941D01*
X125541Y348860D01*
X126101Y347892D01*
X126892Y347101D01*
X127860Y346542D01*
X128941Y346252D01*
X130059D01*
X131140Y346542D01*
X132108Y347101D01*
X132899Y347892D01*
X133458Y348860D01*
X133748Y349941D01*
Y351059D01*
X133458Y352140D01*
X132899Y353108D01*
X132108Y353899D01*
X131140Y354458D01*
X130059Y354748D01*
D02*
G37*
G36*
Y344748D02*
X128941D01*
X127860Y344459D01*
X126892Y343899D01*
X126101Y343108D01*
X125541Y342140D01*
X125252Y341059D01*
Y339941D01*
X125541Y338860D01*
X126101Y337892D01*
X126892Y337101D01*
X127860Y336542D01*
X128941Y336252D01*
X130059D01*
X131140Y336542D01*
X132108Y337101D01*
X132899Y337892D01*
X133458Y338860D01*
X133748Y339941D01*
Y341059D01*
X133458Y342140D01*
X132899Y343108D01*
X132108Y343899D01*
X131140Y344459D01*
X130059Y344748D01*
D02*
G37*
G36*
X120059D02*
X118941D01*
X117860Y344459D01*
X116892Y343899D01*
X116101Y343108D01*
X115542Y342140D01*
X115252Y341059D01*
Y339941D01*
X115542Y338860D01*
X116101Y337892D01*
X116892Y337101D01*
X117860Y336542D01*
X118941Y336252D01*
X120059D01*
X121140Y336542D01*
X122108Y337101D01*
X122899Y337892D01*
X123459Y338860D01*
X123748Y339941D01*
Y341059D01*
X123459Y342140D01*
X122899Y343108D01*
X122108Y343899D01*
X121140Y344459D01*
X120059Y344748D01*
D02*
G37*
G36*
X130059Y334748D02*
X128941D01*
X127860Y334458D01*
X126920Y333915D01*
X129500Y331335D01*
X132080Y333915D01*
X131140Y334458D01*
X130059Y334748D01*
D02*
G37*
G36*
X120059D02*
X118941D01*
X117860Y334458D01*
X116920Y333915D01*
X119500Y331335D01*
X122080Y333915D01*
X121140Y334458D01*
X120059Y334748D01*
D02*
G37*
G36*
X116085Y333080D02*
X115542Y332140D01*
X115252Y331059D01*
Y329941D01*
X115542Y328860D01*
X116085Y327920D01*
X118665Y330500D01*
X116085Y333080D01*
D02*
G37*
G36*
X126084D02*
X125541Y332140D01*
X125252Y331059D01*
Y329941D01*
X125541Y328860D01*
X126084Y327920D01*
X128665Y330500D01*
X126084Y333080D01*
D02*
G37*
G36*
X132915Y333080D02*
X130335Y330500D01*
X132915Y327920D01*
X133458Y328860D01*
X133748Y329941D01*
Y331059D01*
X133458Y332140D01*
X132915Y333080D01*
D02*
G37*
G36*
X122915D02*
X120335Y330500D01*
X122915Y327920D01*
X123459Y328860D01*
X123748Y329941D01*
Y331059D01*
X123459Y332140D01*
X122915Y333080D01*
D02*
G37*
G36*
X129500Y329665D02*
X126920Y327084D01*
X127860Y326541D01*
X128941Y326252D01*
X130059D01*
X131140Y326541D01*
X132080Y327084D01*
X129500Y329665D01*
D02*
G37*
G36*
X119500D02*
X116920Y327084D01*
X117860Y326541D01*
X118941Y326252D01*
X120059D01*
X121140Y326541D01*
X122080Y327084D01*
X119500Y329665D01*
D02*
G37*
G36*
X130059Y324748D02*
X128941D01*
X127860Y324459D01*
X126892Y323899D01*
X126101Y323108D01*
X125541Y322140D01*
X125252Y321059D01*
Y319941D01*
X125541Y318860D01*
X126101Y317892D01*
X126892Y317101D01*
X127860Y316542D01*
X128941Y316252D01*
X130059D01*
X131140Y316542D01*
X132108Y317101D01*
X132899Y317892D01*
X133458Y318860D01*
X133748Y319941D01*
Y321059D01*
X133458Y322140D01*
X132899Y323108D01*
X132108Y323899D01*
X131140Y324459D01*
X130059Y324748D01*
D02*
G37*
G36*
X120059D02*
X118941D01*
X117860Y324459D01*
X116892Y323899D01*
X116101Y323108D01*
X115542Y322140D01*
X115252Y321059D01*
Y319941D01*
X115542Y318860D01*
X116101Y317892D01*
X116892Y317101D01*
X117860Y316542D01*
X118941Y316252D01*
X120059D01*
X121140Y316542D01*
X122108Y317101D01*
X122899Y317892D01*
X123459Y318860D01*
X123748Y319941D01*
Y321059D01*
X123459Y322140D01*
X122899Y323108D01*
X122108Y323899D01*
X121140Y324459D01*
X120059Y324748D01*
D02*
G37*
%LPD*%
D19*
X111500Y328500D02*
Y349215D01*
X118037Y355752D01*
X124752D01*
X129500Y360500D01*
D20*
X187600Y343500D02*
Y348800D01*
X207500Y368700D02*
Y381500D01*
X187600Y348800D02*
X207500Y368700D01*
X163500Y381500D02*
X207500D01*
X187600Y343500D02*
X198300Y332800D01*
Y311900D02*
Y332800D01*
D22*
X119500Y340500D02*
D03*
X129500D02*
D03*
X119500Y360500D02*
D03*
X129500D02*
D03*
X119500Y370500D02*
D03*
X129500Y350500D02*
D03*
X119500D02*
D03*
X129500Y330500D02*
D03*
Y320500D02*
D03*
X119500Y330500D02*
D03*
Y320500D02*
D03*
D23*
X129500Y370500D02*
D03*
D24*
X209900Y400800D02*
D03*
X204900Y390800D02*
D03*
X209900Y360800D02*
D03*
X204900Y350800D02*
D03*
X209900Y340800D02*
D03*
X204900Y330800D02*
D03*
X209900Y320800D02*
D03*
X204900Y310800D02*
D03*
X199900Y400800D02*
D03*
X194900Y390800D02*
D03*
Y350800D02*
D03*
X199900Y340800D02*
D03*
X194900Y330800D02*
D03*
X189900Y400800D02*
D03*
X184900Y350800D02*
D03*
X179900Y400800D02*
D03*
X174900Y370800D02*
D03*
Y350800D02*
D03*
X169900Y400800D02*
D03*
X164900Y370800D02*
D03*
X169900Y360800D02*
D03*
X164900Y330800D02*
D03*
X159900Y400800D02*
D03*
Y380800D02*
D03*
X154900Y370800D02*
D03*
X159900Y360800D02*
D03*
X154900Y330800D02*
D03*
X159900Y320800D02*
D03*
X154900Y310800D02*
D03*
X149900Y400800D02*
D03*
Y320800D02*
D03*
X144900Y310800D02*
D03*
X139900Y400800D02*
D03*
X134900Y390800D02*
D03*
X139900Y380800D02*
D03*
Y360800D02*
D03*
Y340800D02*
D03*
X129900Y400800D02*
D03*
X124900Y390800D02*
D03*
X119900Y400800D02*
D03*
X114900Y390800D02*
D03*
X119900Y380800D02*
D03*
X109900Y400800D02*
D03*
X104900Y390800D02*
D03*
X109900Y380800D02*
D03*
X104900Y370800D02*
D03*
X109900Y360800D02*
D03*
X104900Y350800D02*
D03*
X187600Y343500D02*
D03*
X198300Y311900D02*
D03*
X111500Y328500D02*
D03*
X163500Y381500D02*
D03*
X207500D02*
D03*
M02*
