M48
;Layer_Color=9474304
;FILE_FORMAT=2:4
INCH,TZ
;TYPE=PLATED
T1F00S00C0.0118
T2F00S00C0.0433
%
T01
X19830Y31190
X20490Y31080
X15490
X14490
X14990Y32080
X15490Y33080
X13990Y34080
Y36080
Y38080
X13490Y39080
X12490
X11490
X10490
X10990Y40080
X11990
X12990
X13990
X14990
X15490Y37080
X11990Y38080
X10990
X10490Y37080
X10990Y36080
X10490Y35080
X11150Y32850
X16490Y33080
X15990Y32080
Y36080
X16990
X17490Y37080
X16490
X16350Y38150
X15990Y38080
Y40080
X16990
X17990
X18990
X19990
X20990
X20490Y39080
X19490
X20750Y38150
X20990Y36080
X20490Y35080
X19490
X18490
X17490
X18760Y34350
X19990Y34080
X20990
X20490Y33080
X19490
X20990Y32080
T02
X11950Y32050
X12950
Y33050
Y34050
X11950
Y35050
Y36050
X12950
Y37050
X11950
X12950Y35050
X11950Y33050
M30
