G04*
G04 #@! TF.GenerationSoftware,Altium Limited,Altium Designer,23.4.1 (23)*
G04*
G04 Layer_Physical_Order=1*
G04 Layer_Color=255*
%FSLAX25Y25*%
%MOIN*%
G70*
G04*
G04 #@! TF.SameCoordinates,985B102E-A1E5-4F21-A819-21D10D55B489*
G04*
G04*
G04 #@! TF.FilePolarity,Positive*
G04*
G01*
G75*
%ADD12R,0.02559X0.06496*%
%ADD13R,0.05315X0.03740*%
%ADD14R,0.05733X0.05136*%
%ADD19C,0.01000*%
%ADD20C,0.01968*%
%ADD21C,0.01575*%
%ADD22C,0.06496*%
%ADD23R,0.06496X0.06496*%
%ADD24C,0.02362*%
G36*
X215480Y293920D02*
X101520D01*
Y403280D01*
X215480D01*
Y293920D01*
D02*
G37*
%LPC*%
G36*
X184000Y397029D02*
X148000D01*
X147415Y396913D01*
X146919Y396581D01*
X128419Y378081D01*
X128087Y377585D01*
X127971Y377000D01*
Y374748D01*
X125252D01*
Y366252D01*
X133748D01*
Y374748D01*
X131029D01*
Y376366D01*
X148634Y393971D01*
X183367D01*
X191971Y385367D01*
Y384370D01*
X189842D01*
Y378768D01*
X189842Y378630D01*
Y378268D01*
X189842Y378130D01*
Y372528D01*
X190297D01*
X190488Y372066D01*
X186821Y368398D01*
X186426Y367807D01*
X186287Y367109D01*
X185973Y366748D01*
X185780D01*
X185721Y366748D01*
X185280D01*
X184822Y366994D01*
Y368245D01*
X186789Y370211D01*
X186789Y370211D01*
X187184Y370803D01*
X187322Y371500D01*
Y372528D01*
X189157D01*
Y378130D01*
X189157Y378268D01*
Y378630D01*
X189157Y378768D01*
Y384370D01*
X187029D01*
Y386000D01*
X186913Y386585D01*
X186581Y387081D01*
X181081Y392581D01*
X180585Y392913D01*
X180000Y393029D01*
X151500D01*
X150915Y392913D01*
X150419Y392581D01*
X141919Y384081D01*
X141587Y383585D01*
X141471Y383000D01*
Y358633D01*
X134866Y352029D01*
X133488D01*
X133458Y352140D01*
X132899Y353108D01*
X132108Y353899D01*
X131140Y354458D01*
X130059Y354748D01*
X128941D01*
X127860Y354458D01*
X126892Y353899D01*
X126101Y353108D01*
X125541Y352140D01*
X125252Y351059D01*
Y349941D01*
X125541Y348860D01*
X126101Y347892D01*
X126463Y347529D01*
X126256Y347029D01*
X123634D01*
X122835Y347828D01*
X122899Y347892D01*
X123459Y348860D01*
X123748Y349941D01*
Y351059D01*
X123459Y352140D01*
X122899Y353108D01*
X122108Y353899D01*
X121140Y354458D01*
X120059Y354748D01*
X118941D01*
X117860Y354458D01*
X116892Y353899D01*
X116101Y353108D01*
X115542Y352140D01*
X115252Y351059D01*
Y349941D01*
X115542Y348860D01*
X116101Y347892D01*
X116892Y347101D01*
X117860Y346542D01*
X118941Y346252D01*
X120059D01*
X120080Y346257D01*
X121522Y344815D01*
X121215Y344415D01*
X121140Y344459D01*
X120059Y344748D01*
X118941D01*
X117860Y344459D01*
X116892Y343899D01*
X116101Y343108D01*
X115542Y342140D01*
X115512Y342029D01*
X110500D01*
X109915Y341913D01*
X109419Y341581D01*
X102615Y334778D01*
X102284Y334282D01*
X102167Y333697D01*
Y306803D01*
X102284Y306218D01*
X102615Y305722D01*
X109419Y298919D01*
X109915Y298587D01*
X110500Y298471D01*
X181000D01*
X181585Y298587D01*
X182081Y298919D01*
X186581Y303419D01*
X186913Y303915D01*
X187029Y304500D01*
Y309028D01*
X189157D01*
Y314768D01*
X189157D01*
Y315130D01*
X189157D01*
Y316178D01*
X189842D01*
Y315268D01*
X189842Y315130D01*
Y314768D01*
X189842Y314630D01*
Y309028D01*
X197158D01*
Y309553D01*
X197658Y309805D01*
X197866Y309719D01*
X198734D01*
X199536Y310051D01*
X200149Y310665D01*
X200481Y311466D01*
Y312334D01*
X200149Y313136D01*
X199536Y313749D01*
X198734Y314081D01*
X197866D01*
X197658Y313995D01*
X197158Y314251D01*
X197158Y315130D01*
X197158Y315268D01*
Y320870D01*
X189842D01*
Y319822D01*
X189157D01*
Y320870D01*
X187322D01*
Y324500D01*
X187184Y325197D01*
X186789Y325789D01*
X186789Y325789D01*
X184822Y327755D01*
Y329802D01*
X185142Y329874D01*
X185322Y329898D01*
X185747Y329827D01*
X185779Y329779D01*
X186208Y329350D01*
X186291Y329294D01*
X186362Y329223D01*
X186455Y329185D01*
X186539Y329129D01*
X186545Y329128D01*
X186705Y329061D01*
X186710Y329058D01*
X186809Y329038D01*
X186902Y329000D01*
X187002Y329000D01*
X187100Y328980D01*
X189299D01*
X189299Y328980D01*
X189400Y328980D01*
X189498Y329000D01*
X189599Y329000D01*
X189658Y329025D01*
X189722Y329033D01*
X189722Y329033D01*
X189754Y329051D01*
X189790Y329058D01*
X189795Y329061D01*
X189795Y329061D01*
X189955Y329128D01*
X189961Y329129D01*
X190044Y329185D01*
X190137Y329223D01*
X190208Y329294D01*
X190292Y329350D01*
X190363Y329421D01*
X190363Y329421D01*
X190363Y329421D01*
X191650Y330708D01*
X191706Y330791D01*
X191777Y330862D01*
X191815Y330955D01*
X191871Y331039D01*
X191872Y331045D01*
X191939Y331205D01*
X191942Y331210D01*
X191962Y331309D01*
X192000Y331402D01*
X192000Y331502D01*
X192020Y331600D01*
Y342299D01*
X192020Y342299D01*
X192020Y342400D01*
X192000Y342498D01*
X192000Y342599D01*
X191975Y342658D01*
X191967Y342722D01*
X191967Y342722D01*
X191949Y342754D01*
X191942Y342790D01*
X191939Y342795D01*
X191939Y342795D01*
X191872Y342955D01*
X191871Y342961D01*
X191815Y343044D01*
X191777Y343137D01*
X191706Y343208D01*
X191650Y343292D01*
X191579Y343363D01*
X191579Y343363D01*
X191579Y343363D01*
X187492Y347450D01*
X187409Y347505D01*
X187339Y347576D01*
X187245Y347615D01*
X187161Y347671D01*
X187155Y347672D01*
X186995Y347739D01*
X186990Y347742D01*
X186891Y347762D01*
X186797Y347800D01*
X186698Y347800D01*
X186600Y347820D01*
X150400D01*
X150302Y347800D01*
X150201Y347800D01*
X150174Y347795D01*
X150174Y347795D01*
X150076Y347775D01*
X149983Y347737D01*
X149917Y347723D01*
X149134D01*
Y347075D01*
X136350Y334292D01*
X136294Y334209D01*
X136223Y334138D01*
X136185Y334045D01*
X136129Y333961D01*
X136128Y333956D01*
X136061Y333795D01*
X136058Y333790D01*
X136038Y333691D01*
X136000Y333597D01*
X136000Y333498D01*
X135980Y333400D01*
Y332155D01*
X135980Y326922D01*
X135578Y326520D01*
X132102D01*
X131968Y327020D01*
X132080Y327084D01*
X129500Y329665D01*
X126920Y327084D01*
X127032Y327020D01*
X126898Y326520D01*
X122102D01*
X121968Y327020D01*
X122080Y327084D01*
X119082Y330082D01*
X119918Y330918D01*
X122915Y327920D01*
X123459Y328860D01*
X123748Y329941D01*
Y331059D01*
X123459Y332140D01*
X122899Y333108D01*
X122537Y333471D01*
X122744Y333971D01*
X124500D01*
X125085Y334087D01*
X125581Y334419D01*
X127761Y336598D01*
X127860Y336542D01*
X128941Y336252D01*
X130059D01*
X131140Y336542D01*
X132108Y337101D01*
X132899Y337892D01*
X133458Y338860D01*
X133748Y339941D01*
Y341059D01*
X133458Y342140D01*
X132899Y343108D01*
X132537Y343471D01*
X132744Y343971D01*
X136000D01*
X136585Y344087D01*
X137081Y344419D01*
X149081Y356419D01*
X149413Y356915D01*
X149529Y357500D01*
Y380366D01*
X155633Y386471D01*
X174866D01*
X175971Y385367D01*
Y384370D01*
X173843D01*
Y378768D01*
X173843Y378630D01*
Y378268D01*
X173843Y378130D01*
Y377220D01*
X173158D01*
Y378130D01*
X173158Y378268D01*
Y378630D01*
X173158Y378768D01*
Y384370D01*
X165842D01*
Y383523D01*
X164315D01*
X163934Y383681D01*
X163066D01*
X162265Y383349D01*
X161651Y382735D01*
X161319Y381934D01*
Y381066D01*
X161651Y380264D01*
X162265Y379651D01*
X163066Y379319D01*
X163934D01*
X164315Y379477D01*
X165842D01*
Y378768D01*
X165842Y378630D01*
Y378268D01*
X165842Y378130D01*
Y372528D01*
X173158D01*
Y373575D01*
X173843D01*
Y372528D01*
X176178D01*
Y366748D01*
X175721D01*
Y358252D01*
X180220D01*
X180280Y358252D01*
X180720D01*
X180780Y358252D01*
X185221D01*
X185280Y358252D01*
X185721D01*
X185780Y358252D01*
X190279D01*
Y366702D01*
X194376Y370799D01*
X194376Y370799D01*
X194772Y371390D01*
X194910Y372088D01*
X195068Y372528D01*
X197158D01*
Y373575D01*
X197843D01*
Y372528D01*
X205157D01*
Y378130D01*
X205157Y378268D01*
Y378630D01*
X205157Y378768D01*
Y379477D01*
X206685D01*
X207066Y379319D01*
X207934D01*
X208735Y379651D01*
X209349Y380264D01*
X209681Y381066D01*
Y381934D01*
X209349Y382735D01*
X208735Y383349D01*
X207934Y383681D01*
X207066D01*
X206685Y383523D01*
X205157D01*
Y384370D01*
X197843D01*
Y378768D01*
X197843Y378630D01*
Y378268D01*
X197843Y378130D01*
Y377220D01*
X197158D01*
Y378130D01*
X197158Y378268D01*
Y378630D01*
X197158Y378768D01*
Y384370D01*
X195029D01*
Y386000D01*
X194913Y386585D01*
X194581Y387081D01*
X185081Y396581D01*
X184585Y396913D01*
X184000Y397029D01*
D02*
G37*
G36*
X120059Y374748D02*
X118941D01*
X117860Y374459D01*
X116892Y373899D01*
X116101Y373108D01*
X115542Y372140D01*
X115252Y371059D01*
Y369941D01*
X115542Y368860D01*
X116101Y367892D01*
X116892Y367101D01*
X117860Y366542D01*
X118941Y366252D01*
X120059D01*
X121140Y366542D01*
X122108Y367101D01*
X122899Y367892D01*
X123459Y368860D01*
X123748Y369941D01*
Y371059D01*
X123459Y372140D01*
X122899Y373108D01*
X122108Y373899D01*
X121140Y374459D01*
X120059Y374748D01*
D02*
G37*
G36*
X130059Y364748D02*
X128941D01*
X127860Y364458D01*
X126892Y363899D01*
X126101Y363108D01*
X125541Y362140D01*
X125252Y361059D01*
Y359941D01*
X125541Y358860D01*
X126101Y357892D01*
X126892Y357101D01*
X127860Y356541D01*
X128941Y356252D01*
X130059D01*
X131140Y356541D01*
X132108Y357101D01*
X132899Y357892D01*
X133458Y358860D01*
X133748Y359941D01*
Y361059D01*
X133458Y362140D01*
X132899Y363108D01*
X132108Y363899D01*
X131140Y364458D01*
X130059Y364748D01*
D02*
G37*
G36*
X120059D02*
X118941D01*
X117860Y364458D01*
X116892Y363899D01*
X116101Y363108D01*
X115542Y362140D01*
X115252Y361059D01*
Y359941D01*
X115542Y358860D01*
X116101Y357892D01*
X116892Y357101D01*
X117860Y356541D01*
X118941Y356252D01*
X120059D01*
X121140Y356541D01*
X122108Y357101D01*
X122899Y357892D01*
X123459Y358860D01*
X123748Y359941D01*
Y361059D01*
X123459Y362140D01*
X122899Y363108D01*
X122108Y363899D01*
X121140Y364458D01*
X120059Y364748D01*
D02*
G37*
G36*
X130059Y334748D02*
X128941D01*
X127860Y334458D01*
X126920Y333915D01*
X129500Y331335D01*
X132080Y333915D01*
X131140Y334458D01*
X130059Y334748D01*
D02*
G37*
G36*
X126084Y333080D02*
X125541Y332140D01*
X125252Y331059D01*
Y329941D01*
X125541Y328860D01*
X126084Y327920D01*
X128665Y330500D01*
X126084Y333080D01*
D02*
G37*
G36*
X132915Y333080D02*
X130335Y330500D01*
X132915Y327920D01*
X133458Y328860D01*
X133748Y329941D01*
Y331059D01*
X133458Y332140D01*
X132915Y333080D01*
D02*
G37*
%LPD*%
G36*
X184254Y338902D02*
X183987Y338402D01*
X180780D01*
X180720Y338402D01*
X180280D01*
X180220Y338402D01*
X175779D01*
X175721Y338402D01*
X175279D01*
X175221Y338402D01*
X170721D01*
Y329906D01*
X171178D01*
Y326255D01*
X168211Y323289D01*
X167816Y322697D01*
X167678Y322000D01*
X167678Y322000D01*
Y320870D01*
X165842D01*
Y315268D01*
X165842Y315130D01*
Y314768D01*
X165842Y314630D01*
Y309029D01*
X116633D01*
X113029Y312633D01*
Y313375D01*
X113491Y313567D01*
X115208Y311850D01*
X115291Y311794D01*
X115362Y311723D01*
X115455Y311685D01*
X115539Y311629D01*
X115544Y311628D01*
X115705Y311561D01*
X115710Y311558D01*
X115809Y311538D01*
X115902Y311500D01*
X116002Y311500D01*
X116100Y311480D01*
X134799D01*
X134799Y311480D01*
X134899Y311480D01*
X134998Y311500D01*
X135099Y311500D01*
X135158Y311525D01*
X135222Y311533D01*
X135222Y311533D01*
X135254Y311551D01*
X135290Y311558D01*
X135295Y311561D01*
X135295Y311561D01*
X135455Y311628D01*
X135461Y311629D01*
X135544Y311685D01*
X135637Y311723D01*
X135708Y311794D01*
X135792Y311850D01*
X135863Y311921D01*
X135863Y311921D01*
X135863Y311921D01*
X143150Y319208D01*
X143206Y319291D01*
X143277Y319362D01*
X143315Y319455D01*
X143371Y319539D01*
X143372Y319545D01*
X143439Y319705D01*
X143442Y319710D01*
X143462Y319809D01*
X143500Y319902D01*
X143500Y320002D01*
X143520Y320100D01*
Y330578D01*
X151922Y338980D01*
X184202D01*
X184254Y338902D01*
D02*
G37*
G36*
X186604Y346797D02*
X186765Y346730D01*
X186771Y346729D01*
X190858Y342642D01*
X190929Y342571D01*
X190930Y342565D01*
X190997Y342404D01*
X191000Y342400D01*
X191000Y342400D01*
X191000Y342299D01*
X191000Y342299D01*
Y331600D01*
X190997Y331596D01*
X190930Y331435D01*
X190929Y331429D01*
X189642Y330142D01*
X189571Y330071D01*
X189565Y330070D01*
X189404Y330003D01*
X189400Y330000D01*
X189400Y330000D01*
X189299Y330000D01*
X189299Y330000D01*
X187100D01*
X187096Y330003D01*
X186935Y330070D01*
X186929Y330071D01*
X186500Y330500D01*
Y338500D01*
X185000Y340000D01*
X151500D01*
X142500Y331000D01*
Y320100D01*
X142497Y320096D01*
X142430Y319935D01*
X142429Y319929D01*
X135142Y312642D01*
X135071Y312571D01*
X135065Y312570D01*
X134904Y312503D01*
X134900Y312500D01*
X134900Y312500D01*
X134799Y312500D01*
X134799Y312500D01*
X116100D01*
X116096Y312503D01*
X115935Y312570D01*
X115929Y312571D01*
X113500Y315000D01*
Y323500D01*
X115500Y325500D01*
X136000D01*
X137000Y326500D01*
X137000Y332155D01*
Y333400D01*
X137003Y333404D01*
X137070Y333565D01*
X137071Y333571D01*
X150275Y346775D01*
X150373Y346795D01*
X150374Y346795D01*
X150400Y346800D01*
X186600D01*
X186604Y346797D01*
D02*
G37*
%LPC*%
G36*
X130059Y324748D02*
X128941D01*
X127860Y324459D01*
X126920Y323916D01*
X129500Y321335D01*
X132080Y323916D01*
X131140Y324459D01*
X130059Y324748D01*
D02*
G37*
G36*
X120059D02*
X118941D01*
X117860Y324459D01*
X116920Y323916D01*
X119500Y321335D01*
X122080Y323916D01*
X121140Y324459D01*
X120059Y324748D01*
D02*
G37*
G36*
X116085Y323080D02*
X115542Y322140D01*
X115252Y321059D01*
Y319941D01*
X115542Y318860D01*
X116085Y317920D01*
X118665Y320500D01*
X116085Y323080D01*
D02*
G37*
G36*
X126084D02*
X125541Y322140D01*
X125252Y321059D01*
Y319941D01*
X125541Y318860D01*
X126084Y317920D01*
X128665Y320500D01*
X126084Y323080D01*
D02*
G37*
G36*
X132915Y323080D02*
X130335Y320500D01*
X132915Y317920D01*
X133458Y318860D01*
X133748Y319941D01*
Y321059D01*
X133458Y322140D01*
X132915Y323080D01*
D02*
G37*
G36*
X122915D02*
X120335Y320500D01*
X122915Y317920D01*
X123459Y318860D01*
X123748Y319941D01*
Y321059D01*
X123459Y322140D01*
X122915Y323080D01*
D02*
G37*
G36*
X129500Y319665D02*
X126920Y317085D01*
X127860Y316542D01*
X128941Y316252D01*
X130059D01*
X131140Y316542D01*
X132080Y317085D01*
X129500Y319665D01*
D02*
G37*
G36*
X119500D02*
X116920Y317085D01*
X117860Y316542D01*
X118941Y316252D01*
X120059D01*
X121140Y316542D01*
X122080Y317085D01*
X119500Y319665D01*
D02*
G37*
%LPD*%
D12*
X188000Y362500D02*
D03*
X183000D02*
D03*
X178000D02*
D03*
X173000D02*
D03*
Y334154D02*
D03*
X178000D02*
D03*
X183000D02*
D03*
X188000D02*
D03*
D13*
X201500Y381500D02*
D03*
Y375398D02*
D03*
X185500D02*
D03*
Y381500D02*
D03*
X193500Y375398D02*
D03*
Y381500D02*
D03*
X177500Y311898D02*
D03*
Y318000D02*
D03*
X169500Y311898D02*
D03*
Y318000D02*
D03*
X185500Y311898D02*
D03*
Y318000D02*
D03*
X193500D02*
D03*
Y311898D02*
D03*
X169500Y375398D02*
D03*
Y381500D02*
D03*
X177500Y375398D02*
D03*
Y381500D02*
D03*
D14*
X163500Y344155D02*
D03*
Y350500D02*
D03*
X153000Y344155D02*
D03*
Y350500D02*
D03*
D19*
X136000Y345500D02*
X148000Y357500D01*
Y381000D01*
X155000Y388000D01*
X143000Y358000D02*
Y383000D01*
X135500Y350500D02*
X143000Y358000D01*
Y383000D02*
X151500Y391500D01*
X129500Y350500D02*
X135500D01*
X123000Y345500D02*
X136000D01*
X110500Y300000D02*
X181000D01*
X103697Y306803D02*
Y333697D01*
Y306803D02*
X110500Y300000D01*
X112500Y304000D02*
X175000D01*
X107500Y309000D02*
Y331500D01*
Y309000D02*
X112500Y304000D01*
X111500Y312000D02*
X116000Y307500D01*
X111500Y312000D02*
Y328500D01*
X107500Y331500D02*
X111500Y335500D01*
X116000Y307500D02*
X168414D01*
X111500Y335500D02*
X124500D01*
X103697Y333697D02*
X110500Y340500D01*
X119500D01*
X169000Y308086D02*
Y311398D01*
X168414Y307500D02*
X169000Y308086D01*
Y311398D02*
X169500Y311898D01*
X124500Y335500D02*
X129500Y340500D01*
X175000Y304000D02*
X177500Y306500D01*
X185500Y304500D02*
Y311898D01*
X181000Y300000D02*
X185500Y304500D01*
X177500Y306500D02*
Y311898D01*
X184000Y395500D02*
X193500Y386000D01*
Y381500D02*
Y386000D01*
X148000Y395500D02*
X184000D01*
X151500Y391500D02*
X180000D01*
X185500Y381500D02*
Y386000D01*
X180000Y391500D02*
X185500Y386000D01*
X175500Y388000D02*
X177500Y386000D01*
Y381500D02*
Y386000D01*
X155000Y388000D02*
X175500D01*
X129500Y370500D02*
Y377000D01*
X148000Y395500D01*
X119500Y349013D02*
Y350500D01*
Y349013D02*
X121107Y347405D01*
Y347393D02*
Y347405D01*
Y347393D02*
X123000Y345500D01*
D20*
X193500Y311898D02*
X193501Y311899D01*
X198299D01*
X198300Y311900D01*
X163500Y381500D02*
X169500D01*
X201500D02*
X207500D01*
D21*
X185500Y318000D02*
X193500D01*
X185500D02*
Y324500D01*
X183000Y327000D02*
X185500Y324500D01*
X183000Y327000D02*
Y334154D01*
X178000Y318500D02*
Y334154D01*
X177500Y318000D02*
X178000Y318500D01*
X169500Y318000D02*
Y322000D01*
X173000Y325500D02*
Y334154D01*
X169500Y322000D02*
X173000Y325500D01*
X188000Y362500D02*
X188109Y362609D01*
Y367109D01*
X193088Y372088D01*
Y374985D01*
X193500Y375398D01*
X201500D01*
X185500Y371500D02*
Y375398D01*
X183000Y369000D02*
X185500Y371500D01*
X183000Y362500D02*
Y369000D01*
X178000Y362500D02*
Y374898D01*
X177500Y375398D02*
X178000Y374898D01*
X169500Y375398D02*
X177500D01*
D22*
X119500Y340500D02*
D03*
X129500D02*
D03*
X119500Y360500D02*
D03*
X129500D02*
D03*
X119500Y370500D02*
D03*
X129500Y350500D02*
D03*
X119500D02*
D03*
X129500Y330500D02*
D03*
Y320500D02*
D03*
X119500Y330500D02*
D03*
Y320500D02*
D03*
D23*
X129500Y370500D02*
D03*
D24*
X209900Y400800D02*
D03*
X204900Y390800D02*
D03*
X209900Y360800D02*
D03*
X204900Y350800D02*
D03*
X209900Y340800D02*
D03*
X204900Y330800D02*
D03*
X209900Y320800D02*
D03*
X204900Y310800D02*
D03*
X199900Y400800D02*
D03*
X194900Y390800D02*
D03*
Y350800D02*
D03*
X199900Y340800D02*
D03*
X194900Y330800D02*
D03*
X189900Y400800D02*
D03*
X184900Y350800D02*
D03*
X179900Y400800D02*
D03*
X174900Y370800D02*
D03*
Y350800D02*
D03*
X169900Y400800D02*
D03*
X164900Y370800D02*
D03*
X169900Y360800D02*
D03*
X164900Y330800D02*
D03*
X159900Y400800D02*
D03*
Y380800D02*
D03*
X154900Y370800D02*
D03*
X159900Y360800D02*
D03*
X154900Y330800D02*
D03*
X159900Y320800D02*
D03*
X154900Y310800D02*
D03*
X149900Y400800D02*
D03*
Y320800D02*
D03*
X144900Y310800D02*
D03*
X139900Y400800D02*
D03*
X134900Y390800D02*
D03*
X139900Y380800D02*
D03*
Y360800D02*
D03*
Y340800D02*
D03*
X129900Y400800D02*
D03*
X124900Y390800D02*
D03*
X119900Y400800D02*
D03*
X114900Y390800D02*
D03*
X119900Y380800D02*
D03*
X109900Y400800D02*
D03*
X104900Y390800D02*
D03*
X109900Y380800D02*
D03*
X104900Y370800D02*
D03*
X109900Y360800D02*
D03*
X104900Y350800D02*
D03*
X187600Y343500D02*
D03*
X198300Y311900D02*
D03*
X111500Y328500D02*
D03*
X163500Y381500D02*
D03*
X207500D02*
D03*
M02*
