G04*
G04 #@! TF.GenerationSoftware,Altium Limited,Altium Designer,23.4.1 (23)*
G04*
G04 Layer_Color=65535*
%FSLAX25Y25*%
%MOIN*%
G70*
G04*
G04 #@! TF.SameCoordinates,985B102E-A1E5-4F21-A819-21D10D55B489*
G04*
G04*
G04 #@! TF.FilePolarity,Positive*
G04*
G01*
G75*
%ADD10C,0.00787*%
%ADD11C,0.00600*%
D10*
X78626Y370028D02*
Y370972D01*
Y350028D02*
Y350972D01*
Y360028D02*
Y360972D01*
Y340028D02*
Y340972D01*
Y370972D02*
X79413Y371760D01*
X78626Y370028D02*
X79413Y369240D01*
X78626Y360972D02*
X79413Y361760D01*
X78626Y360028D02*
X79413Y359240D01*
X78626Y350972D02*
X79413Y351760D01*
X78626Y350028D02*
X79413Y349240D01*
X78626Y340972D02*
X79413Y341760D01*
X78626Y340028D02*
X79413Y339240D01*
Y371760D02*
X101953D01*
X79413Y369240D02*
X101953D01*
X79413Y361760D02*
X101953D01*
X79413Y359240D02*
X101953D01*
X79413Y351760D02*
X101953D01*
X79413Y349240D02*
X101953D01*
X79413Y341760D02*
X101953D01*
Y314909D02*
Y376091D01*
X112543D01*
Y314909D02*
Y376091D01*
X78626Y330028D02*
Y330972D01*
Y320028D02*
Y320972D01*
Y330972D02*
X79413Y331760D01*
X78626Y330028D02*
X79413Y329240D01*
X78626Y320972D02*
X79413Y321760D01*
X78626Y320028D02*
X79413Y319240D01*
Y339240D02*
X101953D01*
X79413Y331760D02*
X101953D01*
X79413Y329240D02*
X101953D01*
X79413Y321760D02*
X101953D01*
X79413Y319240D02*
X101953D01*
Y314909D02*
X112543D01*
X190894Y338780D02*
Y357874D01*
X170106Y338780D02*
X190894D01*
X170106D02*
Y357874D01*
X190894D01*
X190657Y359252D02*
Y365748D01*
X167941Y341587D02*
Y353068D01*
X159059Y341587D02*
Y353068D01*
X157441Y341587D02*
Y353068D01*
X148559Y341587D02*
Y353068D01*
X191532Y306780D02*
X195468D01*
Y304812D01*
X194812Y304156D01*
X193500D01*
X192844Y304812D01*
Y306780D01*
Y305468D02*
X191532Y304156D01*
X194812Y302844D02*
X195468Y302188D01*
Y300876D01*
X194812Y300220D01*
X194156D01*
X193500Y300876D01*
Y301532D01*
Y300876D01*
X192844Y300220D01*
X192188D01*
X191532Y300876D01*
Y302188D01*
X192188Y302844D01*
X167532Y394280D02*
X171468D01*
Y392312D01*
X170812Y391656D01*
X169500D01*
X168844Y392312D01*
Y394280D01*
Y392968D02*
X167532Y391656D01*
Y387720D02*
Y390344D01*
X170156Y387720D01*
X170812D01*
X171468Y388376D01*
Y389688D01*
X170812Y390344D01*
X108500Y382568D02*
X107188D01*
X107844D01*
Y379288D01*
X107188Y378632D01*
X106532D01*
X105876Y379288D01*
X109812Y378632D02*
X111124D01*
X110468D01*
Y382568D01*
X109812Y381912D01*
X183032Y394280D02*
X186968D01*
Y392312D01*
X186312Y391656D01*
X185000D01*
X184344Y392312D01*
Y394280D01*
Y392968D02*
X183032Y391656D01*
X186968Y387720D02*
Y390344D01*
X185000D01*
X185656Y389032D01*
Y388376D01*
X185000Y387720D01*
X183688D01*
X183032Y388376D01*
Y389688D01*
X183688Y390344D01*
X175532Y394280D02*
X179468D01*
Y392312D01*
X178812Y391656D01*
X177500D01*
X176844Y392312D01*
Y394280D01*
Y392968D02*
X175532Y391656D01*
X179468Y390344D02*
Y387720D01*
X178812D01*
X176188Y390344D01*
X175532D01*
X167032Y306780D02*
X170968D01*
Y304812D01*
X170312Y304156D01*
X169000D01*
X168344Y304812D01*
Y306780D01*
Y305468D02*
X167032Y304156D01*
X167688Y302844D02*
X167032Y302188D01*
Y300876D01*
X167688Y300220D01*
X170312D01*
X170968Y300876D01*
Y302188D01*
X170312Y302844D01*
X169656D01*
X169000Y302188D01*
Y300220D01*
X183532Y306780D02*
X187468D01*
Y304812D01*
X186812Y304156D01*
X185500D01*
X184844Y304812D01*
Y306780D01*
Y305468D02*
X183532Y304156D01*
X187468Y300220D02*
X186812Y301532D01*
X185500Y302844D01*
X184188D01*
X183532Y302188D01*
Y300876D01*
X184188Y300220D01*
X184844D01*
X185500Y300876D01*
Y302844D01*
X191532Y394280D02*
X195468D01*
Y392312D01*
X194812Y391656D01*
X193500D01*
X192844Y392312D01*
Y394280D01*
Y392968D02*
X191532Y391656D01*
Y388376D02*
X195468D01*
X193500Y390344D01*
Y387720D01*
X175532Y306780D02*
X179468D01*
Y304812D01*
X178812Y304156D01*
X177500D01*
X176844Y304812D01*
Y306780D01*
Y305468D02*
X175532Y304156D01*
X178812Y302844D02*
X179468Y302188D01*
Y300876D01*
X178812Y300220D01*
X178156D01*
X177500Y300876D01*
X176844Y300220D01*
X176188D01*
X175532Y300876D01*
Y302188D01*
X176188Y302844D01*
X176844D01*
X177500Y302188D01*
X178156Y302844D01*
X178812D01*
X177500Y302188D02*
Y300876D01*
X199532Y394124D02*
X203468D01*
Y392156D01*
X202812Y391500D01*
X201500D01*
X200844Y392156D01*
Y394124D01*
Y392812D02*
X199532Y391500D01*
Y390188D02*
Y388876D01*
Y389532D01*
X203468D01*
X202812Y390188D01*
X197468Y366264D02*
Y364952D01*
Y365608D01*
X193532D01*
Y366264D01*
Y364952D01*
X196812Y360360D02*
X197468Y361016D01*
Y362328D01*
X196812Y362984D01*
X194188D01*
X193532Y362328D01*
Y361016D01*
X194188Y360360D01*
X193532Y359048D02*
Y357736D01*
Y358392D01*
X197468D01*
X196812Y359048D01*
X154312Y334828D02*
X154968Y335484D01*
Y336795D01*
X154312Y337451D01*
X151688D01*
X151032Y336795D01*
Y335484D01*
X151688Y334828D01*
X151032Y333516D02*
Y332204D01*
Y332860D01*
X154968D01*
X154312Y333516D01*
X164812Y334984D02*
X165468Y335640D01*
Y336951D01*
X164812Y337607D01*
X162188D01*
X161532Y336951D01*
Y335640D01*
X162188Y334984D01*
X161532Y331048D02*
Y333672D01*
X164156Y331048D01*
X164812D01*
X165468Y331704D01*
Y333016D01*
X164812Y333672D01*
D11*
X131747Y310834D02*
X131080Y312167D01*
X129747Y313500D01*
X128414D01*
X127748Y312834D01*
Y311501D01*
X128414Y310834D01*
X129081D01*
X129747Y311501D01*
Y313500D01*
X117248D02*
Y312167D01*
Y312834D01*
X121247D01*
X120580Y313500D01*
X117248Y307502D02*
Y310168D01*
X119914Y307502D01*
X120580D01*
X121247Y308168D01*
Y309501D01*
X120580Y310168D01*
X121247Y380000D02*
Y377334D01*
X120580D01*
X117914Y380000D01*
X117248D01*
X126748Y378500D02*
Y377167D01*
Y377834D01*
X130747D01*
X130080Y378500D01*
M02*
